<?xml version="1.0" standalone="no"?>
<!DOCTYPE svg PUBLIC "-//W3C//DTD SVG 1.1//EN" "http://www.w3.org/Graphics/SVG/1.1/DTD/svg11.dtd" >
<svg xmlns="http://www.w3.org/2000/svg" xmlns:xlink="http://www.w3.org/1999/xlink" version="1.1">
<metadata>
Created by FontForge 20141024 at Mon Jan 18 12:46:14 2016
 By Jimmy Warting
</metadata>
<defs>
<font id="Patagonia-Medium" horiz-adv-x="543" >
  <font-face 
    font-family="Patagonia"
    font-weight="500"
    font-stretch="normal"
    units-per-em="1000"
    panose-1="0 0 0 0 0 0 0 0 0 0"
    ascent="750"
    descent="-250"
    x-height="488"
    cap-height="695"
    bbox="-123 -266 1180.59 978"
    underline-thickness="50"
    underline-position="-50"
    unicode-range="U+0020-FB02"
  />
<missing-glyph horiz-adv-x="528" 
d="M481 0h-432v750h432v-750zM99 46h332v658h-332v-658z" />
    <glyph glyph-name=".notdef" horiz-adv-x="528" 
d="M481 0h-432v750h432v-750zM99 46h332v658h-332v-658z" />
    <glyph glyph-name=".null" horiz-adv-x="0" 
 />
    <glyph glyph-name="nonmarkingreturn" horiz-adv-x="260" 
 />
    <glyph glyph-name="space" unicode=" " horiz-adv-x="260" 
 />
    <glyph glyph-name="space" unicode="&#xa0;" horiz-adv-x="260" 
 />
    <glyph glyph-name="E" unicode="E" horiz-adv-x="564" 
d="M492 0h-423v694h425q11 0 17.5 -9t8.5 -20q3 -13 3 -29q1 -18 -3 -32q-3 -12 -9.5 -21.5t-18.5 -9.5h-286v-176v-1h200q11 0 17 -9.5t8 -20.5q3 -13 3 -29q1 -18 -3 -31q-3 -11 -9.5 -20.5t-17.5 -9.5h-197v-156h284q13 0 19.5 -9.5t9.5 -20.5q4 -13 3 -29q0 -18 -4 -31
q-3 -11 -9 -20.5t-18 -9.5z" />
    <glyph glyph-name="F" unicode="F" horiz-adv-x="545" 
d="M383 276h-195v-276h-143v694h428q12 0 18.5 -9t9.5 -20q4 -13 3 -29q0 -18 -3 -31q-2 -12 -8.5 -21.5t-17.5 -9.5h-288v-176h197q13 0 19 -9.5t9 -20.5q3 -13 3 -30q1 -18 -3 -31q-3 -12 -9.5 -21.5t-19.5 -9.5z" />
    <glyph glyph-name="G" unicode="G" horiz-adv-x="707" 
d="M423 347h246v-347h-120v59q-30 -32 -72 -52t-99 -20q-71 0 -130.5 25t-102 71.5t-66 112.5t-23.5 148q0 80 22.5 146.5t64 114t101 74t134.5 26.5h1q48 1 85 -6.5t65.5 -21.5t51 -33t42.5 -41l6 -12q2 -5 3 -11t-1 -12q-6 -18 -17 -30t-23.5 -20t-24.5 -12t-18 -5
q-14 -2 -20 2.5t-10 9.5q-5 7 -15.5 17.5t-27 21t-39.5 18t-52 7.5q-44 0 -78 -17t-57.5 -47t-36 -71.5t-12.5 -90.5q0 -113 47.5 -172t140.5 -59q21 0 44 5t44.5 16.5t39.5 30t29 46.5h-124q-10 0 -17 7q-6 6 -11 19t-5 39t5 38.5t12 18.5q8 6 18 7z" />
    <glyph glyph-name="H" unicode="H" horiz-adv-x="662" 
d="M191 273v-273h-143v666q0 11 10.5 17t24.5 8q15 3 35 3q20 1 36 -2q14 -2 25 -8.5t11 -17.5v-270h281v270q0 11 10.5 17t24.5 8q15 3 35 3t36 -3q14 -2 25.5 -8t11.5 -17v-666h-143v273h-280z" />
    <glyph glyph-name="I" unicode="I" horiz-adv-x="241" 
d="M189 0h-142v667q0 10 10.5 15.5t24.5 8.5q16 4 36 4q19 0 35 -3q14 -2 25 -8t11 -17v-667z" />
    <glyph glyph-name="J" unicode="J" horiz-adv-x="537" 
d="M483 661v-443q0 -50 -14 -92t-41.5 -72.5t-68.5 -47.5t-95 -17q-36 0 -67.5 9.5t-57 26.5t-44.5 40t-29 50q-2 6 -2 11t0.5 10t5.5 10q5 7 15 14.5t22 14t25.5 10.5t26.5 3q7 0 12 -3t8 -6q4 -4 6 -8q8 -18 27 -35t53 -17q39 0 59 26.5t20 88.5v426q0 14 11 22t25 11
q16 4 37 3q18 0 33 -4q12 -3 22.5 -10.5t10.5 -20.5z" />
    <glyph glyph-name="K" unicode="K" horiz-adv-x="688" 
d="M196 668v-266l270 273q10 10 21 12q5 1 10 1q15 0 29 -8.5t25 -19t18 -21t9 -15.5t2 -10t-1 -10.5t-6 -10.5l-197 -205l266 -388h-178l-195 285l-73 -72v-213h-142v667q0 11 11 16t25 8q16 3 37 4q19 0 34 -3q13 -2 24 -7.5t11 -16.5z" />
    <glyph glyph-name="L" unicode="L" horiz-adv-x="566" 
d="M486 0h-427v667q0 10 12 15.5t26 8.5q17 4 38 4q18 0 33 -3q12 -2 22.5 -8t10.5 -17v-546h285q14 0 20 -10t9 -22q3 -14 3 -31q1 -17 -3 -29q-3 -11 -9.5 -20t-19.5 -9z" />
    <glyph glyph-name="M" unicode="M" horiz-adv-x="860" 
d="M807 662v-662h-142v452l-234 -385h-4l-233 385v-452h-141v662q0 12 11 19q4 4 11 6q7 3 21.5 6t32 3.5t34.5 -1t31 -7.5q3 -1 7 -4q7 -5 12 -13l215 -339h3l215 341q2 5 6 7.5t7 4.5l8 4q16 6 34 8t34.5 1t31 -4.5t23.5 -6.5q4 -1 8 -5q3 -3 6 -7.5t3 -12.5z" />
    <glyph glyph-name="N" unicode="N" horiz-adv-x="704" 
d="M658 667v-667h-144l-319 461v-461h-135v665q0 9 6 15q3 3 7 4q15 8 49 10t70 -9q5 -2 9 -5q4 -2 8.5 -6t7.5 -9l302 -432v434q0 10 10 15.5t23 8.5q15 4 34 4q20 0 36 -3q14 -2 25 -8t11 -17z" />
    <glyph glyph-name="O" unicode="O" horiz-adv-x="772" 
d="M383 705q76 1 139 -24t108.5 -73t70.5 -116.5t25 -153.5q0 -81 -23.5 -145.5t-68 -110t-108 -70.5t-143.5 -25q-78 0 -140.5 24t-107 69t-68.5 110t-24 146q0 84 25 152t70 116t107.5 74.5t137.5 26.5zM385 116q44 -1 80.5 14t63 44t41 71.5t14.5 98.5q0 51 -13 94
t-38.5 73.5t-62.5 47t-85 16.5q-46 0 -83 -17t-63 -47.5t-40 -73t-14 -93.5q0 -112 53 -169t147 -59z" />
    <glyph glyph-name="P" unicode="P" horiz-adv-x="589" 
d="M307 693q74 0 121.5 -20.5t75.5 -53.5t38.5 -73t10.5 -79q0 -74 -24 -122.5t-61 -77t-82 -39.5t-88 -11h-94v-217h-142v693h245zM204 575v-240h95q35 2 62 15q23 11 42.5 36.5t19.5 74.5q0 31 -12 57q-11 21 -34.5 39t-69.5 18h-103z" />
    <glyph glyph-name="Q" unicode="Q" horiz-adv-x="796" 
d="M477 0v-98h-139v97q-137 15 -207.5 104t-70.5 233q0 84 25 150t70.5 112.5t108.5 71t138 24.5t137.5 -24t108 -69.5t70.5 -110.5t25 -146q2 -88 -24 -159q-11 -31 -30 -61t-48 -55.5t-69.5 -43.5t-94.5 -25zM338 126v67q0 9 8 16q7 6 21.5 11.5t43.5 5.5q18 -1 33 -5
q12 -3 22.5 -9.5t10.5 -18.5v-64q68 16 96.5 74t28.5 145q0 100 -52 160t-147 60q-48 0 -86 -16.5t-64 -46t-39.5 -71t-13.5 -91.5q0 -91 31 -144.5t107 -72.5z" />
    <glyph glyph-name="R" unicode="R" horiz-adv-x="617" 
d="M431 291l126 -291h-154l-103 265h-108v-265h-140v693h255q45 0 89.5 -7.5t79.5 -30t57 -62.5t22 -105q0 -140 -124 -197zM278 385q27 0 53 2t46.5 11.5t32.5 30t12 56.5q0 30 -9.5 48t-26.5 27.5t-41 13t-53 3.5h-100v-192h86z" />
    <glyph glyph-name="S" unicode="S" horiz-adv-x="630" 
d="M42 123q3 6 9 16t14.5 20.5t19.5 20t25 15.5q8 3 13.5 3t9.5 -1l8 -4q15 -13 36 -26.5t44.5 -24t46 -17t40.5 -6.5q25 0 49.5 2.5t43.5 12t30.5 27t11.5 47.5q0 32 -28.5 48.5t-71.5 28t-93.5 22.5t-93.5 32.5t-71.5 58t-28.5 98.5q0 52 20 91t55 65t83 38.5t104 12.5
q63 0 125 -27t107 -76q7 -8 7 -19q0 -5 -1 -11q-4 -15 -13 -27.5t-19 -21t-20 -14t-16 -7.5q-5 -2 -10 -2t-9.5 0.5t-9.5 5.5q-14 12 -31.5 24.5t-37 22t-40.5 15.5t-41 6q-21 0 -40 -2t-33.5 -9.5t-23 -21t-8.5 -35.5q0 -20 16.5 -33.5t43.5 -23.5t61 -18.5t70 -19t70 -25
t61 -37t43.5 -55t16.5 -77.5q0 -109 -68 -168.5t-207 -59.5q-44 0 -83.5 9t-74 25t-62.5 36.5t-48 43.5q-2 2 -3 6q-1 3 -1 7t3 9z" />
    <glyph glyph-name="T" unicode="T" horiz-adv-x="622" 
d="M560 574h-174v-574h-143v574h-180q-13 0 -19.5 9t-9.5 20q-4 12 -4 29q-1 17 3 30q2 11 8.5 21t19.5 10h501q13 0 19 -9t9 -20q3 -13 3 -29q1 -18 -3 -31q-3 -11 -10 -20.5t-20 -9.5z" />
    <glyph glyph-name="U" unicode="U" horiz-adv-x="665" 
d="M543 695q21 0 39 -3q14 -2 26.5 -8t12.5 -17v-358q0 -80 -16 -139.5t-50.5 -99.5t-88 -60t-129.5 -20q-78 0 -133 20.5t-89.5 60.5t-50 98.5t-15.5 135.5v362q0 9 7 14q4 3 8 4q12 5 29 7.5t34 2.5t32 -3t23 -7q3 -2 6 -5q6 -6 6 -13v-355q0 -52 8.5 -87.5t26 -58
t44.5 -32.5t65 -10q40 0 66 14t41 39.5t20.5 59.5t5.5 75l1 355q0 11 10.5 17t24.5 8q16 3 36 3z" />
    <glyph glyph-name="V" unicode="V" horiz-adv-x="737" 
d="M543 673q4 10 14 14q4 2 9 2q35 1 62.5 -13.5t38.5 -26.5q4 -4 6 -8q4 -10 0 -21l-239 -619h-149l-238 619q-3 7 -1.5 12.5t3.5 10.5q3 5 8 9q10 10 22.5 16.5t25 11t23 7t16.5 2.5q7 0 14 -1q6 -2 11.5 -4.5t8.5 -9.5l182 -480z" />
    <glyph glyph-name="W" unicode="W" horiz-adv-x="1021" 
d="M581 634l126 -390l133 436q2 7 7.5 10.5t10.5 5.5q6 2 13 1q12 0 25.5 -3t27 -7.5t24.5 -10.5t18 -13q3 -3 6 -7q5 -8 2 -19l-199 -637h-128l-144 461l-141 -461h-127l-201 638q-4 12 3 21q3 4 8 8q6 5 17 10.5t24 10t26.5 7.5t25.5 3q7 0 13 -2q5 -2 10 -5t7 -11
l131 -432l125 386q2 6 6 10t9 6q5 3 11 5t20 3.5t30 1.5t31.5 -1t26.5 -4q5 -1 9 -4q4 -2 8 -6.5t6 -10.5z" />
    <glyph glyph-name="X" unicode="X" horiz-adv-x="694" 
d="M431 341l208 -341h-168l-121 202l-120 -202h-164l201 332l-176 286q-5 8 -3 18q1 4 3 8q13 20 39 37.5t51 22.5h10q4 -1 8.5 -2t7.5 -6l144 -227l142 227q2 5 6.5 6t8.5 2h10q19 -4 35 -13t28.5 -18.5t20 -18.5t10.5 -14l2 -6q1 -5 -2 -12z" />
    <glyph glyph-name="Y" unicode="Y" horiz-adv-x="693" 
d="M45 621q-4 6 -2 14q1 4 2 6q5 8 15 17.5t22.5 18t26.5 15t29 9.5q5 1 10 0t9.5 -3t7.5 -7l175 -296l181 306q5 8 15 10q4 1 10 0q12 -1 27 -7.5t28.5 -15t24.5 -18.5t16 -19q2 -2 3 -6q1 -6 -3 -15l-231 -389v-241h-142v241q-57 95 -112 190t-112 190z" />
    <glyph glyph-name="Z" unicode="Z" horiz-adv-x="573" 
d="M488 0h-442l275 572h-235q-11 0 -17 9.5t-8 21.5q-3 13 -3 31q0 17 3 30q2 11 7 20.5t16 9.5h452l-278 -573h229q11 0 17 -9.5t8 -20.5q3 -13 2 -29q0 -18 -3 -31q-2 -12 -7 -21.5t-16 -9.5z" />
    <glyph glyph-name="b" unicode="b" horiz-adv-x="571" 
d="M52 698q0 11 10.5 17t23.5 8q15 3 34 3t34 -4q13 -3 24 -8.5t11 -15.5v-253q10 17 25.5 28t32 17t32 8.5t27.5 2.5q30 0 67.5 -11t69.5 -39t54 -76.5t22 -124.5v-5q0 -67 -19 -114.5t-49.5 -78t-69 -44.5t-76.5 -14q-33 0 -66 15t-50 44v-53h-138zM376 251q0 37 -11 59.5
t-26 35.5t-31 17.5t-26 4.5q-26 0 -50 -11.5t-43 -36.5v-145q19 -19 42.5 -28t42.5 -9q16 0 34 6t33 19t25 33t10 47v8z" />
    <glyph glyph-name="c" unicode="c" horiz-adv-x="506" 
d="M178 245q0 -30 9 -55t24 -42.5t35 -27.5t42 -10q35 0 58 15t34 30q3 5 7.5 6.5t8.5 1.5t9 -1q15 -6 34 -24.5t28 -39.5q2 -5 1.5 -9t-1.5 -7q-1 -4 -3 -7q-8 -11 -21.5 -26t-35.5 -28.5t-51.5 -23t-68.5 -9.5q-56 0 -102 18t-78.5 52t-50.5 82t-18 107v5q0 56 20 102.5
t54 79.5t79 51t96 18q40 0 70 -9.5t51 -22t34 -26t18 -20.5q1 -3 3 -7q1 -3 2 -7.5t-1 -8.5q-9 -23 -28 -43t-36 -27q-4 -2 -8 -2q-9 -2 -16 5q-17 17 -36.5 28t-50.5 11q-18 0 -37.5 -8t-36 -23t-27 -37.5t-10.5 -52.5v-8z" />
    <glyph glyph-name="d" unicode="d" horiz-adv-x="554" 
d="M509 0h-137v54q-16 -35 -49.5 -47.5t-67.5 -12.5q-41 0 -78 16t-65 47.5t-44 79t-16 110.5v5q0 74 22.5 122t54.5 76t66.5 39.5t58.5 11.5q41 1 72 -15.5t46 -39.5v252q0 10 10.5 15.5t23.5 8.5q15 4 35 4q19 0 34 -3q13 -2 23.5 -8t10.5 -17v-698zM190 245q0 -35 9 -57
t23.5 -34t31.5 -16t33 -4q19 0 42.5 11.5t42.5 30.5v149q-9 11 -21 19.5t-25 14t-25.5 8.5t-21.5 3q-11 0 -26 -3.5t-29 -15.5t-24 -35.5t-10 -62.5v-8z" />
    <glyph glyph-name="h" unicode="h" horiz-adv-x="560" 
d="M201 0h-137v698q0 10 10.5 15.5t23.5 8.5q15 4 35 4q19 0 34 -3q13 -2 23.5 -8t10.5 -17v-231q18 14 51.5 24t64.5 10q47 0 79.5 -12.5t54 -32t33 -43.5t17 -47t6.5 -42t1 -29v-295h-140v277q0 36 -8.5 55.5t-20 29t-22 11.5t-14.5 2q-15 1 -31 -3.5t-30.5 -11.5t-25 -15
t-15.5 -14v-331z" />
    <glyph glyph-name="i" unicode="i" horiz-adv-x="250" 
d="M196 612q0 -29 -20.5 -49.5t-49.5 -20.5t-49 20.5t-20 49.5t20 49t49 20t49.5 -20t20.5 -49zM195 0h-137v473q0 10 10.5 15.5t23.5 8.5q15 4 35 4q19 0 34 -3q13 -2 23.5 -8t10.5 -17v-473z" />
    <glyph glyph-name="j" unicode="j" horiz-adv-x="258" 
d="M210 612q0 -29 -20.5 -49.5t-49.5 -20.5t-49 20.5t-20 49.5t20 49t49 20t49.5 -20t20.5 -49zM209 -8q0 -39 -6.5 -75.5t-24 -64.5t-49 -45t-81.5 -17q-54 0 -100 27t-69 75q-2 5 -2 10t0.5 10.5t5.5 10.5q11 14 33.5 26t44.5 11q13 -1 21 -7q4 -3 6 -7q11 -14 20.5 -19.5
t27.5 -5.5q20 0 28 16t8 55v481q0 10 10.5 15.5t23.5 8.5q15 4 35 4q19 0 34 -3q13 -2 23.5 -8t10.5 -17v-481z" />
    <glyph glyph-name="l" unicode="l" horiz-adv-x="275" 
d="M207 0h-137v698q0 10 10.5 15.5t23.5 8.5q15 4 35 4q19 0 34 -3q13 -2 23.5 -8t10.5 -17v-698z" />
    <glyph glyph-name="m" unicode="m" horiz-adv-x="747" 
d="M447 336q3 -14 4 -31.5t1 -26.5v-278h-141v304q0 26 -17 42t-41 16q-25 0 -43.5 -13t-22.5 -24v-325h-137v472q0 10 10.5 15.5t23.5 8.5q15 4 35 4q19 0 34 -3q13 -2 23.5 -8t10.5 -17v-27q4 8 13 17.5t23.5 18t33.5 14t44 5.5q36 0 59 -14t43 -40q21 20 42 31t40 16
t34.5 6t24.5 1q63 0 97 -26.5t49 -62.5t17 -72.5t2 -56.5l1 -282h-141v302q0 33 -16 47t-37 14q-12 0 -32 -5t-37 -22z" />
    <glyph glyph-name="n" unicode="n" horiz-adv-x="533" 
d="M186 0h-137v474q0 10 10.5 16t23.5 8q15 3 35 3q19 1 34 -2q13 -2 23.5 -8t10.5 -17v-10q18 14 49.5 25t62.5 11q47 0 79.5 -12.5t54 -32.5t33 -44t17 -47t6.5 -42.5t1 -29.5l1 -292h-141v274q0 36 -8.5 55.5t-20 29t-22 11.5t-14.5 2q-15 1 -30.5 -3.5t-29 -11.5
t-23.5 -15t-15 -14v-328z" />
    <glyph glyph-name="o" unicode="o" horiz-adv-x="591" 
d="M290 508q55 1 100.5 -17.5t78.5 -53t51 -84t18 -110.5q0 -58 -17 -104.5t-49 -79.5t-78 -50.5t-104 -17.5q-55 0 -100 17t-77 50t-49.5 79.5t-17.5 104.5q0 60 18 109.5t50.5 84t77.5 53.5t98 19zM291 107q50 -1 81.5 37t31.5 99q0 29 -7.5 54.5t-22 44.5t-35.5 30
t-48 11q-25 0 -45.5 -11t-35 -30t-22.5 -44.5t-8 -54.5q0 -61 30 -97.5t81 -38.5z" />
    <glyph glyph-name="p" unicode="p" horiz-adv-x="553" 
d="M52 -209v683q0 11 10.5 17t23.5 8q15 3 34 3t34 -4q13 -3 24 -8.5t11 -15.5v-28q10 15 25 25t32 17t34.5 10t32.5 3q30 0 66 -11.5t67 -40t52 -77t21 -122.5v-5q0 -63 -17 -110.5t-45.5 -78.5t-65.5 -46.5t-78 -15.5q-37 0 -70.5 15t-53.5 42v-260h-137zM376 246
q0 37 -11 60t-26.5 35.5t-31.5 17t-25 4.5q-21 0 -47 -9.5t-46 -35.5v-148q18 -21 42 -29t43 -8q16 0 34 6.5t33 19.5t25 32.5t10 46.5v8z" />
    <glyph glyph-name="q" unicode="q" horiz-adv-x="559" 
d="M372 -209v262q-20 -35 -50 -47t-67 -12q-41 0 -78 16t-65 47.5t-44 79t-16 110.5v5q0 74 22.5 122t54 76.5t66.5 39.5t60 11q42 0 73.5 -16.5t43.5 -39.5v29q0 10 10.5 15.5t23.5 8.5q15 4 35 4q19 0 34 -3q13 -2 23.5 -8t10.5 -17v-683h-137zM190 245q0 -35 9 -57.5
t23.5 -35t31.5 -17t33 -4.5q19 0 42.5 11.5t42.5 30.5v153q-9 11 -21 19.5t-25 14t-25.5 8.5t-21.5 3q-11 0 -26 -3.5t-29 -16t-24 -36t-10 -62.5v-8z" />
    <glyph glyph-name="r" unicode="r" horiz-adv-x="468" 
d="M59 472q0 10 10.5 15.5t23.5 8.5q15 4 35 4q19 0 34 -3q13 -2 23.5 -8t10.5 -17v-9q12 12 26.5 19.5t28.5 11t25.5 5t17.5 1.5q25 0 45.5 -6.5t36.5 -16t27 -19.5t17 -17q2 -3 6 -10t0 -19t-18.5 -35t-37.5 -42q-5 -5 -10.5 -4.5t-9.5 2.5q-5 2 -9 6q-12 11 -29 19t-46 7
q-28 -1 -45.5 -19t-24.5 -38v-308h-137v472z" />
    <glyph glyph-name="s" unicode="s" horiz-adv-x="495" 
d="M43 87q2 7 7.5 16t13 18.5t17.5 17.5t21 13q5 2 10 2t9 -1t7 -3q22 -17 55 -31t60 -15q35 -1 54.5 9t21.5 31q2 24 -17.5 35.5t-49 19.5t-65 15.5t-65.5 22.5t-50.5 41.5t-20.5 72.5q0 39 15.5 68.5t42.5 49t63.5 29.5t78.5 10q48 0 96 -17t82 -54q3 -4 4 -8t1 -7
q0 -4 -2 -8q-3 -12 -10.5 -23.5t-15.5 -20.5t-16 -15.5t-14 -9.5q-3 -2 -7 -2q-3 0 -7 0.5t-8 4.5q-23 17 -52.5 30.5t-57.5 15.5q-8 0 -17.5 -1.5t-18 -6t-14.5 -12.5t-6 -21q0 -18 20 -27t49.5 -16t64 -15.5t64 -25.5t49.5 -45t20 -75q0 -75 -52.5 -118t-156.5 -43
q-66 0 -118 21t-83 54q-2 2 -3 6q-2 7 1 18z" />
    <glyph glyph-name="t" unicode="t" horiz-adv-x="404" 
d="M349 568q11 0 17.5 -8.5t9.5 -18.5q4 -11 3 -26q0 -16 -4 -28q-3 -11 -9.5 -19t-18.5 -8h-72v-460h-137v460h-74q-12 0 -18 8t-9 19q-4 12 -3 28q0 15 3 26q2 10 8 18.5t17 8.5h76v130q0 10 10.5 15.5t23.5 8.5q15 4 35 4q19 0 34 -3q13 -2 23.5 -8t10.5 -17v-130h74z
" />
    <glyph glyph-name="u" unicode="u" horiz-adv-x="541" 
d="M353 0v50q-17 -27 -48 -41.5t-64 -14.5q-47 0 -79.5 12.5t-53.5 32.5t-32 44t-16 47t-6 42.5t-1 29.5v270q0 10 10.5 15.5t23.5 8.5q15 4 35 4q19 0 34 -3q13 -2 23.5 -8t10.5 -17v-242q0 -36 8.5 -55.5t20 -29t22 -11.5t14.5 -2q15 -1 30.5 3.5t29 11.5t23.5 15t15 14
v296q0 10 10.5 15.5t23.5 8.5q15 4 35 4q19 0 34 -3q13 -2 23.5 -8t10.5 -17v-472h-137z" />
    <glyph glyph-name="z" unicode="z" horiz-adv-x="501" 
d="M421 0h-359l193 370h-154q-9 0 -13 9.5t-6 20.5q-2 13 -2 30q0 16 2 29q2 11 6 20t12 9h358l-184 -370h147q8 0 12.5 -8.5t6.5 -19.5q2 -12 2 -28q0 -18 -3 -31q-2 -12 -6 -21.5t-12 -9.5z" />
    <glyph glyph-name="zero" unicode="0" horiz-adv-x="649" 
d="M48 344q0 61 15.5 123.5t49 112.5t86 82t126.5 32q73 0 125.5 -29.5t86.5 -78.5t49.5 -112t15.5 -130q0 -68 -14 -132t-46.5 -113.5t-85.5 -80t-131 -30.5q-26 0 -56.5 5t-61 18.5t-59.5 38t-51 64t-35.5 96t-13.5 134.5zM181 344q0 -37 6.5 -76.5t22.5 -72t44 -53.5
t71 -21q42 0 69.5 20t44 52t23.5 71.5t7 79.5q0 33 -6.5 71.5t-23 70.5t-44.5 53.5t-70 21.5t-69.5 -20.5t-44 -52.5t-23 -70.5t-7.5 -73.5z" />
    <glyph glyph-name="one" unicode="1" horiz-adv-x="351" 
d="M47 567v91q24 12 41.5 20.5t34 14t35 8t44.5 2.5q17 1 31 -3q12 -3 22 -9.5t10 -19.5v-671h-133v567h-85z" />
    <glyph glyph-name="two" unicode="2" horiz-adv-x="602" 
d="M257 255q17 18 40 43t43.5 55t35 62.5t14.5 64.5q0 12 -1.5 29.5t-10 34t-26 28.5t-49.5 12q-37 0 -62 -23t-39 -57q-5 -11 -14 -15q-4 -2 -8 -2q-17 -1 -45.5 7.5t-52.5 28.5q-4 4 -7 8q-2 4 -3 9t2 13q14 39 38 68t55 48t66.5 28.5t73.5 9.5q44 0 84 -12.5t70 -39.5
t48 -69.5t18 -102.5q0 -47 -18 -95t-49.5 -94.5t-74 -90.5t-91.5 -84h213q9 0 16 -6q6 -5 11 -17.5t5 -36.5t-5 -36t-11 -17q-7 -6 -15 -6h-419l1 110q33 28 65 54q27 23 55.5 47.5t46.5 43.5z" />
    <glyph glyph-name="three" unicode="3" horiz-adv-x="618" 
d="M321 571h-206q-9 0 -15 6q-5 5 -9.5 16.5t-4.5 34.5q0 24 4.5 37t10.5 18q6 6 15 7h416l-142 -240q86 -17 126 -75.5t40 -144.5q0 -48 -17 -92t-49.5 -77.5t-78 -53t-102.5 -19.5q-42 0 -81.5 10.5t-72 31t-57 51.5t-37.5 73q-3 9 1 18q4 8 15 16.5t35 16.5q18 5 33 7
q13 2 24.5 -1t15.5 -14q17 -40 50.5 -64.5t74.5 -22.5q53 3 82.5 36.5t29.5 84.5q0 35 -13.5 59.5t-36 39.5t-52 21.5t-62.5 6.5q-17 0 -36.5 -2t-33.5 -5z" />
    <glyph glyph-name="four" unicode="4" horiz-adv-x="672" 
d="M545 299h37q9 0 17 -6q7 -5 12.5 -17t5.5 -36q0 -25 -5.5 -37.5t-12.5 -17.5q-8 -6 -17 -5h-37v-180h-137v180h-354l327 478q3 4 9 10.5t17 12.5t28 10t42 4q26 0 40.5 -4.5t20.5 -9.5q7 -6 7 -14v-368zM412 517q-14 -29 -24 -49t-26 -46l-77 -123h123v67z" />
    <glyph glyph-name="five" unicode="5" horiz-adv-x="604" 
d="M458 689l5 -0.5t10.5 -5.5t10 -18t4.5 -37q0 -23 -5 -34.5t-10 -16.5q-6 -6 -14 -6h-233v-110q67 11 116.5 6.5t85 -20.5t57.5 -41.5t35 -55t17.5 -61t4.5 -59.5q0 -48 -17 -92t-49.5 -77.5t-78 -53t-102.5 -19.5q-85 0 -148.5 41t-89.5 125q-3 9 1 18q4 8 15 16.5
t35 16.5q18 5 33 7q13 2 24.5 -1t15.5 -14q17 -40 45.5 -64.5t69.5 -22.5q53 3 82.5 36.5t29.5 84.5q0 35 -12 58.5t-32.5 37.5t-48 20t-58.5 6q-49 0 -89 -13t-69 -29v378h359z" />
    <glyph glyph-name="six" unicode="6" horiz-adv-x="607" 
d="M314 473q55 2 101 -14t79 -47.5t51 -78t18 -105.5q0 -53 -18 -98.5t-51 -78.5t-79.5 -52t-104.5 -19q-73 0 -123.5 24t-82.5 62.5t-46 86t-14 95.5q0 73 15.5 131.5t40 104.5t56 80.5t63.5 59.5q34 26 68 43t61.5 26.5t46 13.5t20.5 5q9 1 19 -3q8 -4 17 -15t15 -33
q4 -17 4 -31q0 -12 -4.5 -23.5t-15.5 -16.5q-61 -17 -117 -48t-92 -87q11 5 25 10.5t48 7.5zM307 99q31 0 54.5 11.5t39.5 30t24 43t8 50.5q0 27 -10 51t-27 42t-40 28.5t-49 10.5t-48.5 -10.5t-39.5 -28.5t-27 -42t-10 -51q0 -26 8 -50.5t24 -43t39.5 -30t53.5 -11.5z" />
    <glyph glyph-name="seven" unicode="7" horiz-adv-x="603" 
d="M165 0q10 88 30.5 164.5t45.5 140.5t51 114t47 85t34.5 53t12.5 18h-292q-12 0 -18.5 9.5t-8.5 21.5q-4 13 -3 31q0 22 4.5 33.5t9.5 16.5t10 6t6 1h450v-112q-1 -1 -16.5 -21.5t-38.5 -56.5t-51.5 -87.5t-54.5 -115.5t-47 -140t-30 -161h-141z" />
    <glyph glyph-name="eight" unicode="8" horiz-adv-x="565" 
d="M285 97q47 0 79.5 28.5t32.5 76.5q0 22 -7 43t-21 37t-35 26t-49 10q-26 0 -46.5 -10t-34.5 -26t-21 -37t-7 -43q0 -24 8.5 -43t23.5 -33t35 -21.5t42 -7.5zM176 393q-42 20 -68 59t-26 83q0 40 14.5 74.5t41 59t63.5 38.5t82 14q46 0 83 -14t63.5 -38.5t41 -59
t14.5 -74.5q0 -43 -24.5 -80.5t-57.5 -60.5q25 -11 47.5 -30t40 -43t27.5 -53.5t10 -61.5q0 -103 -63.5 -164t-181.5 -61q-115 0 -178.5 59.5t-63.5 165.5q0 40 15 72.5t36 56.5t44 39t40 19zM284 462q42 0 59.5 25t17.5 58q0 31 -22 52t-55 21q-32 0 -54 -21t-22 -52
q0 -33 17.5 -58t58.5 -25z" />
    <glyph glyph-name="nine" unicode="9" horiz-adv-x="607" 
d="M300 222q-55 -2 -101 14t-79 47.5t-51 78t-18 105.5q0 53 18 98.5t51 78.5t79.5 52t104.5 19q73 0 123.5 -22.5t82 -59t46 -82t14.5 -90.5q0 -42 -5.5 -78.5t-13 -66t-15.5 -51.5t-14 -34q-25 -51 -58 -89.5t-68.5 -65.5t-70 -45t-62 -28.5t-45 -15t-19.5 -4.5
q-10 -1 -20 3q-8 4 -16.5 14.5t-14.5 33.5q-4 17 -4 31q0 12 4 23.5t16 16.5q30 8 62 20.5t61 29.5t54.5 39.5t43.5 50.5q-11 -8 -31 -14.5t-54 -8.5zM307 596q-31 0 -54.5 -11.5t-39.5 -30t-24 -43t-8 -50.5q0 -27 10 -51t27 -42t40 -28.5t49 -10.5t48.5 10.5t39.5 28.5
t27 42t10 51q0 26 -8 50.5t-24 43t-39.5 30t-53.5 11.5z" />
    <glyph glyph-name="colon" unicode=":" horiz-adv-x="330" 
d="M217 375q0 -34 -23.5 -57t-56.5 -23t-56 23t-23 57q0 33 23 56t56 23t56.5 -23t23.5 -56zM217 75q0 -34 -23.5 -57t-56.5 -23t-56 23t-23 57q0 33 23 56t56 23t56.5 -23t23.5 -56z" />
    <glyph glyph-name="semicolon" unicode=";" horiz-adv-x="364" 
d="M114 -5q-33 8 -48.5 35.5t-7.5 60.5q4 17 14 30t24.5 21t31 10t33.5 -2q29 -8 46.5 -34.5t9.5 -62.5q-8 -30 -25 -51.5t-34 -35.5q-20 -17 -44 -27v56zM217 375q0 -34 -23.5 -57t-56.5 -23t-56 23t-23 57q0 33 23 56t56 23t56.5 -23t23.5 -56z" />
    <glyph glyph-name="quoteleft" unicode="&#x2018;" horiz-adv-x="319" 
d="M59 589q-4 16 -1 32t10.5 29t20 22.5t27.5 13.5q32 7 59.5 -9.5t35.5 -48.5q8 -31 -9 -57.5t-46 -34.5l2 -10l12 -44q-24 7 -45 20q-18 11 -36 31t-29 52z" />
    <glyph glyph-name="comma" unicode="," horiz-adv-x="228" 
d="M87 -5q-33 8 -48.5 35.5t-7.5 60.5q4 17 14 30t24.5 21t31 10t33.5 -2q29 -8 46.5 -34.5t9.5 -62.5q-8 -30 -25 -51.5t-34 -35.5q-20 -17 -44 -27v56z" />
    <glyph glyph-name="period" unicode="." horiz-adv-x="212" 
d="M184 74q0 -34 -23.5 -57t-56.5 -23t-56 23t-23 57q0 33 23 56t56 23t56.5 -23t23.5 -56z" />
    <glyph glyph-name="exclam" unicode="!" horiz-adv-x="344" 
d="M231 194h-137v473q0 10 10.5 15.5t23.5 8.5q15 4 35 4q19 0 34 -3q13 -2 23.5 -8t10.5 -17v-473zM242 74q0 -34 -23.5 -57t-56.5 -23t-56 23t-23 57q0 33 23 56t56 23t56.5 -23t23.5 -56z" />
    <glyph glyph-name="quotedbl" unicode="&#x22;" horiz-adv-x="312" 
d="M131 480h-85l-11 182q0 10 8 15.5t18 8.5q11 4 26 4q15 1 27 -3q11 -3 19 -9.5t9 -18.5zM269 480h-85l-11 182q0 10 8 15.5t18 8.5q11 4 26 4q15 1 27 -3q11 -3 19 -9.5t9 -18.5z" />
    <glyph glyph-name="glyph60" horiz-adv-x="955" 
d="M89 342q0 82 32 154.5t86.5 126.5t127.5 85t156 31q82 0 154.5 -31t126.5 -85t85 -126.5t31 -154.5q0 -83 -31 -156t-85 -127.5t-126.5 -86.5t-154.5 -32q-83 0 -156 32t-127.5 86.5t-86.5 127.5t-32 156zM139 342q0 -74 27.5 -138t75 -111.5t111.5 -75t138 -27.5
q72 0 135.5 27.5t111 75t75.5 111.5t28 138q0 72 -28 135.5t-75.5 111t-111 75.5t-135.5 28q-74 0 -138 -28t-111.5 -75.5t-75 -111t-27.5 -135.5zM154 342q0 69 26 129.5t72 106t107 72t132 26.5q69 0 129.5 -26.5t106 -72t72 -106t26.5 -129.5q0 -71 -26.5 -132t-72 -107
t-106 -72t-129.5 -26q-71 0 -132 26t-107 72t-72 107t-26 132zM164 342q0 -68 25.5 -128t69.5 -104t104 -69.5t128 -25.5q67 0 126 25.5t103.5 69.5t70.5 104t26 128q0 67 -26 126t-70.5 103.5t-103.5 70.5t-126 26q-68 0 -128 -26t-104 -70.5t-69.5 -103.5t-25.5 -126z
M170 339q0 67 25 125.5t68.5 102t102 69t125.5 25.5q66 0 124 -25.5t101.5 -69t68.5 -102t25 -125.5q0 -66 -25 -124t-68.5 -102t-101.5 -69.5t-124 -25.5q-67 0 -125.5 25.5t-102 69.5t-68.5 102t-25 124zM189 339q0 -62 23.5 -117t64 -96t96 -65t118.5 -24t117.5 24t95 65
t64 96t23.5 117q0 63 -23.5 118t-64 96t-95 65t-117.5 24t-118.5 -24t-96 -65t-64 -96t-23.5 -118z" />
    <glyph glyph-name="glyph61" horiz-adv-x="1062" 
d="M507 163q-2 -35 -7 -60.5t-12 -51.5q-7 -7 -17.5 -15t-18.5 -8q-5 3 -6 5q-1 1 -1 3q-3 -4 -7 -6l-4 -2q-2 1 -5 6q-1 2 -2 3q-6 -4 -9 -4q-3 -1 -4 0q-3 3 -3 6v4q-4 -2 -7 0q-2 0 -4 1q-1 10 6 17q4 3 8 5q6 2 9.5 8t5.5 13q3 8 4 17q2 18 2.5 29.5t-0.5 20t-3 15.5
t-3 16q-8 -1 -20.5 -4t-24.5 -7q-14 -4 -30 -11q3 -20 4 -42t1 -43.5t-0.5 -40t-1.5 -30.5q0 -1 -8.5 -12.5t-18.5 -15.5q-5 4 -5.5 7.5t-1.5 5.5q-2 -4 -4.5 -5.5t-4.5 -3.5q-3 -2 -6 -2q-3 2 -5 7q-1 3 -2 5q-3 -3 -10 -5q-3 -1 -6 -1q-2 2 -2.5 3l-1.5 3t-1 4
q-5 -2 -11 -2q-3 0 -5 1q-1 6 2 13t10 12q3 2 5.5 5t4.5 5l4 6q-1 35 -3 67t-6 52q-7 -3 -18.5 -3t-22.5 1q-13 1 -28 4q-2 -35 -7 -62t-12 -53q-7 -7 -17.5 -15t-18.5 -8q-5 3 -6 5q-1 1 -1 3q-3 -4 -7 -6l-4 -2q-2 1 -5 6q-1 2 -2 3q-6 -4 -9 -4q-3 -1 -4 0q-3 3 -3 6v4
q-4 -2 -7 0q-2 0 -4 1q-1 10 6 17q4 3 8 5q6 2 10 8.5t7 13.5q3 8 5 17q5 35 4.5 60t-2.5 47q-37 18 -58 46t-31.5 57.5t-13 57.5t-2.5 46q6 64 35.5 110t62.5 76q39 35 86 58q28 12 51 20.5t46 21.5q11 8 27 9.5t29 -3.5q14 -8 26 -15q10 -6 19.5 -11.5t13.5 -8.5
q5 -4 8 -8q2 -4 2 -9.5t-5 -12.5q-5 -5 -16 -8t-25 -4.5t-29 -1t-27 2.5q-30 -10 -56 -20t-48 -23.5t-42 -33t-38 -49.5q-11 -17 -17 -34q-5 -14 -6.5 -29t6.5 -26q5 -4 10 -5t10.5 1.5t13.5 13.5q22 25 43.5 52.5t52.5 49.5t75 35t110 10q37 0 77.5 -15t74 -42.5t56.5 -68
t25 -91.5q2 -38 11 -74q8 -31 22.5 -64.5t40.5 -57.5q21 -21 49 -32q24 -10 58 -11.5t76 17.5q20 9 33.5 21.5t22.5 26t14 27t10 24.5q1 5 3 8q2 2 3 2t2 -8q1 -17 0 -41t-9 -50t-26 -50t-50 -39q-41 -20 -79 -22.5t-67 2.5q-34 5 -64 19q-27 12 -46.5 28t-35.5 33t-31 34.5
t-34 31.5l10 -160q0 -1 -8.5 -12.5t-18.5 -15.5q-5 4 -5.5 7.5t-1.5 5.5q-2 -4 -4.5 -5.5t-4.5 -3.5q-3 -2 -6 -2q-3 2 -5 7q-1 3 -2 5q-3 -3 -10 -5q-3 -1 -6 -1q-2 2 -2.5 3l-1.5 3t-1 4q-5 -2 -11 -2q-3 0 -5 1q-1 6 2.5 13.5t10.5 11.5q6 3 10 10q2 3 3 6q-2 35 -10 65
t-18 51z" />
    <glyph glyph-name="glyph62" horiz-adv-x="699" 
d="M341 428q16 -1 32 -4q13 -3 27 -8t24 -13q8 -6 15 -7q6 -1 12 4.5t11 22.5q8 37 16 73q7 30 15.5 63.5t16.5 57.5q3 10 8 18q5 7 11 13t17 8q-1 9 1 19q2 8 6.5 18t15.5 21q1 1 3 1.5t3 -4.5q2 -19 2.5 -29.5t-8.5 -21.5h10q1 10 4 19q2 8 6 15.5t11 12.5q1 1 2 1
q2 0 2 -2q0 -5 1 -13t1 -15.5t-1.5 -14t-6.5 -9.5q9 -7 17 -11q7 -5 13.5 -8t10.5 -5q11 -5 16 -7.5t4 -14.5q-1 -10 -9 -17t-25 -7q-8 -2 -15 -3t-14 -1.5t-12 1.5q0 -67 -4 -124q-3 -50 -10 -97.5t-20 -70.5l-10 -20q-5 -9 -10.5 -19t-13.5 -18q-3 -3 -7 -6q-3 -2 -7 -4.5
t-7 -2.5q-5 -46 -14.5 -81t-17.5 -43q-2 -2 -3.5 -3t-2.5 -3t-2 -3v-75q-2 -1 -7.5 -1t-10.5 1v74q-4 3 -7 14q-2 10 -2 29t5 53h-12q-6 -26 -11 -47q-5 -18 -9.5 -34t-6.5 -18l-7 -6v-86h-6q-3 0 -6.5 -0.5t-7.5 0.5v84q-6 5 -10 17q-4 11 -6 30.5t0 53.5q-19 -2 -37 0
q-17 1 -36 5t-36 12q-7 -24 -14 -44q-6 -17 -13 -32.5t-13 -17.5v-87q-3 -1 -6 -1q-8 0 -12 1v82q-5 3 -8 8q-2 5 -3 12t3 19q3 11 3.5 22.5t-0.5 19.5q-1 10 -4 19q-12 -22 -22 -41q-9 -17 -17 -34.5t-13 -29.5q-1 -5 -7 -7q-3 -1 -5 -1v-89q-2 -1 -6 -1h-6.5t-6.5 1v89
q-4 7 -6 17q-2 8 -1 20.5t7 27.5q4 11 7 23q2 11 2 25t-4 30q-10 11 -17 25q-7 12 -12 29t-6 38v7.5t-1 4.5t-3.5 -4.5t-6.5 -3.5t-9.5 2t-11.5 11q3 1 5 5q2 3 2 8t-2 15q-5 19 -2 33q2 12 12 21.5t34 6.5q18 6 54 8.5t76 3t76.5 -1t55.5 -3.5z" />
    <glyph glyph-name="glyph63" horiz-adv-x="760" 
d="M387 130q-4 -20 -9 -33.5t-13 -24.5q10 0 9.5 -3.5t0.5 -4.5q8 -4 4 -7.5t-3 -4.5q3 -5 -1 -7.5t-10.5 -4t-13.5 -1.5h-11l-12 -15q12 1 16.5 0t6 -2.5t1 -3l-0.5 -1.5q8 -2 7 -5t0 -4q4 -6 -1.5 -8.5t-13.5 -4t-16.5 -1.5h-10.5q-30 -1 -58 -1q-24 0 -49 0.5t-41 2.5
q-21 0 -33 6.5t-19 15.5t-9 18.5t-3 16.5q-1 16 3 27q3 10 12 18t27 6q-3 22 -3 44q0 19 2 39.5t10 37.5q13 30 38 57t58.5 52.5t74 48.5t85.5 45q3 1 3 8v17.5t1.5 23.5t6.5 27q1 7 1 14q0 14 -10 20q-14 7 -20 18t-7.5 24.5t-0.5 29t1 30.5q-1 10 1 17q2 6 5.5 10t11.5 -1
q3 -3 7 -6q3 -2 6 -5.5t5 -5.5q3 18 4 36q1 15 0 33t-6 34l-14 39q-1 1 -1 4q0 2 0.5 4t2.5 4q2 1 5 0q6 -2 11 -16l6 -16q2 -6 4.5 -12.5t4.5 -9.5q4 -11 8 -18q4 -6 9 -9t11 3q9 6 17 13q7 6 14.5 13t12.5 15q2 3 6 6q6 6 11 3q1 -2 1 -5q0 -7 -8 -16q-13 -15 -26 -29
q-11 -13 -23.5 -27t-20.5 -27q-2 -7 -4 -15q-2 -7 -3 -15.5t0 -18.5q7 -11 13 -22q5 -9 10.5 -20t8.5 -19q-1 9 2 20q2 9 7 20t15 22q11 11 22 17q10 5 20.5 6.5t20.5 -8.5q2 -4 2 -7q0 -6 -14 -9l-10 -17q11 5 20 13q8 6 14 15.5t5 22.5q0 15 -2 30q-2 13 -4.5 26t-6.5 23
q-2 5 -3 9q-1 3 -0.5 6t4.5 4q2 0 6 -3q3 -2 6.5 -7.5t6.5 -16.5q3 -16 7 -31q2 -13 4.5 -26t2.5 -22q12 1 23 9q9 7 17.5 22t13.5 44l2 10q2 10 7 10q4 -1 6 -8q2 -6 0.5 -18.5t-8.5 -34.5q-5 -14 -16 -28q-9 -12 -25 -26t-39 -26q-11 -8 -22 -18q-9 -8 -17.5 -18
t-11.5 -20l18 -16q8 -8 16 -16.5t15 -16.5q5 -6 9 -12q4 -5 6.5 -10.5t2.5 -10.5q0 -21 -7.5 -31t-18 -13t-21.5 -2.5t-17 -0.5q1 -12 2 -23q1 -10 1.5 -21.5t1.5 -22.5q-1 -30 -6 -56q-5 -23 -13.5 -47t-22.5 -41q-4 -30 -6 -59q-2 -25 -1.5 -53t7.5 -51q1 -2 6 -4t3 -7
q-1 -2 -3 -4t-10 0l-0.5 -2.5t-2 -4.5t-5 -3.5t-10.5 0.5q-1 -1 -4.5 -4t-11.5 4q-1 1 -4.5 7.5t-5.5 16.5q-2 11 -3.5 35.5t-2.5 48.5q-1 28 -1 60q-6 -26 -7 -56.5t-0.5 -56t2.5 -42t2 -15.5q1 -2 6 -3t3 -8q0 -2 -4.5 -6t-10.5 1q-1 1 -5 -4.5t-15 -0.5q-1 -1 -5.5 -4
t-12.5 4q-1 1 -4 20q-1 0 -1.5 17.5t-1.5 39.5t-1 40v18z" />
    <glyph glyph-name="glyph64" horiz-adv-x="1204" 
d="M997 329q-8 -38 -9.5 -61.5t-1 -39t2 -25.5t1.5 -21q0 -6 -2 -14q-1 -4 -1 -8l2 -44q1 -17 1.5 -32t1.5 -19l13 -13l7 -7q5 -7 1 -9q-2 -2 -5 -2q-16 -2 -24 0t-12 5q-4 4 -6 9q1 8 -2 11q-2 2 -4 3q-2 -1 -3 2q-1 2 -1.5 7t1.5 14t1.5 22t-1.5 26q-1 14 -3 30
q-1 4 -4.5 11t-0.5 24q1 6 -1.5 18t-6.5 23.5t-8 20t-5 8.5q-2 -14 -6 -34.5t-9 -40.5t-9 -34l-4 -14q-5 -8 -5 -13v-5q2 -25 5 -44q2 -17 4 -32t3 -19l13 -13l7 -7q5 -7 1 -9q-2 -2 -5 -2q-16 -2 -24 0t-12 5q-4 4 -6 9q1 8 -2 11q-2 2 -4 3q-2 -1 -3 2q-1 2 -1.5 7t1.5 14
t0.5 22t-3.5 25q-3 14 -7 29q-1 4 -1.5 11.5t3.5 18.5q5 16 3.5 38t-5.5 41.5t-8 33.5t-5 14q-83 -12 -164 -14t-152 3t-128 14.5t-91 19.5q-15 -21 -23.5 -35t-16.5 -26t-18 -26t-28 -35q-6 -8 -6 -13q0 -3 1 -5q2 -25 5 -44q2 -17 4 -32t3 -19l13 -13l7 -7q5 -7 1 -9
q-2 -2 -5 -2q-16 -2 -24 0t-12 5q-4 4 -6 9q1 8 -2 11q-2 2 -4 3q-2 -1 -3 2q-1 2 -1.5 7t1.5 14t0.5 22t-3.5 25q-3 14 -7 29q-1 4 -1.5 11.5t3.5 18.5q5 16 7.5 30t4.5 25q2 12 3 22q-13 -18 -21.5 -41.5t-14.5 -45.5q-7 -26 -11 -52q2 -26 4 -47q2 -18 3 -34t2 -20
q3 -3 7 -6.5t7 -7.5q4 -4 7 -8q5 -7 1 -9q-2 -2 -5 -2q-16 -2 -24 0t-12 5q-4 4 -6 9q1 8 -2 11q-2 2 -4 3q-2 -1 -3 2q-1 2 -1.5 7t1.5 14t0.5 22t-3.5 25q-3 14 -7 29q-2 8 -1 14.5t3 15.5q6 38 4.5 71t-7.5 55q-10 33 -8.5 59.5t7 46t12.5 31t8 13.5q-10 4 -16 4.5
t-10 -0.5t-8 -3q-10 -8 -12.5 -20t-1.5 -23q1 -13 6 -26q5 -23 4 -45t-6 -39q-5 -20 -13 -39q2 10 3 22.5t0 23.5q-1 12 -3 25q0 -18 -3 -38t-5.5 -39t-3 -35t4.5 -24q-8 7 -12.5 18.5t-8 25t-6 28t-4.5 28.5l-7 -38q-10 33 -12.5 59.5t-1 47t5.5 35.5t8 26q0 1 6 13t20 24
t36.5 17.5t56.5 -7.5q27 25 62.5 31t74.5 2.5t78 -11.5t72 -10q15 -1 35 -1.5t43.5 -1t48 0t48.5 0.5q55 1 117 2q28 1 48 3.5t37 6.5t32.5 9.5t34.5 11.5q2 0 3 1q5 8 14.5 14t11.5 8q51 37 96 86q3 4 7.5 7.5t8.5 5.5q-2 7 0 21t19 30q1 1 3 1.5t3 -4.5q1 -9 2 -15t2 -11
t0 -9.5t-4 -11.5h5q2 7 6 15q3 6 7 13t11 12q1 1 2 1q2 0 2 -2q-1 -9 2 -21.5t-1 -20.5q5 2 11 0.5t12 -8.5q10 -12 14 -18.5t13 -7.5q1 0 -4.5 -4t-14.5 1q15 -14 25.5 -24t16.5 -16q7 -8 11 -12q9 -8 3.5 -17.5t-12.5 -12.5q-6 -2 -13 -1t-12 3q-6 3 -12 7q-7 5 -13.5 5
h-14.5t-18.5 1t-24.5 8q-18 -39 -27.5 -62t-15 -41.5t-9 -38.5t-9.5 -53zM1135 564q0 -1 1 -1z" />
    <glyph glyph-name="glyph65" horiz-adv-x="859" 
d="M113 429q-2 4 -1 5t3 1q18 2 30.5 11t20.5 19q9 11 15 25q-5 -10 -12 -16t-15 -10q-9 -4 -18 -7q-18 -4 -26 -11q-5 -4 -8 -7q-6 -8 -6 -14.5t5 -16.5t2.5 -10.5t-4.5 1.5q-8 5 -13.5 10.5t-8.5 10.5q-4 5 -6 11q-10 29 -0.5 47.5t24.5 30.5q18 13 43 22q21 7 35 18.5
t22 22.5q10 12 15 26q2 11 10.5 17.5t17.5 9.5q11 4 22 5q34 2 54.5 -9t32 -27.5t15.5 -34t5 -26.5q1 -20 -6.5 -39t-16.5 -34q-11 -18 -25 -33q-12 -15 -16 -24t-3 -14q1 -6 6 -9q7 -5 12.5 -3.5t8.5 3.5q4 3 6 8q12 23 26.5 34t27.5 15q15 4 31 2q11 -2 20.5 -2.5
t16.5 0.5q8 1 14 2q26 8 47 7t36 -4q17 -4 30 -11q7 1 15 -1l16 -4q9 -3 17 -6q4 -2 7 1t5 7t3 11q2 6 5.5 9t7.5 5t9 1q11 11 22 11t19 -5q10 -5 18 -16q6 -1 10.5 -3.5t6.5 -4.5q3 -4 4 -7q13 -3 17.5 -14.5t5.5 -25.5q1 -16 -2 -34q11 -16 11 -28.5t-5 -21.5
q-5 -11 -16 -20q8 -13 3 -25q-3 -6 -7 -11q5 -7 1 -18l-4 -10q0 -11 -5 -20.5t-12 -16.5q-8 -8 -17 -14q-9 -1 -16.5 -8.5t-13.5 -15.5q-7 -11 -12 -23q-5 -8 -10.5 -12t-10.5 -6q-6 -3 -13 -3q-10 0 -16 -2t-10 -4q-4 -3 -8 -5q-5 -4 -11 -2q-3 1 -4 2l7 -12l-13 8
q6 -8 6 -14v-7l-8 6l2 -8q-2 4 -9 4l-6 -2q-8 -2 -11 -11.5t-5 -19.5q-2 -12 -1 -26q5 -1 10.5 -1h10.5h9q15 0 17 -7q3 -1 8 -3.5t6 -12.5q0 -1 -3 3.5t-11 4.5q-2 -9 -15 -9q-6 0 -10.5 -0.5t-8.5 -1.5t-7 -2q-8 -3 -14 -9t-10 -12q-4 -7 -7 -15q-5 -9 -9.5 -12t-8.5 -3
q-5 -4 -7 -7.5t-2 -2.5q-2 7 2 14q-2 3 -1.5 7t1.5 8t3 10q-5 -2 -9.5 -3.5t-9.5 -3.5l-10 -4q-7 -2 -11 -0.5t-6 3.5q-9 0 -11.5 -4.5t-2.5 -3.5q0 8 3.5 11t7.5 5q-2 8 8 10q4 1 8 2.5t8 3.5t8 3q-3 2 -7.5 2.5t-9.5 1.5t-11 1q-9 0 -11.5 3.5t-2.5 5.5q-4 0 -8 -2
q-2 -1 -3 -2q2 7 6 9.5t7 3.5q4 2 8 2q14 0 28 -1t19 1q13 3 19 15t8 25q3 15 1 33q-2 0 -7 5q-3 2 -6 5l4 -13q-2 1 -5.5 5t-5.5 6l5 -9q-6 0 -10 2q-2 1 -3 3q-4 8 -8 11.5t-7 5.5q-4 2 -8 2q-12 0 -21 -8t-15 -18q-7 -11 -11 -25q-1 -6 10 -10q5 -2 12 -2q8 -1 10 -3.5
t2 -5.5q3 -1 6.5 -4t4.5 -11q0 -1 -3 3t-11 4q-2 -4 -6 -4.5t-7 0.5l-8 2q-7 2 -11.5 2.5t-7.5 0.5q-4 -1 -6 -2q-9 -4 -20 -10t-21.5 -11t-20 -9t-14.5 -4q-3 0 -5 2q-6 -2 -9.5 -4t-3.5 -1q1 5 3.5 7.5l4.5 4.5q0 4 4 7q6 4 10.5 6t6.5 3q-5 0 -16 0.5t-20 0.5q-5 0 -7 5
q-6 0 -9.5 -2.5t-3.5 -1.5q4 12 14 12q4 6 8 6q11 1 19 0t19 2q-5 2 -16.5 2.5t-13.5 1.5q-5 0 -5 6q-6 2 -9 -1t-3 -2q3 6 7 8t7 2q5 5 12 3q14 -2 27.5 -2.5t21.5 1.5q10 2 19 12t16 21q8 12 14 28q-66 -8 -128 13t-106 79q-33 50 -35 88t9 64q12 30 39 52
q15 11 22.5 22.5t11.5 21.5q4 11 4 21q-8 2 -15.5 -3t-13.5 -11q-7 -7 -14 -16q-6 -11 -13.5 -17t-13.5 -11q-8 -5 -15 -8q-12 -5 -22 -2.5t-17 8t-11 11t-5 7.5z" />
    <glyph glyph-name="question" unicode="?" horiz-adv-x="595" 
d="M316 74q0 -34 -23.5 -57t-56.5 -23t-56 23t-23 57q0 33 23 56t56 23t56.5 -23t23.5 -56zM172 202v209q14 -3 33.5 -5t36.5 -2q33 0 62 5t51 18t35 35.5t13 57.5q0 51 -28 84.5t-81 36.5q-41 2 -74.5 -22.5t-50.5 -64.5q-4 -11 -15.5 -14t-24.5 -1q-15 2 -33 7
q-24 7 -35 16t-15 17q-4 9 -1 18q13 42 37.5 73t57 51.5t72 31t81.5 10.5q61 0 107 -19.5t77 -53t47 -77.5t16 -92q0 -43 -16 -84t-46 -73.5t-73.5 -52.5t-98.5 -20v-89h-134z" />
    <glyph glyph-name="grave" unicode="`" horiz-adv-x="358" 
d="M57 596q-3 1 -7 4q-8 6 -7 17q3 35 13.5 54t16.5 27q5 6 15 6q4 0 9 -2l222 -83l-22 -77l-240 54v0z" />
    <glyph glyph-name="f" unicode="f" horiz-adv-x="446" 
d="M128 499v14q0 42 6.5 80.5t24 67t49 45.5t81.5 17q27 0 47 -4t34.5 -10t23.5 -12.5t14 -10.5q3 -2 5 -6q3 -7 1 -17q-3 -11 -15.5 -36.5t-36.5 -44.5q-9 -6 -18 -2q-4 1 -9 4t-10 5t-11 3t-13 1q-20 -1 -28.5 -20.5t-7.5 -59.5v-14h85q11 0 17.5 -8t9.5 -18q4 -11 3 -26
q0 -16 -4 -28q-3 -11 -9.5 -19.5t-18.5 -8.5h-83v-391h-137v391h-63q-12 0 -18 8.5t-9 19.5q-4 12 -3 28q0 15 3 26q2 10 8 18t17 8h65z" />
    <glyph glyph-name="v" unicode="v" horiz-adv-x="564" 
d="M405 486q4 10 14 14q4 2 9 2q35 1 58.5 -13.5t34.5 -26.5q4 -4 6 -8q4 -10 0 -21l-167 -432h-149l-167 432q-3 7 -1.5 12.5t3.5 10.5q3 5 8 9q20 20 43 26.5t35 7.5q7 0 14 -1q6 -2 11.5 -4.5t8.5 -9.5l120 -300z" />
    <glyph glyph-name="w" unicode="w" horiz-adv-x="783" 
d="M545 234l80 253q2 7 7.5 10.5t10.5 5.5q6 2 13 1q23 -1 47.5 -9.5t38.5 -22.5q3 -3 6 -7q5 -8 2 -19l-140 -446h-125l-94 309l-91 -309h-124l-141 445q-4 12 3 21q3 4 8 8q6 5 16.5 10t23 9.5t25.5 7t25 2.5q7 0 13 -2q5 -2 10 -5t7 -11l71 -247l84 242q2 7 6.5 11t9.5 7
t11 5q13 4 40 5t48 -5q5 -1 9 -5q4 -3 8 -7.5t7 -11.5z" />
    <glyph glyph-name="x" unicode="x" horiz-adv-x="563" 
d="M340 243l165 -243h-165l-79 134l-76 -134h-151l138 242l-129 182q-4 5 -4 9.5t1 8.5t3 8q13 20 38.5 36t50.5 21q5 1 10 1q10 0 16 -9l101 -139l89 138q2 5 6.5 6t8.5 2h10q19 -4 33.5 -13t25 -19t16.5 -19t9 -14l2 -6q1 -5 -2 -12z" />
    <glyph glyph-name="minus" unicode="&#x2212;" horiz-adv-x="445" 
d="M366 363q11 0 17.5 -9t9.5 -20q4 -13 3 -29q0 -17 -4 -30q-3 -11 -9.5 -20.5t-18.5 -9.5h-283q-12 0 -18 9.5t-9 20.5q-4 13 -3 30q0 16 3 29q2 11 8 20t17 9h287z" />
    <glyph glyph-name="equal" unicode="=" horiz-adv-x="462" 
d="M376 473q11 0 17.5 -9t9.5 -20q4 -13 3 -29q0 -17 -4 -30q-3 -11 -9.5 -20.5t-18.5 -9.5h-283q-12 0 -18 9.5t-9 20.5q-4 13 -3 30q0 16 3 29q2 11 8 20t17 9h287zM376 282q11 0 17.5 -9t9.5 -20q4 -13 3 -29q0 -17 -4 -30q-3 -11 -9.5 -20.5t-18.5 -9.5h-283
q-12 0 -18 9.5t-9 20.5q-4 13 -3 30q0 16 3 29q2 11 8 20t17 9h287z" />
    <glyph glyph-name="D" unicode="D" horiz-adv-x="664" 
d="M67 0v694h237q73 0 130.5 -21t98 -63.5t62 -108t21.5 -155.5q0 -76 -19.5 -139.5t-59 -109.5t-99.5 -71.5t-141 -25.5h-230zM297 124q48 0 81.5 16t54.5 45t30.5 71t9.5 94q0 49 -9.5 89.5t-30.5 69.5t-54.5 45.5t-81.5 16.5h-88v-447h88z" />
    <glyph glyph-name="k" unicode="k" 
d="M201 699v-352l170 149q5 5 11 6t11 0t11 -4q26 -15 36 -34t14 -30q1 -5 1 -10q0 -11 -8 -18l-102 -100l151 -306h-145l-110 219l-40 -39v-180h-137v698q0 11 10.5 16t23.5 8q15 3 35 4q19 0 34 -3q13 -2 23.5 -7.5t10.5 -16.5z" />
    <glyph glyph-name="y" unicode="y" horiz-adv-x="644" 
d="M186 -210l115 285q-51 87 -101 173t-102 173q-4 6 -2 14q1 4 2 6q10 16 34 34.5t53 23.5q5 1 10 0t9.5 -3t7.5 -7l151 -258l105 256q3 9 14.5 11t25.5 0q15 -2 34 -7q19 -6 32 -13q11 -6 19.5 -15t4.5 -20l-268 -653h-144z" />
    <glyph glyph-name="e" unicode="e" 
d="M288 104q34 0 59.5 16t36.5 30q7 8 16 8q4 0 9 -1q15 -6 32 -22t26 -37q2 -5 1.5 -9t-1.5 -7q-1 -4 -3 -7q-8 -11 -21.5 -26t-35.5 -28.5t-51.5 -23t-68.5 -9.5q-56 0 -102 16.5t-78.5 49.5t-50.5 81.5t-18 111.5v5q0 61 21.5 108t56 79t76 48t82.5 16q54 0 94 -20
t66.5 -57t40 -89.5t13.5 -117.5q0 -9 -4 -15q-3 -5 -11 -9.5t-23 -4.5h-267q2 -26 12.5 -42.5t25.5 -26t32.5 -13.5t34.5 -4zM274 380q-40 0 -68 -23t-28 -71h175q0 23 -7 40.5t-18.5 29.5t-25.5 18t-28 6z" />
    <glyph glyph-name="g" unicode="g" horiz-adv-x="565" 
d="M509 0v-10q0 -50 -13.5 -92t-40.5 -72.5t-68 -47.5t-95 -17q-36 0 -71.5 9t-65.5 25t-53 38t-33 49q-2 6 -2 11t0.5 10t5.5 10q13 14 33 27t46 15q7 0 12 -3l10 -6q4 -4 9 -8q22 -26 51 -39.5t59 -13.5q79 0 79 121v48q-16 -33 -48 -46.5t-69 -13.5q-41 0 -78 16
t-65 47.5t-44 79t-16 110.5v5q0 74 22 122t55 76.5t70.5 39.5t68.5 11q10 0 24 -3t29 -9.5t28.5 -17.5t22.5 -26v29q0 10 10.5 15.5t23.5 8.5q15 4 35 4q19 0 34 -3q13 -2 23.5 -8t10.5 -17v-474zM190 245q0 -35 9 -57.5t23.5 -35t31.5 -17t33 -4.5q19 0 42.5 11.5
t42.5 30.5v154q-9 11 -21 19.5t-25 14t-25.5 8.5t-21.5 3q-11 0 -26 -4t-29 -16.5t-24 -36t-10 -62.5v-8z" />
    <glyph glyph-name="a" unicode="a" horiz-adv-x="526" 
d="M494 0h-137v54q-16 -33 -48 -46.5t-69 -13.5q-41 0 -78 16t-65 47.5t-44 79t-16 110.5v5q0 72 21.5 119.5t53 76.5t66.5 41t62 12q35 0 67.5 -14t49.5 -42v28q0 10 10.5 15.5t23.5 8.5q15 4 35 4q19 0 34 -3q13 -2 23.5 -8t10.5 -17v-473zM175 242q0 -35 9 -57t23.5 -34
t31.5 -16t33 -4q19 0 42.5 11.5t42.5 30.5v154q-9 11 -21 19.5t-25 14t-25.5 8t-21.5 2.5q-11 0 -26 -4t-29 -17t-24 -37t-10 -63v-8z" />
    <glyph glyph-name="at" unicode="@" horiz-adv-x="913" 
d="M62 380q0 82 32 154.5t86.5 126.5t127.5 85t156 31q82 0 154.5 -31t126.5 -85t85 -126.5t31 -154.5q0 -83 -31 -156t-85 -127.5t-126.5 -86.5t-154.5 -32q-83 0 -156 32t-127.5 86.5t-86.5 127.5t-32 156zM112 380q0 -74 27.5 -138t75 -111.5t111.5 -75t138 -27.5
q72 0 135.5 27.5t111 75t75.5 111.5t28 138q0 72 -28 135.5t-75.5 111t-111 75.5t-135.5 28q-74 0 -138 -28t-111.5 -75.5t-75 -111t-27.5 -135.5zM127 380q0 69 26 129.5t72 106t107 72t132 26.5q69 0 129.5 -26.5t106 -72t72 -106t26.5 -129.5q0 -71 -26.5 -132t-72 -107
t-106 -72t-129.5 -26q-71 0 -132 26t-107 72t-72 107t-26 132zM162 377q0 -62 23.5 -117t64 -96t96 -65t118.5 -24t117.5 24t95 65t64 96t23.5 117q0 63 -23.5 118t-64 96t-95 65t-117.5 24t-118.5 -24t-96 -65t-64 -96t-23.5 -118zM404 500l94 -258h-82l-14 41h-73l-16 -41
h-80l94 258q2 5 8.5 8t13.5 5q8 2 16 1q9 1 17 -1q7 -2 13 -5t9 -8zM390 342l-23 76l-10 -28l-14 -48h47zM682 454h-61v-212h-71v212h-64q-5 0 -7.5 4.5t-4.5 10.5q-2 7 -2 16q-1 9 1 16q1 6 4 11t8 5h198q5 0 7.5 -5t4.5 -11q1 -7 1 -15q1 -9 -1 -16q-2 -6 -5 -11t-8 -5z
" />
    <glyph glyph-name="bracketleft" unicode="[" horiz-adv-x="337" 
d="M254 0h-187v694h189q8 0 11.5 -6t5.5 -13q2 -9 2 -19q0 -12 -2 -22q-2 -8 -6.5 -14.5t-12.5 -6.5h-70l1 -533h68q9 0 13.5 -6t6.5 -14q2 -9 2 -19q0 -12 -2 -21q-2 -8 -6.5 -14t-12.5 -6z" />
    <glyph glyph-name="bracketright" unicode="]" horiz-adv-x="325" 
d="M78 0q-9 0 -13 6t-6 14q-2 9 -2 21q-1 10 2 19q2 8 6.5 14t13.5 6h68l1 533h-70q-9 0 -13 6.5t-6 14.5q-2 10 -2 22q0 10 2 19q2 7 5.5 13t11.5 6h189v-694h-187v0z" />
    <glyph glyph-name="plus" unicode="+" horiz-adv-x="508" 
d="M311 383h115q11 0 17.5 -9t9.5 -20q4 -13 3 -29q0 -17 -4 -30q-3 -11 -9.5 -20.5t-18.5 -9.5h-113v-116q0 -12 -9 -18t-20 -9q-13 -4 -29 -3q-17 0 -30 4q-11 3 -20.5 9t-9.5 19v114h-112q-12 0 -18 9.5t-9 20.5q-4 13 -3 30q0 16 3 29q2 11 8 20t17 9h114v111
q0 11 9.5 17.5t20.5 9.5q13 4 30 3q16 0 29 -3q11 -2 20 -8t9 -17v-113z" />
    <glyph glyph-name="A" unicode="A" horiz-adv-x="744" 
d="M464 662l250 -662h-160l-39 122h-285l-41 -122h-158l246 663q7 14 22.5 21t30.5 10t26.5 3h11.5q22 0 41 -4q17 -3 32 -10t23 -21zM474 239l-104 300l-34 -111l-68 -189h206z" />
    <glyph glyph-name="quoteright" unicode="&#x2019;" horiz-adv-x="174" 
d="M131 480h-85l-11 182q0 10 8 15.5t18 8.5q11 4 26 4q15 1 27 -3q11 -3 19 -9.5t9 -18.5z" />
    <glyph glyph-name="exclamdown" unicode="&#xa1;" horiz-adv-x="344" 
d="M94 306h137v-473q0 -11 -11 -16t-24 -8q-15 -4 -34 -4t-34 3q-13 2 -23.5 8t-10.5 17v473zM83 426q0 34 23.5 57t56.5 23t56 -23t23 -57q0 -33 -23 -56t-56 -23t-56.5 23t-23.5 56z" />
    <glyph glyph-name="questiondown" unicode="&#xbf;" horiz-adv-x="595" 
d="M256 423q0 34 23.5 57t56.5 23t56 -23t23 -57q0 -33 -23 -56t-56 -23t-56.5 23t-23.5 56zM266 295v-89q-56 0 -99.5 -20t-73.5 -52.5t-45.5 -73.5t-15.5 -84q0 -48 16 -92t47 -77.5t77 -53t107 -19.5q42 0 81.5 10.5t72 31t57 51.5t37.5 73q2 9 -2 18q-4 8 -14.5 16.5
t-34.5 16.5q-18 5 -33 7q-13 2 -25 -1t-15 -14q-17 -40 -50.5 -64.5t-74.5 -22.5q-53 3 -81 36.5t-28 84.5q0 35 13 57.5t35 35.5t51 18t62 5q17 0 36.5 -2t33.5 -5v209h-134z" />
    <glyph glyph-name="bar" unicode="|" horiz-adv-x="233" 
d="M179 -34q0 -12 -9 -18t-20 -9q-13 -4 -29 -3q-17 0 -30 4q-11 3 -20.5 9t-9.5 19v797q0 11 9.5 17.5t20.5 9.5q13 4 30 3q16 0 29 -3q11 -2 20 -8t9 -17v-801z" />
    <glyph glyph-name="underscore" unicode="_" horiz-adv-x="571" 
d="M496 117q11 0 17.5 -9t9.5 -20q4 -13 3 -29q0 -17 -4 -30q-3 -11 -9.5 -20.5t-18.5 -9.5h-413q-12 0 -18 9.5t-9 20.5q-4 13 -3 30q0 16 3 29q2 11 8 20t17 9h417z" />
    <glyph glyph-name="numbersign" unicode="#" horiz-adv-x="564" 
d="M236 511h74v75q0 11 8 17.5t19 9.5q11 4 27 3q15 0 27 -3q10 -2 18.5 -8t8.5 -17v-77h75q11 0 17.5 -8.5t9.5 -19.5q4 -12 3 -27q0 -16 -3 -27q-2 -10 -8 -18t-17 -8h-77v-76h75q11 0 17.5 -8.5t9.5 -19.5q4 -12 3 -27q0 -16 -3 -27q-2 -10 -8 -18t-17 -8h-77v-70
q0 -12 -8.5 -18t-18.5 -9q-12 -4 -27 -3q-16 0 -27 4q-11 3 -19 9t-8 19v68h-74v-70q0 -12 -8.5 -18t-18.5 -9q-11 -4 -26 -3q-16 0 -28 4q-11 3 -19 9t-8 19v68h-67q-12 0 -18 8t-9 18q-4 11 -3 27q0 15 4 27q3 11 9 19.5t19 8.5h65v76h-67q-12 0 -18 8t-9 18q-4 11 -3 27
q0 15 4 27q3 11 9 19.5t19 8.5h65v75q0 11 8 17.5t19 9.5q12 4 28 3q15 0 26 -3q10 -2 18.5 -8t8.5 -17v-77zM236 327h74v76h-74v-76z" />
    <glyph glyph-name="at.alt1" horiz-adv-x="825" 
d="M711 700q11 0 17.5 -8.5t9.5 -18.5q4 -11 3 -26q0 -16 -4 -28q-3 -11 -9.5 -19t-18.5 -8h-604q-12 0 -18 8t-9 19q-4 12 -3 28q0 15 3 26q2 10 8 18.5t17 8.5h608zM341 516l137 -366h-117l-21 67h-101l-23 -67h-115l136 366q4 8 12.5 12t17 5.5t14.5 1.5h6q11 0 22 -2
q9 -2 18 -5.5t14 -11.5zM328 282l-37 124l-13 -46l-25 -78h75zM696 451h-87v-301h-101v301h-90q-8 0 -12 7t-6 15q-3 10 -2 22q0 12 2 22q2 8 5.5 15.5t11.5 7.5h280q8 0 11.5 -7t5.5 -15q2 -10 2 -22q0 -13 -2 -23q-2 -8 -6 -15t-12 -7zM711 108q11 0 17.5 -8.5t9.5 -18.5
q4 -11 3 -26q0 -16 -4 -28q-3 -11 -9.5 -19t-18.5 -8h-604q-12 0 -18 8t-9 19q-4 12 -3 28q0 15 3 26q2 10 8 18.5t17 8.5h608z" />
    <glyph glyph-name="parenright" unicode=")" horiz-adv-x="287" 
d="M111 353q0 73 -7 132t-15.5 102t-15.5 67t-7 26q-2 13 7 20.5t20 12.5q13 5 31 7q14 2 26 1q10 -2 19.5 -6.5t13.5 -16.5q0 -1 9.5 -25t20.5 -68.5t20.5 -108.5t9.5 -145q0 -82 -9.5 -149.5t-20.5 -116t-20.5 -75.5t-9.5 -28q-4 -12 -13.5 -17t-19.5 -6q-12 -2 -26 1
q-18 2 -31 7q-11 5 -20 12t-7 21q0 2 7 30t15.5 75t15.5 110.5t7 137.5z" />
    <glyph glyph-name="parenleft" unicode="(" horiz-adv-x="309" 
d="M193 353q0 -74 7 -137.5t15.5 -110.5t15.5 -75t7 -30q2 -14 -7 -21t-20 -12q-13 -5 -31 -7q-15 -3 -26 -1q-11 1 -20 6t-13 17q0 1 -9.5 28t-20.5 75.5t-20.5 116t-9.5 149.5q0 81 9.5 145t20.5 108.5t20.5 68.5t9.5 25q4 12 13 16.5t20 6.5q11 1 26 -1q18 -2 31 -7
q11 -5 20 -12.5t7 -20.5q0 -2 -7 -26t-15.5 -67t-15.5 -102t-7 -132z" />
    <glyph glyph-name="dotlessi" unicode="&#x131;" horiz-adv-x="250" 
d="M195 0h-137v473q0 10 10.5 15.5t23.5 8.5q15 4 35 4q19 0 34 -3q13 -2 23.5 -8t10.5 -17v-473z" />
    <glyph glyph-name="backslash" unicode="\" horiz-adv-x="427" 
d="M415 18q5 -11 -1.5 -19.5t-15.5 -15.5q-11 -8 -26 -14q-16 -6 -29 -8q-11 -2 -22 0.5t-16 14.5l-299 739q-5 11 1.5 19.5t16.5 15.5q11 8 27 15q15 5 28 8q11 2 21 0.5t15 -12.5z" />
    <glyph glyph-name="slash" unicode="/" horiz-adv-x="450" 
d="M307 761q4 11 14.5 12.5t21.5 -0.5q13 -3 28 -8q16 -7 27 -15q10 -7 16 -15.5t2 -19.5l-299 -739q-5 -12 -16 -14.5t-22 -0.5q-13 2 -29 8q-15 6 -26 14q-9 7 -15.5 15.5t-1.5 19.5z" />
    <glyph glyph-name="dollar" unicode="$" 
d="M327 -19q0 -11 -8.5 -16.5t-18.5 -7.5q-11 -3 -26 -3q-16 -1 -28 3q-11 2 -19.5 8.5t-8.5 17.5v42q-42 8 -87.5 31.5t-80.5 63.5q-2 2 -3 5q-2 6 2 15q5 12 17 30t33 32q9 5 18 2q4 -2 7 -4q17 -16 42.5 -31t51.5 -23v174q-31 8 -61 19t-53.5 30t-38 47.5t-14.5 72.5
q0 42 12.5 73t35 52.5t53 34.5t66.5 18v48q0 11 8.5 16.5t19.5 7.5q12 3 28 3q15 0 26 -3q10 -2 18.5 -7t8.5 -16v-51q38 -10 73 -31.5t63 -54.5q4 -5 5 -9.5t1 -9.5t-1 -10q-2 -8 -7.5 -18t-12.5 -19t-14.5 -15.5t-12.5 -8.5t-9 -2t-8.5 0.5t-8.5 5.5q-13 13 -32 26t-36 22
v-131q31 -9 61 -24t53.5 -38t38 -54.5t14.5 -73.5q0 -86 -44.5 -135t-122.5 -60v-44zM383 213q0 26 -14.5 45.5t-41.5 27.5v-143q27 5 41.5 20.5t14.5 49.5zM163 496q-1 -22 17 -37.5t38 -15.5v106q-24 -1 -39 -14t-16 -39z" />
    <glyph glyph-name="percent" unicode="%" horiz-adv-x="701" 
d="M431 704q4 11 14.5 12.5t21.5 -0.5q13 -3 28 -8q16 -7 27 -15q10 -7 16 -15.5t2 -19.5l-271 -668q-5 -12 -16 -14.5t-22 -0.5q-13 2 -29 8q-15 6 -26 14q-9 7 -15.5 15.5t-1.5 19.5zM407 131q0 -46 13 -73.5t33 -42.5t43.5 -19.5t43.5 -4.5q33 0 57 12t39.5 31.5t23 44.5
t7.5 52q0 26 -8 51t-24 44t-40 30.5t-55 11.5q-34 0 -59 -12.5t-41.5 -32.5t-24.5 -44t-8 -48zM24 557q0 -46 13 -73.5t33 -42.5t43.5 -19.5t43.5 -4.5q33 0 57 12t39.5 31.5t23 44.5t7.5 52q0 26 -8 51t-24 44t-40 30.5t-55 11.5q-34 0 -59 -12.5t-41.5 -32.5t-24.5 -44
t-8 -48z" />
    <glyph glyph-name="less" unicode="&#x3c;" horiz-adv-x="520" 
d="M440 238q10 -4 14 -14q2 -4 2 -9q1 -35 -13.5 -58.5t-26.5 -34.5q-4 -4 -8 -6t-9.5 -2.5t-11.5 2.5l-335 167v149l349 164q7 2 12.5 1t10.5 -3q5 -3 9 -8q20 -20 26.5 -43t7.5 -35q0 -7 -1 -14q-2 -6 -4.5 -12t-9.5 -8l-251 -117z" />
    <glyph glyph-name="greater" unicode="&#x3e;" horiz-adv-x="532" 
d="M321 357l-251 117q-7 2 -10 8t-4 12q-2 7 -1 14q1 12 7.5 35t26.5 43q4 5 9 8q5 2 10 3t13 -1l349 -164v-149l-335 -167q-7 -3 -12 -2.5t-9 2.5t-8 6q-12 11 -26.5 34.5t-13.5 58.5q0 5 2 9q4 10 14 14z" />
    <glyph glyph-name="asciicircum" unicode="^" horiz-adv-x="586" 
d="M297 538l-117 -251q-3 -7 -8.5 -10t-11.5 -4q-7 -2 -14 -1q-12 1 -35 7.5t-43 26.5q-5 4 -8 9q-2 5 -3.5 10t1.5 13l164 349h149l167 -335q4 -11 0 -21q-2 -4 -6 -8q-11 -12 -34.5 -26.5t-58.5 -13.5q-5 0 -9 2q-10 4 -14 14z" />
    <glyph glyph-name="circumflex" unicode="&#x2c6;" horiz-adv-x="407" 
d="M115 556q-8 -9 -19 -9q-5 0 -10 1q-22 7 -35.5 21t-19.5 23q-2 3 -3 7q-2 8 4 15l134 133h77l134 -133q6 -7 4 -15q-1 -4 -3 -7q-6 -9 -20.5 -23t-35.5 -21q-6 -1 -10 -1q-10 0 -18 9l-90 99z" />
    <glyph glyph-name="acute" unicode="&#xb4;" horiz-adv-x="407" 
d="M332 576l-240 -54l-22 77l222 83q5 2 9 2q9 0 15 -6q6 -8 16.5 -27t13.5 -54q0 -12 -7 -17q-4 -3 -7 -4z" />
    <glyph glyph-name="caron" unicode="&#x2c7;" horiz-adv-x="414" 
d="M300 833q9 9 19 9q5 0 10 -1q22 -7 35.5 -21t19.5 -23q2 -3 3 -7q1 -3 0.5 -7t-4.5 -8l-134 -133h-77l-134 133q-4 4 -4.5 8t0.5 7q1 4 3 7q6 9 20.5 23t35.5 21q4 1 9 1q10 0 19 -9l90 -99z" />
    <glyph glyph-name="dieresis" unicode="&#xa8;" horiz-adv-x="364" 
d="M163 655q0 -26 -17.5 -43t-42.5 -17t-42 17t-17 43q0 25 17 42t42 17t42.5 -17t17.5 -42zM316 655q0 -26 -17.5 -43t-42.5 -17t-42 17t-17 43q0 25 17 42t42 17t42.5 -17t17.5 -42z" />
    <glyph glyph-name="dotaccent" unicode="&#x2d9;" horiz-adv-x="212" 
d="M165 655q0 -26 -17.5 -43t-42.5 -17t-42 17t-17 43q0 25 17 42t42 17t42.5 -17t17.5 -42z" />
    <glyph glyph-name="ring" unicode="&#x2da;" horiz-adv-x="296" 
d="M266 659q0 -26 -9.5 -48.5t-26 -39t-39 -26t-47.5 -9.5t-47 9.5t-38 26t-25.5 39t-9.5 48.5q0 25 9.5 46.5t25.5 37.5t38 25.5t47 9.5t47.5 -9.5t39 -25.5t26 -37.5t9.5 -46.5zM205 659q0 23 -17.5 40t-40.5 17q-24 0 -41 -17t-17 -40q0 -25 17 -42t41 -17q23 0 40.5 17
t17.5 42z" />
    <glyph glyph-name="Aring" unicode="&#xc5;" horiz-adv-x="744" 
d="M464 662l250 -662h-160l-39 122h-285l-41 -122h-158l246 663q7 14 22.5 21t30.5 10t26.5 3h11.5q22 0 41 -4q17 -3 32 -10t23 -21zM474 239l-104 300l-34 -111l-68 -189h206zM484 859q0 -26 -9.5 -48.5t-26 -39t-39 -26t-47.5 -9.5t-47 9.5t-38 26t-25.5 39t-9.5 48.5
q0 25 9.5 46.5t25.5 37.5t38 25.5t47 9.5t47.5 -9.5t39 -25.5t26 -37.5t9.5 -46.5zM423 859q0 23 -17.5 40t-40.5 17q-24 0 -41 -17t-17 -40q0 -25 17 -42t41 -17q23 0 40.5 17t17.5 42z" />
    <glyph glyph-name="breve" unicode="&#x2d8;" horiz-adv-x="440" 
d="M218 767q20 0 37.5 10t30.5 22t21 22.5t8 11.5q6 10 17 10q5 0 11 -2q21 -7 34.5 -19.5t19.5 -21.5q2 -4 3 -8q2 -9 -2 -17q0 -1 -10 -16.5t-31 -33.5t-55 -33t-82 -15q-50 0 -84.5 15t-56 33t-31.5 33.5t-10 16.5q-3 5 -3 9t1 8t3 8q6 9 19.5 21.5t34.5 19.5q6 2 11 2
q10 0 17 -10q0 -1 8 -11.5t21 -22.5t30.5 -22t37.5 -10z" />
    <glyph glyph-name="asterisk" unicode="*" horiz-adv-x="369" 
d="M278 442l-61 55l-1 -72q0 -3 -1 -6q-2 -7 -9 -8q-8 -2 -24 -2.5t-39 8.5q-5 2 -7 5t-3 5q-1 3 0 6l18 70l-67 -33q-2 -2 -6 -2q-8 -2 -12 4q-5 5 -13 19.5t-12 40.5q-1 7 5 11q3 2 5 3l72 18l-68 38q-3 1 -5 4q-2 2 -3.5 5t-0.5 7q2 8 8.5 22.5t25.5 31.5q6 6 13 4
q3 -1 6 -3l69 -58l3 75q0 3 1 6q2 6 8 9q8 1 24 2t40 -8q5 -2 7 -5t3 -5q1 -4 0 -6l-21 -79l67 35q2 2 6 2q7 0 11 -4q5 -6 13.5 -19.5t11.5 -39.5q0 -10 -5 -13q-3 -2 -5 -3l-62 -18l52 -31q2 -1 5 -4q2 -2 3.5 -5t0.5 -7q-2 -6 -8.5 -21t-26.5 -32q-6 -6 -12 -4z" />
    <glyph glyph-name="Agrave" unicode="&#xc0;" horiz-adv-x="744" 
d="M464 662l250 -662h-160l-39 122h-285l-41 -122h-158l246 663q7 14 22.5 21t30.5 10t26.5 3h11.5q22 0 41 -4q17 -3 32 -10t23 -21zM474 239l-104 300l-34 -111l-68 -189h206zM248 777q-3 1 -7 4q-8 6 -7 17q3 35 13.5 54t16.5 27q5 6 15 6q4 0 9 -2l222 -83l-22 -77
l-240 54v0z" />
    <glyph glyph-name="Aacute" unicode="&#xc1;" horiz-adv-x="744" 
d="M464 662l250 -662h-160l-39 122h-285l-41 -122h-158l246 663q7 14 22.5 21t30.5 10t26.5 3h11.5q22 0 41 -4q17 -3 32 -10t23 -21zM474 239l-104 300l-34 -111l-68 -189h206zM495 784l-240 -54l-22 77l222 83q5 2 9 2q9 0 15 -6q6 -8 16.5 -27t13.5 -54q0 -12 -7 -17
q-4 -3 -7 -4z" />
    <glyph glyph-name="Acircumflex" unicode="&#xc2;" horiz-adv-x="744" 
d="M464 662l250 -662h-160l-39 122h-285l-41 -122h-158l246 663q7 14 22.5 21t30.5 10t26.5 3h11.5q22 0 41 -4q17 -3 32 -10t23 -21zM474 239l-104 300l-34 -111l-68 -189h206zM281 734q-8 -9 -19 -9q-5 0 -10 1q-22 7 -35.5 21t-19.5 23q-2 3 -3 7q-2 8 4 15l134 133h77
l134 -133q6 -7 4 -15q-1 -4 -3 -7q-6 -9 -20.5 -23t-35.5 -21q-6 -1 -10 -1q-10 0 -18 9l-90 99z" />
    <glyph glyph-name="Adieresis" unicode="&#xc4;" horiz-adv-x="744" 
d="M464 662l250 -662h-160l-39 122h-285l-41 -122h-158l246 663q7 14 22.5 21t30.5 10t26.5 3h11.5q22 0 41 -4q17 -3 32 -10t23 -21zM474 239l-104 300l-34 -111l-68 -189h206zM354 822q0 -26 -17.5 -43t-42.5 -17t-42 17t-17 43q0 25 17 42t42 17t42.5 -17t17.5 -42z
M507 822q0 -26 -17.5 -43t-42.5 -17t-42 17t-17 43q0 25 17 42t42 17t42.5 -17t17.5 -42z" />
    <glyph glyph-name="Egrave" unicode="&#xc8;" horiz-adv-x="564" 
d="M492 0h-423v694h425q11 0 17.5 -9t8.5 -20q3 -13 3 -29q1 -18 -3 -32q-3 -12 -9.5 -21.5t-18.5 -9.5h-286v-176v-1h200q11 0 17 -9.5t8 -20.5q3 -13 3 -29q1 -18 -3 -31q-3 -11 -9.5 -20.5t-17.5 -9.5h-197v-156h284q13 0 19.5 -9.5t9.5 -20.5q4 -13 3 -29q0 -18 -4 -31
q-3 -11 -9 -20.5t-18 -9.5zM158 784q-3 1 -7 4q-8 6 -7 17q3 35 13.5 54t16.5 27q5 6 15 6q4 0 9 -2l222 -83l-22 -77l-240 54v0z" />
    <glyph glyph-name="Eacute" unicode="&#xc9;" horiz-adv-x="564" 
d="M492 0h-423v694h425q11 0 17.5 -9t8.5 -20q3 -13 3 -29q1 -18 -3 -32q-3 -12 -9.5 -21.5t-18.5 -9.5h-286v-176v-1h200q11 0 17 -9.5t8 -20.5q3 -13 3 -29q1 -18 -3 -31q-3 -11 -9.5 -20.5t-17.5 -9.5h-197v-156h284q13 0 19.5 -9.5t9.5 -20.5q4 -13 3 -29q0 -18 -4 -31
q-3 -11 -9 -20.5t-18 -9.5zM415 781l-240 -54l-22 77l222 83q5 2 9 2q9 0 15 -6q6 -8 16.5 -27t13.5 -54q0 -12 -7 -17q-4 -3 -7 -4z" />
    <glyph glyph-name="Ecircumflex" unicode="&#xca;" horiz-adv-x="564" 
d="M492 0h-423v694h425q11 0 17.5 -9t8.5 -20q3 -13 3 -29q1 -18 -3 -32q-3 -12 -9.5 -21.5t-18.5 -9.5h-286v-176v-1h200q11 0 17 -9.5t8 -20.5q3 -13 3 -29q1 -18 -3 -31q-3 -11 -9.5 -20.5t-17.5 -9.5h-197v-156h284q13 0 19.5 -9.5t9.5 -20.5q4 -13 3 -29q0 -18 -4 -31
q-3 -11 -9 -20.5t-18 -9.5zM203 746q-8 -9 -19 -9q-5 0 -10 1q-22 7 -35.5 21t-19.5 23q-2 3 -3 7q-2 8 4 15l134 133h77l134 -133q6 -7 4 -15q-1 -4 -3 -7q-6 -9 -20.5 -23t-35.5 -21q-6 -1 -10 -1q-10 0 -18 9l-90 99z" />
    <glyph glyph-name="Edieresis" unicode="&#xcb;" horiz-adv-x="564" 
d="M492 0h-423v694h425q11 0 17.5 -9t8.5 -20q3 -13 3 -29q1 -18 -3 -32q-3 -12 -9.5 -21.5t-18.5 -9.5h-286v-176v-1h200q11 0 17 -9.5t8 -20.5q3 -13 3 -29q1 -18 -3 -31q-3 -11 -9.5 -20.5t-17.5 -9.5h-197v-156h284q13 0 19.5 -9.5t9.5 -20.5q4 -13 3 -29q0 -18 -4 -31
q-3 -11 -9 -20.5t-18 -9.5zM265 803q0 -26 -17.5 -43t-42.5 -17t-42 17t-17 43q0 25 17 42t42 17t42.5 -17t17.5 -42zM418 803q0 -26 -17.5 -43t-42.5 -17t-42 17t-17 43q0 25 17 42t42 17t42.5 -17t17.5 -42z" />
    <glyph glyph-name="Igrave" unicode="&#xcc;" horiz-adv-x="241" 
d="M189 0h-142v667q0 10 10.5 15.5t24.5 8.5q16 4 36 4q19 0 35 -3q14 -2 25 -8t11 -17v-667zM-2 777q-3 1 -7 4q-8 6 -7 17q3 35 13.5 54t16.5 27q5 6 15 6q4 0 9 -2l222 -83l-22 -77l-240 54v0z" />
    <glyph glyph-name="Iacute" unicode="&#xcd;" horiz-adv-x="241" 
d="M189 0h-142v667q0 10 10.5 15.5t24.5 8.5q16 4 36 4q19 0 35 -3q14 -2 25 -8t11 -17v-667zM245 777l-240 -54l-22 77l222 83q5 2 9 2q9 0 15 -6q6 -8 16.5 -27t13.5 -54q0 -12 -7 -17q-4 -3 -7 -4z" />
    <glyph glyph-name="Icircumflex" unicode="&#xce;" horiz-adv-x="241" 
d="M189 0h-142v667q0 10 10.5 15.5t24.5 8.5q16 4 36 4q19 0 35 -3q14 -2 25 -8t11 -17v-667zM33 756q-8 -9 -19 -9q-5 0 -10 1q-22 7 -35.5 21t-19.5 23q-2 3 -3 7q-2 8 4 15l134 133h77l134 -133q6 -7 4 -15q-1 -4 -3 -7q-6 -9 -20.5 -23t-35.5 -21q-6 -1 -10 -1
q-10 0 -18 9l-90 99z" />
    <glyph glyph-name="Idieresis" unicode="&#xcf;" horiz-adv-x="241" 
d="M189 0h-142v667q0 10 10.5 15.5t24.5 8.5q16 4 36 4q19 0 35 -3q14 -2 25 -8t11 -17v-667zM105 806q0 -26 -17.5 -43t-42.5 -17t-42 17t-17 43q0 25 17 42t42 17t42.5 -17t17.5 -42zM258 806q0 -26 -17.5 -43t-42.5 -17t-42 17t-17 43q0 25 17 42t42 17t42.5 -17
t17.5 -42z" />
    <glyph glyph-name="Ograve" unicode="&#xd2;" horiz-adv-x="772" 
d="M383 705q76 1 139 -24t108.5 -73t70.5 -116.5t25 -153.5q0 -81 -23.5 -145.5t-68 -110t-108 -70.5t-143.5 -25q-78 0 -140.5 24t-107 69t-68.5 110t-24 146q0 84 25 152t70 116t107.5 74.5t137.5 26.5zM385 116q44 -1 80.5 14t63 44t41 71.5t14.5 98.5q0 51 -13 94
t-38.5 73.5t-62.5 47t-85 16.5q-46 0 -83 -17t-63 -47.5t-40 -73t-14 -93.5q0 -112 53 -169t147 -59zM262 787q-3 1 -7 4q-8 6 -7 17q3 35 13.5 54t16.5 27q5 6 15 6q4 0 9 -2l222 -83l-22 -77l-240 54v0z" />
    <glyph glyph-name="Oacute" unicode="&#xd3;" horiz-adv-x="772" 
d="M383 705q76 1 139 -24t108.5 -73t70.5 -116.5t25 -153.5q0 -81 -23.5 -145.5t-68 -110t-108 -70.5t-143.5 -25q-78 0 -140.5 24t-107 69t-68.5 110t-24 146q0 84 25 152t70 116t107.5 74.5t137.5 26.5zM385 116q44 -1 80.5 14t63 44t41 71.5t14.5 98.5q0 51 -13 94
t-38.5 73.5t-62.5 47t-85 16.5q-46 0 -83 -17t-63 -47.5t-40 -73t-14 -93.5q0 -112 53 -169t147 -59zM509 791l-240 -54l-22 77l222 83q5 2 9 2q9 0 15 -6q6 -8 16.5 -27t13.5 -54q0 -12 -7 -17q-4 -3 -7 -4z" />
    <glyph glyph-name="Ocircumflex" unicode="&#xd4;" horiz-adv-x="772" 
d="M383 705q76 1 139 -24t108.5 -73t70.5 -116.5t25 -153.5q0 -81 -23.5 -145.5t-68 -110t-108 -70.5t-143.5 -25q-78 0 -140.5 24t-107 69t-68.5 110t-24 146q0 84 25 152t70 116t107.5 74.5t137.5 26.5zM385 116q44 -1 80.5 14t63 44t41 71.5t14.5 98.5q0 51 -13 94
t-38.5 73.5t-62.5 47t-85 16.5q-46 0 -83 -17t-63 -47.5t-40 -73t-14 -93.5q0 -112 53 -169t147 -59zM297 745q-8 -9 -19 -9q-5 0 -10 1q-22 7 -35.5 21t-19.5 23q-2 3 -3 7q-2 8 4 15l134 133h77l134 -133q6 -7 4 -15q-1 -4 -3 -7q-6 -9 -20.5 -23t-35.5 -21q-6 -1 -10 -1
q-10 0 -18 9l-90 99z" />
    <glyph glyph-name="Odieresis" unicode="&#xd6;" horiz-adv-x="772" 
d="M383 705q76 1 139 -24t108.5 -73t70.5 -116.5t25 -153.5q0 -81 -23.5 -145.5t-68 -110t-108 -70.5t-143.5 -25q-78 0 -140.5 24t-107 69t-68.5 110t-24 146q0 84 25 152t70 116t107.5 74.5t137.5 26.5zM385 116q44 -1 80.5 14t63 44t41 71.5t14.5 98.5q0 51 -13 94
t-38.5 73.5t-62.5 47t-85 16.5q-46 0 -83 -17t-63 -47.5t-40 -73t-14 -93.5q0 -112 53 -169t147 -59zM369 802q0 -26 -17.5 -43t-42.5 -17t-42 17t-17 43q0 25 17 42t42 17t42.5 -17t17.5 -42zM522 802q0 -26 -17.5 -43t-42.5 -17t-42 17t-17 43q0 25 17 42t42 17t42.5 -17
t17.5 -42z" />
    <glyph glyph-name="Ugrave" unicode="&#xd9;" horiz-adv-x="665" 
d="M543 695q21 0 39 -3q14 -2 26.5 -8t12.5 -17v-358q0 -80 -16 -139.5t-50.5 -99.5t-88 -60t-129.5 -20q-78 0 -133 20.5t-89.5 60.5t-50 98.5t-15.5 135.5v362q0 9 7 14q4 3 8 4q12 5 29 7.5t34 2.5t32 -3t23 -7q3 -2 6 -5q6 -6 6 -13v-355q0 -52 8.5 -87.5t26 -58
t44.5 -32.5t65 -10q40 0 66 14t41 39.5t20.5 59.5t5.5 75l1 355q0 11 10.5 17t24.5 8q16 3 36 3zM209 786q-3 1 -7 4q-8 6 -7 17q3 35 13.5 54t16.5 27q5 6 15 6q4 0 9 -2l222 -83l-22 -77l-240 54v0z" />
    <glyph glyph-name="Uacute" unicode="&#xda;" horiz-adv-x="665" 
d="M543 695q21 0 39 -3q14 -2 26.5 -8t12.5 -17v-358q0 -80 -16 -139.5t-50.5 -99.5t-88 -60t-129.5 -20q-78 0 -133 20.5t-89.5 60.5t-50 98.5t-15.5 135.5v362q0 9 7 14q4 3 8 4q12 5 29 7.5t34 2.5t32 -3t23 -7q3 -2 6 -5q6 -6 6 -13v-355q0 -52 8.5 -87.5t26 -58
t44.5 -32.5t65 -10q40 0 66 14t41 39.5t20.5 59.5t5.5 75l1 355q0 11 10.5 17t24.5 8q16 3 36 3zM456 783l-240 -54l-22 77l222 83q5 2 9 2q9 0 15 -6q6 -8 16.5 -27t13.5 -54q0 -12 -7 -17q-4 -3 -7 -4z" />
    <glyph glyph-name="Ucircumflex" unicode="&#xdb;" horiz-adv-x="665" 
d="M543 695q21 0 39 -3q14 -2 26.5 -8t12.5 -17v-358q0 -80 -16 -139.5t-50.5 -99.5t-88 -60t-129.5 -20q-78 0 -133 20.5t-89.5 60.5t-50 98.5t-15.5 135.5v362q0 9 7 14q4 3 8 4q12 5 29 7.5t34 2.5t32 -3t23 -7q3 -2 6 -5q6 -6 6 -13v-355q0 -52 8.5 -87.5t26 -58
t44.5 -32.5t65 -10q40 0 66 14t41 39.5t20.5 59.5t5.5 75l1 355q0 11 10.5 17t24.5 8q16 3 36 3zM243 747q-8 -9 -19 -9q-5 0 -10 1q-22 7 -35.5 21t-19.5 23q-2 3 -3 7q-2 8 4 15l134 133h77l134 -133q6 -7 4 -15q-1 -4 -3 -7q-6 -9 -20.5 -23t-35.5 -21q-6 -1 -10 -1
q-10 0 -18 9l-90 99z" />
    <glyph glyph-name="Udieresis" unicode="&#xdc;" horiz-adv-x="665" 
d="M543 695q21 0 39 -3q14 -2 26.5 -8t12.5 -17v-358q0 -80 -16 -139.5t-50.5 -99.5t-88 -60t-129.5 -20q-78 0 -133 20.5t-89.5 60.5t-50 98.5t-15.5 135.5v362q0 9 7 14q4 3 8 4q12 5 29 7.5t34 2.5t32 -3t23 -7q3 -2 6 -5q6 -6 6 -13v-355q0 -52 8.5 -87.5t26 -58
t44.5 -32.5t65 -10q40 0 66 14t41 39.5t20.5 59.5t5.5 75l1 355q0 11 10.5 17t24.5 8q16 3 36 3zM315 799q0 -26 -17.5 -43t-42.5 -17t-42 17t-17 43q0 25 17 42t42 17t42.5 -17t17.5 -42zM468 799q0 -26 -17.5 -43t-42.5 -17t-42 17t-17 43q0 25 17 42t42 17t42.5 -17
t17.5 -42z" />
    <glyph glyph-name="Yacute" unicode="&#xdd;" horiz-adv-x="693" 
d="M45 621q-4 6 -2 14q1 4 2 6q5 8 15 17.5t22.5 18t26.5 15t29 9.5q5 1 10 0t9.5 -3t7.5 -7l175 -296l181 306q5 8 15 10q4 1 10 0q12 -1 27 -7.5t28.5 -15t24.5 -18.5t16 -19q2 -2 3 -6q1 -6 -3 -15l-231 -389v-241h-142v241q-57 95 -112 190t-112 190zM470 789l-240 -54
l-22 77l222 83q5 2 9 2q9 0 15 -6q6 -8 16.5 -27t13.5 -54q0 -12 -7 -17q-4 -3 -7 -4z" />
    <glyph glyph-name="agrave" unicode="&#xe0;" horiz-adv-x="526" 
d="M494 0h-137v54q-16 -33 -48 -46.5t-69 -13.5q-41 0 -78 16t-65 47.5t-44 79t-16 110.5v5q0 72 21.5 119.5t53 76.5t66.5 41t62 12q35 0 67.5 -14t49.5 -42v28q0 10 10.5 15.5t23.5 8.5q15 4 35 4q19 0 34 -3q13 -2 23.5 -8t10.5 -17v-473zM175 242q0 -35 9 -57t23.5 -34
t31.5 -16t33 -4q19 0 42.5 11.5t42.5 30.5v154q-9 11 -21 19.5t-25 14t-25.5 8t-21.5 2.5q-11 0 -26 -4t-29 -17t-24 -37t-10 -63v-8zM139 589q-3 1 -7 4q-8 6 -7 17q3 35 13.5 54t16.5 27q5 6 15 6q4 0 9 -2l222 -83l-22 -77l-240 54v0z" />
    <glyph glyph-name="aacute" unicode="&#xe1;" horiz-adv-x="526" 
d="M494 0h-137v54q-16 -33 -48 -46.5t-69 -13.5q-41 0 -78 16t-65 47.5t-44 79t-16 110.5v5q0 72 21.5 119.5t53 76.5t66.5 41t62 12q35 0 67.5 -14t49.5 -42v28q0 10 10.5 15.5t23.5 8.5q15 4 35 4q19 0 34 -3q13 -2 23.5 -8t10.5 -17v-473zM175 242q0 -35 9 -57t23.5 -34
t31.5 -16t33 -4q19 0 42.5 11.5t42.5 30.5v154q-9 11 -21 19.5t-25 14t-25.5 8t-21.5 2.5q-11 0 -26 -4t-29 -17t-24 -37t-10 -63v-8zM386 576l-240 -54l-22 77l222 83q5 2 9 2q9 0 15 -6q6 -8 16.5 -27t13.5 -54q0 -12 -7 -17q-4 -3 -7 -4z" />
    <glyph glyph-name="acircumflex" unicode="&#xe2;" horiz-adv-x="526" 
d="M494 0h-137v54q-16 -33 -48 -46.5t-69 -13.5q-41 0 -78 16t-65 47.5t-44 79t-16 110.5v5q0 72 21.5 119.5t53 76.5t66.5 41t62 12q35 0 67.5 -14t49.5 -42v28q0 10 10.5 15.5t23.5 8.5q15 4 35 4q19 0 34 -3q13 -2 23.5 -8t10.5 -17v-473zM175 242q0 -35 9 -57t23.5 -34
t31.5 -16t33 -4q19 0 42.5 11.5t42.5 30.5v154q-9 11 -21 19.5t-25 14t-25.5 8t-21.5 2.5q-11 0 -26 -4t-29 -17t-24 -37t-10 -63v-8zM194 553q-8 -9 -19 -9q-5 0 -10 1q-22 7 -35.5 21t-19.5 23q-2 3 -3 7q-2 8 4 15l134 133h77l134 -133q6 -7 4 -15q-1 -4 -3 -7
q-6 -9 -20.5 -23t-35.5 -21q-6 -1 -10 -1q-10 0 -18 9l-90 99z" />
    <glyph glyph-name="adieresis" unicode="&#xe4;" horiz-adv-x="526" 
d="M494 0h-137v54q-16 -33 -48 -46.5t-69 -13.5q-41 0 -78 16t-65 47.5t-44 79t-16 110.5v5q0 72 21.5 119.5t53 76.5t66.5 41t62 12q35 0 67.5 -14t49.5 -42v28q0 10 10.5 15.5t23.5 8.5q15 4 35 4q19 0 34 -3q13 -2 23.5 -8t10.5 -17v-473zM175 242q0 -35 9 -57t23.5 -34
t31.5 -16t33 -4q19 0 42.5 11.5t42.5 30.5v154q-9 11 -21 19.5t-25 14t-25.5 8t-21.5 2.5q-11 0 -26 -4t-29 -17t-24 -37t-10 -63v-8zM266 616q0 -26 -17.5 -43t-42.5 -17t-42 17t-17 43q0 25 17 42t42 17t42.5 -17t17.5 -42zM419 616q0 -26 -17.5 -43t-42.5 -17t-42 17
t-17 43q0 25 17 42t42 17t42.5 -17t17.5 -42z" />
    <glyph glyph-name="aring" unicode="&#xe5;" horiz-adv-x="526" 
d="M494 0h-137v54q-16 -33 -48 -46.5t-69 -13.5q-41 0 -78 16t-65 47.5t-44 79t-16 110.5v5q0 72 21.5 119.5t53 76.5t66.5 41t62 12q35 0 67.5 -14t49.5 -42v28q0 10 10.5 15.5t23.5 8.5q15 4 35 4q19 0 34 -3q13 -2 23.5 -8t10.5 -17v-473zM175 242q0 -35 9 -57t23.5 -34
t31.5 -16t33 -4q19 0 42.5 11.5t42.5 30.5v154q-9 11 -21 19.5t-25 14t-25.5 8t-21.5 2.5q-11 0 -26 -4t-29 -17t-24 -37t-10 -63v-8zM417 659q0 -26 -9.5 -48.5t-26 -39t-39 -26t-47.5 -9.5t-47 9.5t-38 26t-25.5 39t-9.5 48.5q0 25 9.5 46.5t25.5 37.5t38 25.5t47 9.5
t47.5 -9.5t39 -25.5t26 -37.5t9.5 -46.5zM356 659q0 23 -17.5 40t-40.5 17q-24 0 -41 -17t-17 -40q0 -25 17 -42t41 -17q23 0 40.5 17t17.5 42z" />
    <glyph glyph-name="egrave" unicode="&#xe8;" 
d="M288 104q34 0 59.5 16t36.5 30q7 8 16 8q4 0 9 -1q15 -6 32 -22t26 -37q2 -5 1.5 -9t-1.5 -7q-1 -4 -3 -7q-8 -11 -21.5 -26t-35.5 -28.5t-51.5 -23t-68.5 -9.5q-56 0 -102 16.5t-78.5 49.5t-50.5 81.5t-18 111.5v5q0 61 21.5 108t56 79t76 48t82.5 16q54 0 94 -20
t66.5 -57t40 -89.5t13.5 -117.5q0 -9 -4 -15q-3 -5 -11 -9.5t-23 -4.5h-267q2 -26 12.5 -42.5t25.5 -26t32.5 -13.5t34.5 -4zM274 380q-40 0 -68 -23t-28 -71h175q0 23 -7 40.5t-18.5 29.5t-25.5 18t-28 6zM158 596q-3 1 -7 4q-8 6 -7 17q3 35 13.5 54t16.5 27q5 6 15 6
q4 0 9 -2l222 -83l-22 -77l-240 54v0z" />
    <glyph glyph-name="eacute" unicode="&#xe9;" 
d="M288 104q34 0 59.5 16t36.5 30q7 8 16 8q4 0 9 -1q15 -6 32 -22t26 -37q2 -5 1.5 -9t-1.5 -7q-1 -4 -3 -7q-8 -11 -21.5 -26t-35.5 -28.5t-51.5 -23t-68.5 -9.5q-56 0 -102 16.5t-78.5 49.5t-50.5 81.5t-18 111.5v5q0 61 21.5 108t56 79t76 48t82.5 16q54 0 94 -20
t66.5 -57t40 -89.5t13.5 -117.5q0 -9 -4 -15q-3 -5 -11 -9.5t-23 -4.5h-267q2 -26 12.5 -42.5t25.5 -26t32.5 -13.5t34.5 -4zM274 380q-40 0 -68 -23t-28 -71h175q0 23 -7 40.5t-18.5 29.5t-25.5 18t-28 6zM395 576l-240 -54l-22 77l222 83q5 2 9 2q9 0 15 -6q6 -8 16.5 -27
t13.5 -54q0 -12 -7 -17q-4 -3 -7 -4z" />
    <glyph glyph-name="ecircumflex" unicode="&#xea;" 
d="M288 104q34 0 59.5 16t36.5 30q7 8 16 8q4 0 9 -1q15 -6 32 -22t26 -37q2 -5 1.5 -9t-1.5 -7q-1 -4 -3 -7q-8 -11 -21.5 -26t-35.5 -28.5t-51.5 -23t-68.5 -9.5q-56 0 -102 16.5t-78.5 49.5t-50.5 81.5t-18 111.5v5q0 61 21.5 108t56 79t76 48t82.5 16q54 0 94 -20
t66.5 -57t40 -89.5t13.5 -117.5q0 -9 -4 -15q-3 -5 -11 -9.5t-23 -4.5h-267q2 -26 12.5 -42.5t25.5 -26t32.5 -13.5t34.5 -4zM274 380q-40 0 -68 -23t-28 -71h175q0 23 -7 40.5t-18.5 29.5t-25.5 18t-28 6zM182 539q-8 -9 -19 -9q-5 0 -10 1q-22 7 -35.5 21t-19.5 23
q-2 3 -3 7q-2 8 4 15l134 133h77l134 -133q6 -7 4 -15q-1 -4 -3 -7q-6 -9 -20.5 -23t-35.5 -21q-6 -1 -10 -1q-10 0 -18 9l-90 99z" />
    <glyph glyph-name="edieresis" unicode="&#xeb;" 
d="M288 104q34 0 59.5 16t36.5 30q7 8 16 8q4 0 9 -1q15 -6 32 -22t26 -37q2 -5 1.5 -9t-1.5 -7q-1 -4 -3 -7q-8 -11 -21.5 -26t-35.5 -28.5t-51.5 -23t-68.5 -9.5q-56 0 -102 16.5t-78.5 49.5t-50.5 81.5t-18 111.5v5q0 61 21.5 108t56 79t76 48t82.5 16q54 0 94 -20
t66.5 -57t40 -89.5t13.5 -117.5q0 -9 -4 -15q-3 -5 -11 -9.5t-23 -4.5h-267q2 -26 12.5 -42.5t25.5 -26t32.5 -13.5t34.5 -4zM274 380q-40 0 -68 -23t-28 -71h175q0 23 -7 40.5t-18.5 29.5t-25.5 18t-28 6zM263 606q0 -26 -17.5 -43t-42.5 -17t-42 17t-17 43q0 25 17 42
t42 17t42.5 -17t17.5 -42zM416 606q0 -26 -17.5 -43t-42.5 -17t-42 17t-17 43q0 25 17 42t42 17t42.5 -17t17.5 -42z" />
    <glyph glyph-name="igrave" unicode="&#xec;" horiz-adv-x="250" 
d="M195 0h-137v473q0 10 10.5 15.5t23.5 8.5q15 4 35 4q19 0 34 -3q13 -2 23.5 -8t10.5 -17v-473zM3 596q-3 1 -7 4q-8 6 -7 17q3 35 13.5 54t16.5 27q5 6 15 6q4 0 9 -2l222 -83l-22 -77l-240 54v0z" />
    <glyph glyph-name="iacute" unicode="&#xed;" horiz-adv-x="250" 
d="M195 0h-137v473q0 10 10.5 15.5t23.5 8.5q15 4 35 4q19 0 34 -3q13 -2 23.5 -8t10.5 -17v-473zM258 588l-240 -54l-22 77l222 83q5 2 9 2q9 0 15 -6q6 -8 16.5 -27t13.5 -54q0 -12 -7 -17q-4 -3 -7 -4z" />
    <glyph glyph-name="icircumflex" unicode="&#xee;" horiz-adv-x="250" 
d="M195 0h-137v473q0 10 10.5 15.5t23.5 8.5q15 4 35 4q19 0 34 -3q13 -2 23.5 -8t10.5 -17v-473zM37 532q-8 -9 -19 -9q-5 0 -10 1q-22 7 -35.5 21t-19.5 23q-2 3 -3 7q-2 8 4 15l134 133h77l134 -133q6 -7 4 -15q-1 -4 -3 -7q-6 -9 -20.5 -23t-35.5 -21q-6 -1 -10 -1
q-10 0 -18 9l-90 99z" />
    <glyph glyph-name="idieresis" unicode="&#xef;" horiz-adv-x="250" 
d="M195 0h-137v473q0 10 10.5 15.5t23.5 8.5q15 4 35 4q19 0 34 -3q13 -2 23.5 -8t10.5 -17v-473zM109 601q0 -26 -17.5 -43t-42.5 -17t-42 17t-17 43q0 25 17 42t42 17t42.5 -17t17.5 -42zM262 601q0 -26 -17.5 -43t-42.5 -17t-42 17t-17 43q0 25 17 42t42 17t42.5 -17
t17.5 -42z" />
    <glyph glyph-name="ograve" unicode="&#xf2;" horiz-adv-x="591" 
d="M290 508q55 1 100.5 -17.5t78.5 -53t51 -84t18 -110.5q0 -58 -17 -104.5t-49 -79.5t-78 -50.5t-104 -17.5q-55 0 -100 17t-77 50t-49.5 79.5t-17.5 104.5q0 60 18 109.5t50.5 84t77.5 53.5t98 19zM291 107q50 -1 81.5 37t31.5 99q0 29 -7.5 54.5t-22 44.5t-35.5 30
t-48 11q-25 0 -45.5 -11t-35 -30t-22.5 -44.5t-8 -54.5q0 -61 30 -97.5t81 -38.5zM172 596q-3 1 -7 4q-8 6 -7 17q3 35 13.5 54t16.5 27q5 6 15 6q4 0 9 -2l222 -83l-22 -77l-240 54v0z" />
    <glyph glyph-name="oacute" unicode="&#xf3;" horiz-adv-x="591" 
d="M290 508q55 1 100.5 -17.5t78.5 -53t51 -84t18 -110.5q0 -58 -17 -104.5t-49 -79.5t-78 -50.5t-104 -17.5q-55 0 -100 17t-77 50t-49.5 79.5t-17.5 104.5q0 60 18 109.5t50.5 84t77.5 53.5t98 19zM291 107q50 -1 81.5 37t31.5 99q0 29 -7.5 54.5t-22 44.5t-35.5 30
t-48 11q-25 0 -45.5 -11t-35 -30t-22.5 -44.5t-8 -54.5q0 -61 30 -97.5t81 -38.5zM419 592l-240 -54l-22 77l222 83q5 2 9 2q9 0 15 -6q6 -8 16.5 -27t13.5 -54q0 -12 -7 -17q-4 -3 -7 -4z" />
    <glyph glyph-name="ocircumflex" unicode="&#xf4;" horiz-adv-x="591" 
d="M290 508q55 1 100.5 -17.5t78.5 -53t51 -84t18 -110.5q0 -58 -17 -104.5t-49 -79.5t-78 -50.5t-104 -17.5q-55 0 -100 17t-77 50t-49.5 79.5t-17.5 104.5q0 60 18 109.5t50.5 84t77.5 53.5t98 19zM291 107q50 -1 81.5 37t31.5 99q0 29 -7.5 54.5t-22 44.5t-35.5 30
t-48 11q-25 0 -45.5 -11t-35 -30t-22.5 -44.5t-8 -54.5q0 -61 30 -97.5t81 -38.5zM206 540q-8 -9 -19 -9q-5 0 -10 1q-22 7 -35.5 21t-19.5 23q-2 3 -3 7q-2 8 4 15l134 133h77l134 -133q6 -7 4 -15q-1 -4 -3 -7q-6 -9 -20.5 -23t-35.5 -21q-6 -1 -10 -1q-10 0 -18 9l-90 99
z" />
    <glyph glyph-name="odieresis" unicode="&#xf6;" horiz-adv-x="591" 
d="M290 508q55 1 100.5 -17.5t78.5 -53t51 -84t18 -110.5q0 -58 -17 -104.5t-49 -79.5t-78 -50.5t-104 -17.5q-55 0 -100 17t-77 50t-49.5 79.5t-17.5 104.5q0 60 18 109.5t50.5 84t77.5 53.5t98 19zM291 107q50 -1 81.5 37t31.5 99q0 29 -7.5 54.5t-22 44.5t-35.5 30
t-48 11q-25 0 -45.5 -11t-35 -30t-22.5 -44.5t-8 -54.5q0 -61 30 -97.5t81 -38.5zM278 614q0 -26 -17.5 -43t-42.5 -17t-42 17t-17 43q0 25 17 42t42 17t42.5 -17t17.5 -42zM431 614q0 -26 -17.5 -43t-42.5 -17t-42 17t-17 43q0 25 17 42t42 17t42.5 -17t17.5 -42z" />
    <glyph glyph-name="ugrave" unicode="&#xf9;" horiz-adv-x="541" 
d="M353 0v50q-17 -27 -48 -41.5t-64 -14.5q-47 0 -79.5 12.5t-53.5 32.5t-32 44t-16 47t-6 42.5t-1 29.5v270q0 10 10.5 15.5t23.5 8.5q15 4 35 4q19 0 34 -3q13 -2 23.5 -8t10.5 -17v-242q0 -36 8.5 -55.5t20 -29t22 -11.5t14.5 -2q15 -1 30.5 3.5t29 11.5t23.5 15t15 14
v296q0 10 10.5 15.5t23.5 8.5q15 4 35 4q19 0 34 -3q13 -2 23.5 -8t10.5 -17v-472h-137zM147 586q-3 1 -7 4q-8 6 -7 17q3 35 13.5 54t16.5 27q5 6 15 6q4 0 9 -2l222 -83l-22 -77l-240 54v0z" />
    <glyph glyph-name="uacute" unicode="&#xfa;" horiz-adv-x="541" 
d="M353 0v50q-17 -27 -48 -41.5t-64 -14.5q-47 0 -79.5 12.5t-53.5 32.5t-32 44t-16 47t-6 42.5t-1 29.5v270q0 10 10.5 15.5t23.5 8.5q15 4 35 4q19 0 34 -3q13 -2 23.5 -8t10.5 -17v-242q0 -36 8.5 -55.5t20 -29t22 -11.5t14.5 -2q15 -1 30.5 3.5t29 11.5t23.5 15t15 14
v296q0 10 10.5 15.5t23.5 8.5q15 4 35 4q19 0 34 -3q13 -2 23.5 -8t10.5 -17v-472h-137zM394 580l-240 -54l-22 77l222 83q5 2 9 2q9 0 15 -6q6 -8 16.5 -27t13.5 -54q0 -12 -7 -17q-4 -3 -7 -4z" />
    <glyph glyph-name="ucircumflex" unicode="&#xfb;" horiz-adv-x="541" 
d="M353 0v50q-17 -27 -48 -41.5t-64 -14.5q-47 0 -79.5 12.5t-53.5 32.5t-32 44t-16 47t-6 42.5t-1 29.5v270q0 10 10.5 15.5t23.5 8.5q15 4 35 4q19 0 34 -3q13 -2 23.5 -8t10.5 -17v-242q0 -36 8.5 -55.5t20 -29t22 -11.5t14.5 -2q15 -1 30.5 3.5t29 11.5t23.5 15t15 14
v296q0 10 10.5 15.5t23.5 8.5q15 4 35 4q19 0 34 -3q13 -2 23.5 -8t10.5 -17v-472h-137zM181 556q-8 -9 -19 -9q-5 0 -10 1q-22 7 -35.5 21t-19.5 23q-2 3 -3 7q-2 8 4 15l134 133h77l134 -133q6 -7 4 -15q-1 -4 -3 -7q-6 -9 -20.5 -23t-35.5 -21q-6 -1 -10 -1q-10 0 -18 9
l-90 99z" />
    <glyph glyph-name="udieresis" unicode="&#xfc;" horiz-adv-x="541" 
d="M353 0v50q-17 -27 -48 -41.5t-64 -14.5q-47 0 -79.5 12.5t-53.5 32.5t-32 44t-16 47t-6 42.5t-1 29.5v270q0 10 10.5 15.5t23.5 8.5q15 4 35 4q19 0 34 -3q13 -2 23.5 -8t10.5 -17v-242q0 -36 8.5 -55.5t20 -29t22 -11.5t14.5 -2q15 -1 30.5 3.5t29 11.5t23.5 15t15 14
v296q0 10 10.5 15.5t23.5 8.5q15 4 35 4q19 0 34 -3q13 -2 23.5 -8t10.5 -17v-472h-137zM253 595q0 -26 -17.5 -43t-42.5 -17t-42 17t-17 43q0 25 17 42t42 17t42.5 -17t17.5 -42zM406 595q0 -26 -17.5 -43t-42.5 -17t-42 17t-17 43q0 25 17 42t42 17t42.5 -17t17.5 -42z
" />
    <glyph glyph-name="yacute" unicode="&#xfd;" horiz-adv-x="644" 
d="M186 -210l115 285q-51 87 -101 173t-102 173q-4 6 -2 14q1 4 2 6q10 16 34 34.5t53 23.5q5 1 10 0t9.5 -3t7.5 -7l151 -258l105 256q3 9 14.5 11t25.5 0q15 -2 34 -7q19 -6 32 -13q11 -6 19.5 -15t4.5 -20l-268 -653h-144zM460 584l-240 -54l-22 77l222 83q5 2 9 2
q9 0 15 -6q6 -8 16.5 -27t13.5 -54q0 -12 -7 -17q-4 -3 -7 -4z" />
    <glyph glyph-name="ydieresis" unicode="&#xff;" horiz-adv-x="644" 
d="M186 -210l115 285q-51 87 -101 173t-102 173q-4 6 -2 14q1 4 2 6q10 16 34 34.5t53 23.5q5 1 10 0t9.5 -3t7.5 -7l151 -258l105 256q3 9 14.5 11t25.5 0q15 -2 34 -7q19 -6 32 -13q11 -6 19.5 -15t4.5 -20l-268 -653h-144zM332 601q0 -26 -17.5 -43t-42.5 -17t-42 17
t-17 43q0 25 17 42t42 17t42.5 -17t17.5 -42zM485 601q0 -26 -17.5 -43t-42.5 -17t-42 17t-17 43q0 25 17 42t42 17t42.5 -17t17.5 -42z" />
    <glyph glyph-name="Eth" unicode="&#xd0;" horiz-adv-x="664" 
d="M67 0v291h-74q-12 0 -18 9.5t-9 20.5q-4 13 -3 30q0 16 3 29q2 11 8 20t17 9h76v285h237q73 0 130.5 -21t98 -63.5t62 -108t21.5 -155.5q0 -76 -19.5 -139.5t-59 -109.5t-99.5 -71.5t-141 -25.5h-230zM296 409q11 0 17.5 -9t9.5 -20q4 -13 3 -29q0 -17 -4 -30
q-3 -11 -9.5 -20.5t-18.5 -9.5h-85v-167h88q48 0 81.5 16t54.5 45t30.5 71t9.5 94q0 49 -9.5 89.5t-30.5 69.5t-54.5 45.5t-81.5 16.5h-88v-162h87z" />
    <glyph glyph-name="tilde" unicode="&#x2dc;" horiz-adv-x="450" 
d="M273 629q14 0 22.5 7t13.5 16.5t7 19t4 13.5q2 5 5.5 6t6.5 2h8q8 -2 29 -8.5t36 -22.5q2 -3 4 -7q3 -8 -1 -19q-3 -8 -11.5 -24t-23.5 -33t-37.5 -29.5t-54.5 -12.5q-24 0 -41 11t-29.5 24.5t-23 25t-21.5 11.5q-14 0 -22.5 -7t-13.5 -16.5t-7.5 -19t-3.5 -13.5
q-5 -9 -12 -9q-4 -1 -8 1q-8 2 -29 8.5t-36 22.5q-2 3 -4 7q-4 8 1 19q3 7 11.5 23.5t23.5 33.5t37.5 29.5t55.5 12.5q22 0 38 -11.5t29 -25t24 -24.5t23 -11z" />
    <glyph glyph-name="Ntilde" unicode="&#xd1;" horiz-adv-x="704" 
d="M658 667v-667h-144l-319 461v-461h-135v665q0 9 6 15q3 3 7 4q15 8 49 10t70 -9q5 -2 9 -5q4 -2 8.5 -6t7.5 -9l302 -432v434q0 10 10 15.5t23 8.5q15 4 34 4q20 0 36 -3q14 -2 25 -8t11 -17zM405 829q14 0 22.5 7t13.5 16.5t7 19t4 13.5q2 5 5.5 6t6.5 2h8q8 -2 29 -8.5
t36 -22.5q2 -3 4 -7q3 -8 -1 -19q-3 -8 -11.5 -24t-23.5 -33t-37.5 -29.5t-54.5 -12.5q-24 0 -41 11t-29.5 24.5t-23 25t-21.5 11.5q-14 0 -22.5 -7t-13.5 -16.5t-7.5 -19t-3.5 -13.5q-5 -9 -12 -9q-4 -1 -8 1q-8 2 -29 8.5t-36 22.5q-2 3 -4 7q-4 8 1 19q3 7 11.5 23.5
t23.5 33.5t37.5 29.5t55.5 12.5q22 0 38 -11.5t29 -25t24 -24.5t23 -11z" />
    <glyph glyph-name="Otilde" unicode="&#xd5;" horiz-adv-x="772" 
d="M383 705q76 1 139 -24t108.5 -73t70.5 -116.5t25 -153.5q0 -81 -23.5 -145.5t-68 -110t-108 -70.5t-143.5 -25q-78 0 -140.5 24t-107 69t-68.5 110t-24 146q0 84 25 152t70 116t107.5 74.5t137.5 26.5zM385 116q44 -1 80.5 14t63 44t41 71.5t14.5 98.5q0 51 -13 94
t-38.5 73.5t-62.5 47t-85 16.5q-46 0 -83 -17t-63 -47.5t-40 -73t-14 -93.5q0 -112 53 -169t147 -59zM439 851q14 0 22.5 7t13.5 16.5t7 19t4 13.5q2 5 5.5 6t6.5 2h8q8 -2 29 -8.5t36 -22.5q2 -3 4 -7q3 -8 -1 -19q-3 -8 -11.5 -24t-23.5 -33t-37.5 -29.5t-54.5 -12.5
q-24 0 -41 11t-29.5 24.5t-23 25t-21.5 11.5q-14 0 -22.5 -7t-13.5 -16.5t-7.5 -19t-3.5 -13.5q-5 -9 -12 -9q-4 -1 -8 1q-8 2 -29 8.5t-36 22.5q-2 3 -4 7q-4 8 1 19q3 7 11.5 23.5t23.5 33.5t37.5 29.5t55.5 12.5q22 0 38 -11.5t29 -25t24 -24.5t23 -11z" />
    <glyph glyph-name="atilde" unicode="&#xe3;" horiz-adv-x="526" 
d="M494 0h-137v54q-16 -33 -48 -46.5t-69 -13.5q-41 0 -78 16t-65 47.5t-44 79t-16 110.5v5q0 72 21.5 119.5t53 76.5t66.5 41t62 12q35 0 67.5 -14t49.5 -42v28q0 10 10.5 15.5t23.5 8.5q15 4 35 4q19 0 34 -3q13 -2 23.5 -8t10.5 -17v-473zM175 242q0 -35 9 -57t23.5 -34
t31.5 -16t33 -4q19 0 42.5 11.5t42.5 30.5v154q-9 11 -21 19.5t-25 14t-25.5 8t-21.5 2.5q-11 0 -26 -4t-29 -17t-24 -37t-10 -63v-8zM337 629q14 0 22.5 7t13.5 16.5t7 19t4 13.5q2 5 5.5 6t6.5 2h8q8 -2 29 -8.5t36 -22.5q2 -3 4 -7q3 -8 -1 -19q-3 -8 -11.5 -24
t-23.5 -33t-37.5 -29.5t-54.5 -12.5q-24 0 -41 11t-29.5 24.5t-23 25t-21.5 11.5q-14 0 -22.5 -7t-13.5 -16.5t-7.5 -19t-3.5 -13.5q-5 -9 -12 -9q-4 -1 -8 1q-8 2 -29 8.5t-36 22.5q-2 3 -4 7q-4 8 1 19q3 7 11.5 23.5t23.5 33.5t37.5 29.5t55.5 12.5q22 0 38 -11.5t29 -25
t24 -24.5t23 -11z" />
    <glyph glyph-name="ntilde" unicode="&#xf1;" horiz-adv-x="533" 
d="M186 0h-137v474q0 10 10.5 16t23.5 8q15 3 35 3q19 1 34 -2q13 -2 23.5 -8t10.5 -17v-10q18 14 49.5 25t62.5 11q47 0 79.5 -12.5t54 -32.5t33 -44t17 -47t6.5 -42.5t1 -29.5l1 -292h-141v274q0 36 -8.5 55.5t-20 29t-22 11.5t-14.5 2q-15 1 -30.5 -3.5t-29 -11.5
t-23.5 -15t-15 -14v-328zM320 629q14 0 22.5 7t13.5 16.5t7 19t4 13.5q2 5 5.5 6t6.5 2h8q8 -2 29 -8.5t36 -22.5q2 -3 4 -7q3 -8 -1 -19q-3 -8 -11.5 -24t-23.5 -33t-37.5 -29.5t-54.5 -12.5q-24 0 -41 11t-29.5 24.5t-23 25t-21.5 11.5q-14 0 -22.5 -7t-13.5 -16.5
t-7.5 -19t-3.5 -13.5q-5 -9 -12 -9q-4 -1 -8 1q-8 2 -29 8.5t-36 22.5q-2 3 -4 7q-4 8 1 19q3 7 11.5 23.5t23.5 33.5t37.5 29.5t55.5 12.5q22 0 38 -11.5t29 -25t24 -24.5t23 -11z" />
    <glyph glyph-name="otilde" unicode="&#xf5;" horiz-adv-x="591" 
d="M290 508q55 1 100.5 -17.5t78.5 -53t51 -84t18 -110.5q0 -58 -17 -104.5t-49 -79.5t-78 -50.5t-104 -17.5q-55 0 -100 17t-77 50t-49.5 79.5t-17.5 104.5q0 60 18 109.5t50.5 84t77.5 53.5t98 19zM291 107q50 -1 81.5 37t31.5 99q0 29 -7.5 54.5t-22 44.5t-35.5 30
t-48 11q-25 0 -45.5 -11t-35 -30t-22.5 -44.5t-8 -54.5q0 -61 30 -97.5t81 -38.5zM349 629q14 0 22.5 7t13.5 16.5t7 19t4 13.5q2 5 5.5 6t6.5 2h8q8 -2 29 -8.5t36 -22.5q2 -3 4 -7q3 -8 -1 -19q-3 -8 -11.5 -24t-23.5 -33t-37.5 -29.5t-54.5 -12.5q-24 0 -41 11
t-29.5 24.5t-23 25t-21.5 11.5q-14 0 -22.5 -7t-13.5 -16.5t-7.5 -19t-3.5 -13.5q-5 -9 -12 -9q-4 -1 -8 1q-8 2 -29 8.5t-36 22.5q-2 3 -4 7q-4 8 1 19q3 7 11.5 23.5t23.5 33.5t37.5 29.5t55.5 12.5q22 0 38 -11.5t29 -25t24 -24.5t23 -11z" />
    <glyph glyph-name="cent" unicode="&#xa2;" horiz-adv-x="506" 
d="M325 542v-43q28 -5 49.5 -15t36.5 -21t24.5 -21.5t14.5 -16.5q1 -3 3 -7q1 -3 2 -7.5t-1 -8.5q-9 -23 -28 -43t-36 -27q-4 -2 -8 -2q-9 -2 -16 5q-19 20 -41 30v-246q16 7 27 16.5t18 19.5q3 5 7.5 6.5t8.5 1.5t9 -1q15 -6 34 -24.5t28 -39.5q2 -5 1.5 -9t-1.5 -7
q-1 -4 -3 -7q-6 -9 -17 -21.5t-26.5 -24t-37 -21.5t-48.5 -15v-57q0 -11 -8.5 -16.5t-18.5 -7.5q-11 -3 -26 -3q-16 -1 -28 3q-11 2 -19.5 8.5t-8.5 17.5v56q-87 18 -137.5 84t-50.5 169v5q0 47 14.5 87.5t39.5 72t59.5 53t74.5 31.5v45q0 11 8.5 16.5t19.5 7.5q12 3 28 3
q15 0 26 -3q10 -2 18.5 -7t8.5 -16zM168 245q0 -37 13 -66t35 -46v218q-20 -15 -34 -39.5t-14 -58.5v-8z" />
    <glyph glyph-name="logicalnot" unicode="&#xac;" horiz-adv-x="556" 
d="M507 500v-275q0 -12 -9 -18t-20 -9q-13 -4 -29 -3q-17 0 -30 4q-11 3 -20.5 9t-9.5 19v155h-326q-12 0 -18 9.5t-9 20.5q-4 13 -3 30q0 16 3 29q2 11 8 20t17 9h446z" />
    <glyph glyph-name="hyphen" unicode="-" horiz-adv-x="461" 
d="M394 363q11 0 17.5 -9t9.5 -20q4 -13 3 -29q0 -17 -4 -30q-3 -11 -9.5 -20.5t-18.5 -9.5h-323q-12 0 -18 9.5t-9 20.5q-4 13 -3 30q0 16 3 29q2 11 8 20t17 9h327z" />
    <glyph glyph-name="copyright" unicode="&#xa9;" horiz-adv-x="939" 
d="M62 380q0 82 32 154.5t86.5 126.5t127.5 85t156 31q82 0 154.5 -31t126.5 -85t85 -126.5t31 -154.5q0 -83 -31 -156t-85 -127.5t-126.5 -86.5t-154.5 -32q-83 0 -156 32t-127.5 86.5t-86.5 127.5t-32 156zM112 380q0 -74 27.5 -138t75 -111.5t111.5 -75t138 -27.5
q72 0 135.5 27.5t111 75t75.5 111.5t28 138q0 72 -28 135.5t-75.5 111t-111 75.5t-135.5 28q-74 0 -138 -28t-111.5 -75.5t-75 -111t-27.5 -135.5zM127 380q0 69 26 129.5t72 106t107 72t132 26.5q69 0 129.5 -26.5t106 -72t72 -106t26.5 -129.5q0 -71 -26.5 -132t-72 -107
t-106 -72t-129.5 -26q-71 0 -132 26t-107 72t-72 107t-26 132zM162 377q0 -62 23.5 -117t64 -96t96 -65t118.5 -24t117.5 24t95 65t64 96t23.5 117q0 63 -23.5 118t-64 96t-95 65t-117.5 24t-118.5 -24t-96 -65t-64 -96t-23.5 -118zM397 380q0 -50 22.5 -73t54.5 -23
q24 0 36 7.5t20 18.5q2 3 9 5h5q4 0 11 -3.5t14.5 -9t14 -12.5t9.5 -15q1 -5 0 -9q-1 -3 -2 -5q-6 -8 -15.5 -17.5t-24 -17.5t-34 -14t-43.5 -6q-75 0 -118.5 47t-43.5 128v3q0 39 12 70.5t34 53.5t51.5 34t64.5 12q24 0 43.5 -5.5t33.5 -13.5t23 -16t12 -13q2 -2 3 -5
q2 -6 -1 -11q-2 -8 -7.5 -15.5t-12.5 -14t-13.5 -10.5t-10.5 -5h-4q-5 0 -9 4q-7 8 -21.5 17.5t-34.5 9.5q-33 0 -55.5 -21.5t-22.5 -70.5v-4z" />
    <glyph glyph-name="registered" unicode="&#xae;" horiz-adv-x="928" 
d="M62 380q0 82 32 154.5t86.5 126.5t127.5 85t156 31q82 0 154.5 -31t126.5 -85t85 -126.5t31 -154.5q0 -83 -31 -156t-85 -127.5t-126.5 -86.5t-154.5 -32q-83 0 -156 32t-127.5 86.5t-86.5 127.5t-32 156zM112 380q0 -74 27.5 -138t75 -111.5t111.5 -75t138 -27.5
q72 0 135.5 27.5t111 75t75.5 111.5t28 138q0 72 -28 135.5t-75.5 111t-111 75.5t-135.5 28q-74 0 -138 -28t-111.5 -75.5t-75 -111t-27.5 -135.5zM127 380q0 69 26 129.5t72 106t107 72t132 26.5q69 0 129.5 -26.5t106 -72t72 -106t26.5 -129.5q0 -71 -26.5 -132t-72 -107
t-106 -72t-129.5 -26q-71 0 -132 26t-107 72t-72 107t-26 132zM162 377q0 -62 23.5 -117t64 -96t96 -65t118.5 -24t117.5 24t95 65t64 96t23.5 117q0 63 -23.5 118t-64 96t-95 65t-117.5 24t-118.5 -24t-96 -65t-64 -96t-23.5 -118zM535 355l62 -142h-85l-51 129h-32v-129
h-79v339h125q22 0 43.5 -4t38.5 -15t28 -30.5t11 -51.5q0 -68 -61 -96zM461 406q11 0 21.5 0.5t19 4.5t14 13t5.5 26q0 27 -15 34t-38 7h-39v-85h32z" />
    <glyph glyph-name="yen" unicode="&#xa5;" horiz-adv-x="693" 
d="M484 246q11 0 17.5 -6t9.5 -13q4 -9 3 -19q0 -12 -4 -21q-3 -8 -9.5 -14.5t-18.5 -6.5h-71v-27h73q11 0 17.5 -6t9.5 -13q4 -9 3 -19q0 -12 -4 -21q-3 -8 -9.5 -14.5t-18.5 -6.5h-71v-59h-142v59h-70q-12 0 -18 6.5t-9 14.5q-4 9 -3 21q0 10 3 19q2 7 8 13t17 6h72v27
h-70q-12 0 -18 6.5t-9 14.5q-4 9 -3 21q0 10 3 19q2 7 8 13t17 6h69q-57 94 -110.5 187.5t-110.5 187.5q-4 6 -2 14q1 4 2 6q5 8 15 17.5t22.5 18t26.5 15t29 9.5q5 1 10 0t9.5 -3t7.5 -7l175 -296l181 306q5 8 15 10q4 1 10 0q12 -1 27 -7.5t28.5 -15t24.5 -18.5t16 -19
q2 -2 3 -6q1 -6 -3 -15l-228 -384h70z" />
    <glyph glyph-name="mu" unicode="&#xb5;" horiz-adv-x="548" 
d="M52 -209v681q0 11 10.5 17t23.5 8q15 3 34 3t34 -4q13 -3 24 -8.5t11 -15.5v-296q5 -6 15 -14t23.5 -15t29 -11.5t30.5 -3.5q4 0 14.5 2t22 11.5t20 29t8.5 55.5v242q0 11 10.5 17t23.5 8q15 3 34 3t34 -4q13 -3 24 -8.5t11 -15.5v-270q0 -10 -1 -29.5t-6 -42.5t-16 -47
t-32 -44t-53.5 -32.5t-79.5 -12.5q-33 0 -64 14.5t-48 41.5v-259h-137z" />
    <glyph glyph-name="mu" unicode="&#x3bc;" horiz-adv-x="548" 
d="M52 -209v681q0 11 10.5 17t23.5 8q15 3 34 3t34 -4q13 -3 24 -8.5t11 -15.5v-296q5 -6 15 -14t23.5 -15t29 -11.5t30.5 -3.5q4 0 14.5 2t22 11.5t20 29t8.5 55.5v242q0 11 10.5 17t23.5 8q15 3 34 3t34 -4q13 -3 24 -8.5t11 -15.5v-270q0 -10 -1 -29.5t-6 -42.5t-16 -47
t-32 -44t-53.5 -32.5t-79.5 -12.5q-33 0 -64 14.5t-48 41.5v-259h-137z" />
    <glyph glyph-name="periodcentered" unicode="&#xb7;" horiz-adv-x="222" 
d="M184 404q0 -34 -23.5 -57t-56.5 -23t-56 23t-23 57q0 33 23 56t56 23t56.5 -23t23.5 -56z" />
    <glyph glyph-name="plusminus" unicode="&#xb1;" horiz-adv-x="492" 
d="M299 444h115q11 0 17.5 -9t9.5 -20q4 -13 3 -29q0 -17 -4 -30q-3 -11 -9.5 -20.5t-18.5 -9.5h-113v-116q0 -12 -9 -18t-20 -9q-13 -4 -29 -3q-17 0 -30 4q-11 3 -20.5 9t-9.5 19v114h-112q-12 0 -18 9.5t-9 20.5q-4 13 -3 30q0 16 3 29q2 11 8 20t17 9h114v111
q0 11 9.5 17.5t20.5 9.5q13 4 30 3q16 0 29 -3q11 -2 20 -8t9 -17v-113zM412 117q11 0 17.5 -9t9.5 -20q4 -13 3 -29q0 -17 -4 -30q-3 -11 -9.5 -20.5t-18.5 -9.5h-341q-12 0 -18 9.5t-9 20.5q-4 13 -3 30q0 16 3 29q2 11 8 20t17 9h345z" />
    <glyph glyph-name="guillemotleft" unicode="&#xab;" horiz-adv-x="786" 
d="M63 432l249 173q8 4 14.5 3.5t11.5 -2.5q6 -3 11 -7q17 -15 31.5 -36t15.5 -33q1 -6 -1 -11t-5 -10.5t-9 -9.5l-200 -142l200 -142q7 -5 9.5 -10t4.5 -10q1 -5 1 -11q-1 -12 -14.5 -34t-29.5 -37q-5 -4 -11 -7q-5 -2 -12 -2.5t-14 3.5l-252 175v150zM377 432l249 173
q8 4 14.5 3.5t11.5 -2.5q6 -3 11 -7q17 -15 31.5 -36t15.5 -33q1 -6 -1 -11t-5 -10.5t-9 -9.5l-200 -142l200 -142q7 -5 9.5 -10t4.5 -10q1 -5 1 -11q-1 -12 -14.5 -34t-29.5 -37q-5 -4 -11 -7q-5 -2 -12 -2.5t-14 3.5l-252 175v150z" />
    <glyph glyph-name="Atilde" unicode="&#xc3;" horiz-adv-x="744" 
d="M464 662l250 -662h-160l-39 122h-285l-41 -122h-158l246 663q7 14 22.5 21t30.5 10t26.5 3h11.5q22 0 41 -4q17 -3 32 -10t23 -21zM474 239l-104 300l-34 -111l-68 -189h206zM425 829q14 0 22.5 7t13.5 16.5t7 19t4 13.5q2 5 5.5 6t6.5 2h8q8 -2 29 -8.5t36 -22.5
q2 -3 4 -7q3 -8 -1 -19q-3 -8 -11.5 -24t-23.5 -33t-37.5 -29.5t-54.5 -12.5q-24 0 -41 11t-29.5 24.5t-23 25t-21.5 11.5q-14 0 -22.5 -7t-13.5 -16.5t-7.5 -19t-3.5 -13.5q-5 -9 -12 -9q-4 -1 -8 1q-8 2 -29 8.5t-36 22.5q-2 3 -4 7q-4 8 1 19q3 7 11.5 23.5t23.5 33.5
t37.5 29.5t55.5 12.5q22 0 38 -11.5t29 -25t24 -24.5t23 -11z" />
    <glyph glyph-name="brokenbar" unicode="&#xa6;" horiz-adv-x="233" 
d="M179 296v-330q0 -12 -9 -18t-20 -9q-13 -4 -29 -3q-17 0 -30 4q-11 3 -20.5 9t-9.5 19v328h118zM61 449v316q0 11 9.5 17.5t20.5 9.5q13 4 30 3q16 0 29 -3q11 -2 20 -8t9 -17v-318h-118z" />
    <glyph glyph-name="cedilla" unicode="&#xb8;" horiz-adv-x="255" 
d="M118 30v-63q32 5 51 -1.5t28.5 -18.5t12.5 -27t3 -27q0 -31 -19.5 -56.5t-59.5 -25.5q-27 0 -48.5 13.5t-29.5 40.5q-1 4 1 8q2 3 5.5 6.5t12.5 7.5l14 4q5 1 10.5 1t7.5 -5q4 -13 11 -17t15 -4t12 3.5t6 8t2.5 9t0.5 6.5q0 12 -6.5 21.5t-23.5 9.5q-16 0 -31 -4t-24 -9
v119h49z" />
    <glyph glyph-name="Ccedilla" unicode="&#xc7;" horiz-adv-x="693" 
d="M203 343q0 -103 48.5 -162t136.5 -59q47 0 83.5 20t53.5 48q3 5 8 7t10 3q5 0 11 -1q7 -1 18.5 -5t23.5 -11.5t22.5 -18t16.5 -25.5q2 -6 2 -11.5t-2 -10.5l-4 -10q-11 -15 -30 -36t-48.5 -39.5t-70.5 -31.5t-95 -13q-77 0 -138.5 25t-104.5 71.5t-65.5 112.5t-22.5 149
v7q0 80 25.5 144t70 109t105 69.5t130.5 24.5q55 0 96.5 -13t71 -30.5t46.5 -36t25 -28.5q3 -5 5 -10t2 -10.5t-2 -10.5q-6 -16 -17 -27.5t-23.5 -20t-24.5 -13t-20 -5.5q-5 -1 -9 0t-8.5 2t-7.5 6q-8 11 -22 22t-31 20t-37.5 15t-41.5 6q-88 0 -137 -57t-49 -155v-10z
M376 27v-63q32 5 51 -1.5t28.5 -18.5t12.5 -27t3 -27q0 -31 -19.5 -56.5t-59.5 -25.5q-27 0 -48.5 13.5t-29.5 40.5q-1 4 1 8q2 3 5.5 6.5t12.5 7.5l14 4q5 1 10.5 1t7.5 -5q4 -13 11 -17t15 -4t12 3.5t6 8t2.5 9t0.5 6.5q0 12 -6.5 21.5t-23.5 9.5q-16 0 -31 -4t-24 -9v119
h49z" />
    <glyph glyph-name="ccedilla" unicode="&#xe7;" horiz-adv-x="506" 
d="M178 245q0 -30 9 -55t24 -42.5t35 -27.5t42 -10q35 0 58 15t34 30q3 5 7.5 6.5t8.5 1.5t9 -1q15 -6 34 -24.5t28 -39.5q2 -5 1.5 -9t-1.5 -7q-1 -4 -3 -7q-8 -11 -21.5 -26t-35.5 -28.5t-51.5 -23t-68.5 -9.5q-56 0 -102 18t-78.5 52t-50.5 82t-18 107v5q0 56 20 102.5
t54 79.5t79 51t96 18q40 0 70 -9.5t51 -22t34 -26t18 -20.5q1 -3 3 -7q1 -3 2 -7.5t-1 -8.5q-9 -23 -28 -43t-36 -27q-4 -2 -8 -2q-9 -2 -16 5q-17 17 -36.5 28t-50.5 11q-18 0 -37.5 -8t-36 -23t-27 -37.5t-10.5 -52.5v-8zM280 28v-63q32 5 51 -1.5t28.5 -18.5t12.5 -27
t3 -27q0 -31 -19.5 -56.5t-59.5 -25.5q-27 0 -48.5 13.5t-29.5 40.5q-1 4 1 8q2 3 5.5 6.5t12.5 7.5l14 4q5 1 10.5 1t7.5 -5q4 -13 11 -17t15 -4t12 3.5t6 8t2.5 9t0.5 6.5q0 12 -6.5 21.5t-23.5 9.5q-16 0 -31 -4t-24 -9v119h49z" />
    <glyph glyph-name="oslash" unicode="&#xf8;" horiz-adv-x="591" 
d="M355 568q4 11 14.5 12.5t21.5 -0.5q13 -3 28 -8q16 -7 27 -15q10 -7 16 -15.5t2 -19.5l-235 -586q-5 -12 -16 -14.5t-22 -0.5q-13 2 -29 8q-15 6 -26 14q-9 7 -15.5 15.5t-1.5 19.5zM290 508q55 1 100.5 -17.5t78.5 -53t51 -84t18 -110.5q0 -58 -17 -104.5t-49 -79.5
t-78 -50.5t-104 -17.5q-55 0 -100 17t-77 50t-49.5 79.5t-17.5 104.5q0 60 18 109.5t50.5 84t77.5 53.5t98 19zM291 107q50 -1 81.5 37t31.5 99q0 29 -7.5 54.5t-22 44.5t-35.5 30t-48 11q-25 0 -45.5 -11t-35 -30t-22.5 -44.5t-8 -54.5q0 -61 30 -97.5t81 -38.5z" />
    <glyph glyph-name="Oslash" unicode="&#xd8;" horiz-adv-x="772" 
d="M383 705q76 1 139 -24t108.5 -73t70.5 -116.5t25 -153.5q0 -81 -23.5 -145.5t-68 -110t-108 -70.5t-143.5 -25q-78 0 -140.5 24t-107 69t-68.5 110t-24 146q0 84 25 152t70 116t107.5 74.5t137.5 26.5zM385 116q44 -1 80.5 14t63 44t41 71.5t14.5 98.5q0 51 -13 94
t-38.5 73.5t-62.5 47t-85 16.5q-46 0 -83 -17t-63 -47.5t-40 -73t-14 -93.5q0 -112 53 -169t147 -59zM482 742q4 11 14.5 12.5t21.5 -0.5q13 -3 28 -8q16 -7 27 -15q10 -7 16 -15.5t2 -19.5l-299 -739q-5 -12 -16 -14.5t-22 -0.5q-13 2 -29 8q-15 6 -26 14q-9 7 -15.5 15.5
t-1.5 19.5z" />
    <glyph glyph-name="multiply" unicode="&#xd7;" horiz-adv-x="452" 
d="M223 222l-81 -82q-8 -8 -18.5 -6t-20.5 8q-11 7 -23 18q-12 13 -19 24q-6 10 -8 21t7 20l80 80l-82 82q-8 8 -6 18.5t8 20.5q7 11 18 23q13 12 24 19q10 6 21 8t20 -7l80 -80l80 79q8 8 19 6t21 -8q11 -7 23 -19t19 -23q6 -10 8.5 -20t-5.5 -18l-81 -81l78 -78
q8 -8 6 -19t-8 -21q-7 -11 -19 -24q-11 -11 -22 -18q-10 -6 -20.5 -8.5t-18.5 5.5z" />
    <glyph glyph-name="Thorn" unicode="&#xde;" horiz-adv-x="586" 
d="M57 678h142v-135h103q66 0 111 -16.5t73 -44t40 -62.5t12 -72q0 -67 -22.5 -108t-57.5 -64t-78.5 -31t-86.5 -8h-94v-137h-142v678zM199 425v-170h95q31 -2 57 6q21 7 39 25t18 56q3 23 -7 41q-8 16 -30.5 29t-68.5 13h-103z" />
    <glyph glyph-name="thorn" unicode="&#xfe;" horiz-adv-x="545" 
d="M41 -209v893q0 11 10.5 17t23.5 8q15 3 34 3t34 -4q13 -3 24 -8.5t11 -15.5v-238q10 15 25 25t32 17t34.5 10t32.5 3q30 0 66 -11.5t67 -40t52 -77t21 -122.5v-5q0 -63 -17 -110.5t-45.5 -78.5t-65.5 -46.5t-78 -15.5q-37 0 -70.5 15t-53.5 42v-260h-137zM365 246
q0 37 -11 60t-26.5 35.5t-31.5 17t-25 4.5q-21 0 -47 -9.5t-46 -35.5v-148q18 -21 42 -29t43 -8q16 0 34 6.5t33 19.5t25 32.5t10 46.5v8z" />
    <glyph glyph-name="bullet" unicode="&#x2022;" horiz-adv-x="391" 
d="M305 264q0 -24 -9 -45.5t-25 -37t-37 -24.5t-45 -9t-44.5 9t-36 24.5t-24.5 37t-9 45.5t9 44.5t24.5 36t36 24.5t44.5 9t45 -9t37 -24.5t25 -36t9 -44.5z" />
    <glyph glyph-name="ae" unicode="&#xe6;" horiz-adv-x="903" 
d="M187 244q0 -35 9 -57t23.5 -34t31.5 -16t33 -4q19 0 42.5 11.5t42.5 30.5v154q-9 11 -21 19.5t-25 14t-25.5 8t-21.5 2.5q-11 0 -26 -4t-29 -17t-24 -37t-10 -63v-8zM810 201h-267q2 -26 12.5 -42.5t25.5 -26t32.5 -13.5t34.5 -4q34 0 59.5 16t36.5 30q7 8 16 8q4 0 9 -1
q15 -6 32 -22t26 -37q2 -5 1.5 -9t-1.5 -7q-1 -4 -3 -7q-8 -11 -21.5 -26t-35.5 -28.5t-51.5 -23t-68.5 -9.5q-83 0 -141 35v-32h-137v54q-16 -33 -48 -46.5t-69 -13.5q-41 0 -78 16t-65 47.5t-44 79t-16 110.5v5q0 72 21.5 119.5t53 76.5t66.5 41t62 12q35 0 67.5 -14
t49.5 -42v28q0 10 10.5 15.5t23.5 8.5q15 4 35 4q19 0 34 -3q13 -2 23.5 -8t10.5 -17v-1q29 20 62.5 30t65.5 10q54 0 94 -20t66.5 -57t40 -89.5t13.5 -117.5q0 -9 -4 -15q-3 -5 -11 -9.5t-23 -4.5zM634 391q-40 0 -68 -23t-28 -71h175q0 23 -7 40.5t-18.5 29.5t-25.5 18
t-28 6z" />
    <glyph glyph-name="AE" unicode="&#xc6;" horiz-adv-x="1119" 
d="M510 237l-104 300l-34 -111l-68 -189h206zM1046 62q0 -18 -4 -31q-3 -11 -9 -20.5t-18 -9.5h-266l1 -3h-160l-39 122h-285l-41 -122h-158l246 663q7 14 22.5 21t30.5 10t26.5 3h11.5q22 0 41 -4q17 -3 32 -10t23 -21l92 -242v277h425q11 0 17.5 -9t8.5 -20q3 -13 3 -29
q1 -18 -3 -32q-3 -12 -9.5 -21.5t-18.5 -9.5h-286v-176v-1h200q11 0 17 -9.5t8 -20.5q3 -13 3 -29q1 -18 -3 -31q-3 -11 -9.5 -20.5t-17.5 -9.5h-197v-156h284q13 0 19.5 -9.5t9.5 -20.5q4 -13 3 -29z" />
    <glyph glyph-name="dagger" unicode="&#x2020;" horiz-adv-x="451" 
d="M163 583v182q0 11 9.5 17.5t20.5 9.5q13 4 30 3q16 0 29 -3q11 -2 20 -8t9 -17v-184h104q11 0 17.5 -9t9.5 -20q4 -13 3 -29q0 -17 -4 -30q-3 -11 -9.5 -20.5t-18.5 -9.5h-102v-499q0 -12 -9 -18t-20 -9q-13 -4 -29 -3q-17 0 -30 4q-11 3 -20.5 9t-9.5 19v497h-103
q-12 0 -18 9.5t-9 20.5q-4 13 -3 30q0 16 3 29q2 11 8 20t17 9h105z" />
    <glyph glyph-name="daggerdbl" unicode="&#x2021;" horiz-adv-x="416" 
d="M143 551v214q0 11 9.5 17.5t20.5 9.5q13 4 30 3q16 0 29 -3q11 -2 20 -8t9 -17v-216h84q11 0 17.5 -9t9.5 -20q4 -13 3 -29q0 -17 -4 -30q-3 -11 -9.5 -20.5t-18.5 -9.5h-82v-130h84q11 0 17.5 -9t9.5 -20q4 -13 3 -29q0 -17 -4 -30q-3 -11 -9.5 -20.5t-18.5 -9.5h-82
v-219q0 -12 -9 -18t-20 -9q-13 -4 -29 -3q-17 0 -30 4q-11 3 -20.5 9t-9.5 19v217h-83q-12 0 -18 9.5t-9 20.5q-4 13 -3 30q0 16 3 29q2 11 8 20t17 9h85v130h-83q-12 0 -18 9.5t-9 20.5q-4 13 -3 30q0 16 3 29q2 11 8 20t17 9h85z" />
    <glyph glyph-name="Ydieresis" unicode="&#x178;" horiz-adv-x="693" 
d="M45 621q-4 6 -2 14q1 4 2 6q5 8 15 17.5t22.5 18t26.5 15t29 9.5q5 1 10 0t9.5 -3t7.5 -7l175 -296l181 306q5 8 15 10q4 1 10 0q12 -1 27 -7.5t28.5 -15t24.5 -18.5t16 -19q2 -2 3 -6q1 -6 -3 -15l-231 -389v-241h-142v241q-57 95 -112 190t-112 190zM331 800
q0 -26 -17.5 -43t-42.5 -17t-42 17t-17 43q0 25 17 42t42 17t42.5 -17t17.5 -42zM484 800q0 -26 -17.5 -43t-42.5 -17t-42 17t-17 43q0 25 17 42t42 17t42.5 -17t17.5 -42z" />
    <glyph glyph-name="oe" unicode="&#x153;" horiz-adv-x="923" 
d="M299 99q50 -1 81.5 37t31.5 99q0 29 -7.5 54.5t-22 44.5t-35.5 30t-48 11q-25 0 -45.5 -11t-35 -30t-22.5 -44.5t-8 -54.5q0 -61 30 -97.5t81 -38.5zM833 196h-267q2 -26 12.5 -42.5t25.5 -26t32.5 -13.5t34.5 -4q34 0 59.5 16t36.5 30q7 8 16 8q4 0 9 -1q15 -6 32 -22
t26 -37q2 -5 1.5 -9t-1.5 -7q-1 -4 -3 -7q-8 -11 -21.5 -26t-35.5 -28.5t-51.5 -23t-68.5 -9.5q-115 0 -182 67q-32 -37 -80 -57.5t-110 -20.5q-55 0 -100 17t-77 50t-49.5 79.5t-17.5 104.5q0 60 18 109.5t50.5 84t77.5 53.5t98 19q57 1 103 -18t79 -56q35 42 82.5 62.5
t94.5 20.5q54 0 94 -20t66.5 -57t40 -89.5t13.5 -117.5q0 -9 -4 -15q-3 -5 -11 -9.5t-23 -4.5zM657 386q-40 0 -68 -23t-28 -71h175q0 23 -7 40.5t-18.5 29.5t-25.5 18t-28 6z" />
    <glyph glyph-name="OE" unicode="&#x152;" horiz-adv-x="1169" 
d="M411 124q44 -1 80.5 14t63 44t41 71.5t14.5 98.5q0 51 -13 94t-38.5 73.5t-62.5 47t-85 16.5q-46 0 -83 -17t-63 -47.5t-40 -73t-14 -93.5q0 -112 53 -169t147 -59zM1084 61q0 -18 -4 -31q-3 -11 -9 -20.5t-18 -9.5h-423v63q-42 -33 -97.5 -50.5t-123.5 -17.5
q-78 0 -140.5 24t-107 69t-68.5 110t-24 146q0 84 25 152t70 116t107.5 74.5t137.5 26.5q66 1 121.5 -18t99.5 -55v54h425q11 0 17.5 -9t8.5 -20q3 -13 3 -29q1 -18 -3 -32q-3 -12 -9.5 -21.5t-18.5 -9.5h-286v-176v-1h200q11 0 17 -9.5t8 -20.5q3 -13 3 -29q1 -18 -3 -31
q-3 -11 -9.5 -20.5t-17.5 -9.5h-197v-156h284q13 0 19.5 -9.5t9.5 -20.5q4 -13 3 -29z" />
    <glyph glyph-name="Scaron" unicode="&#x160;" horiz-adv-x="630" 
d="M42 123q3 6 9 16t14.5 20.5t19.5 20t25 15.5q8 3 13.5 3t9.5 -1l8 -4q15 -13 36 -26.5t44.5 -24t46 -17t40.5 -6.5q25 0 49.5 2.5t43.5 12t30.5 27t11.5 47.5q0 32 -28.5 48.5t-71.5 28t-93.5 22.5t-93.5 32.5t-71.5 58t-28.5 98.5q0 52 20 91t55 65t83 38.5t104 12.5
q63 0 125 -27t107 -76q7 -8 7 -19q0 -5 -1 -11q-4 -15 -13 -27.5t-19 -21t-20 -14t-16 -7.5q-5 -2 -10 -2t-9.5 0.5t-9.5 5.5q-14 12 -31.5 24.5t-37 22t-40.5 15.5t-41 6q-21 0 -40 -2t-33.5 -9.5t-23 -21t-8.5 -35.5q0 -20 16.5 -33.5t43.5 -23.5t61 -18.5t70 -19t70 -25
t61 -37t43.5 -55t16.5 -77.5q0 -109 -68 -168.5t-207 -59.5q-44 0 -83.5 9t-74 25t-62.5 36.5t-48 43.5q-2 2 -3 6q-1 3 -1 7t3 9zM404 942q9 9 19 9q5 0 10 -1q22 -7 35.5 -21t19.5 -23q2 -3 3 -7q1 -3 0.5 -7t-4.5 -8l-134 -133h-77l-134 133q-4 4 -4.5 8t0.5 7q1 4 3 7
q6 9 20.5 23t35.5 21q4 1 9 1q10 0 19 -9l90 -99z" />
    <glyph glyph-name="scaron" unicode="&#x161;" horiz-adv-x="495" 
d="M43 87q2 7 7.5 16t13 18.5t17.5 17.5t21 13q5 2 10 2t9 -1t7 -3q22 -17 55 -31t60 -15q35 -1 54.5 9t21.5 31q2 24 -17.5 35.5t-49 19.5t-65 15.5t-65.5 22.5t-50.5 41.5t-20.5 72.5q0 39 15.5 68.5t42.5 49t63.5 29.5t78.5 10q48 0 96 -17t82 -54q3 -4 4 -8t1 -7
q0 -4 -2 -8q-3 -12 -10.5 -23.5t-15.5 -20.5t-16 -15.5t-14 -9.5q-3 -2 -7 -2q-3 0 -7 0.5t-8 4.5q-23 17 -52.5 30.5t-57.5 15.5q-8 0 -17.5 -1.5t-18 -6t-14.5 -12.5t-6 -21q0 -18 20 -27t49.5 -16t64 -15.5t64 -25.5t49.5 -45t20 -75q0 -75 -52.5 -118t-156.5 -43
q-66 0 -118 21t-83 54q-2 2 -3 6q-2 7 1 18zM336 740q9 9 19 9q5 0 10 -1q22 -7 35.5 -21t19.5 -23q2 -3 3 -7q1 -3 0.5 -7t-4.5 -8l-134 -133h-77l-134 133q-4 4 -4.5 8t0.5 7q1 4 3 7q6 9 20.5 23t35.5 21q4 1 9 1q10 0 19 -9l90 -99z" />
    <glyph glyph-name="guillemotright" unicode="&#xbb;" horiz-adv-x="798" 
d="M713 282l-252 -175q-8 -4 -14.5 -3.5t-11.5 2.5q-6 3 -11 7q-16 15 -29.5 37t-14.5 34q-1 6 1 11q2 10 14 20l200 142l-200 142q-7 4 -9.5 9.5t-4.5 10.5t-1 11q1 12 15.5 33t31.5 36q5 4 11 7q5 2 11.5 2.5t14.5 -3.5l249 -173v-150zM399 282l-252 -175
q-8 -4 -14.5 -3.5t-11.5 2.5q-6 3 -11 7q-16 15 -29.5 37t-14.5 34q-1 6 1 11q2 10 14 20l200 142l-200 142q-7 4 -9.5 9.5t-4.5 10.5t-1 11q1 12 15.5 33t31.5 36q5 4 11 7q5 2 11.5 2.5t14.5 -3.5l249 -173v-150z" />
    <glyph glyph-name="Zcaron" unicode="&#x17d;" horiz-adv-x="573" 
d="M488 0h-442l275 572h-235q-11 0 -17 9.5t-8 21.5q-3 13 -3 31q0 17 3 30q2 11 7 20.5t16 9.5h452l-278 -573h229q11 0 17 -9.5t8 -20.5q3 -13 2 -29q0 -18 -3 -31q-2 -12 -7 -21.5t-16 -9.5zM385 936q9 9 19 9q5 0 10 -1q22 -7 35.5 -21t19.5 -23q2 -3 3 -7q1 -3 0.5 -7
t-4.5 -8l-134 -133h-77l-134 133q-4 4 -4.5 8t0.5 7q1 4 3 7q6 9 20.5 23t35.5 21q4 1 9 1q10 0 19 -9l90 -99z" />
    <glyph glyph-name="zcaron" unicode="&#x17e;" horiz-adv-x="501" 
d="M421 0h-359l193 370h-154q-9 0 -13 9.5t-6 20.5q-2 13 -2 30q0 16 2 29q2 11 6 20t12 9h358l-184 -370h147q8 0 12.5 -8.5t6.5 -19.5q2 -12 2 -28q0 -18 -3 -31q-2 -12 -6 -21.5t-12 -9.5zM363 731q9 9 19 9q5 0 10 -1q22 -7 35.5 -21t19.5 -23q2 -3 3 -7q1 -3 0.5 -7
t-4.5 -8l-134 -133h-77l-134 133q-4 4 -4.5 8t0.5 7q1 4 3 7q6 9 20.5 23t35.5 21q4 1 9 1q10 0 19 -9l90 -99z" />
    <glyph glyph-name="fraction" unicode="&#x2044;" horiz-adv-x="494" 
d="M341 775q4 11 14.5 12.5t21.5 -0.5q13 -3 28 -8q16 -7 27 -15q10 -7 16 -15.5t2 -19.5l-299 -739q-5 -12 -16 -14.5t-22 -0.5q-13 2 -29 8q-15 6 -26 14q-9 7 -15.5 15.5t-1.5 19.5z" />
    <glyph glyph-name="quotedblright" unicode="&#x201d;" horiz-adv-x="320" 
d="M131 480h-85l-11 182q0 10 8 15.5t18 8.5q11 4 26 4q15 1 27 -3q11 -3 19 -9.5t9 -18.5zM270 480h-85l-11 182q0 10 8 15.5t18 8.5q11 4 26 4q15 1 27 -3q11 -3 19 -9.5t9 -18.5z" />
    <glyph glyph-name="quotedblleft" unicode="&#x201c;" horiz-adv-x="321" 
d="M131 480h-85l-11 182q0 10 8 15.5t18 8.5q11 4 26 4q15 1 27 -3q11 -3 19 -9.5t9 -18.5zM270 480h-85l-11 182q0 10 8 15.5t18 8.5q11 4 26 4q15 1 27 -3q11 -3 19 -9.5t9 -18.5z" />
    <glyph glyph-name="endash" unicode="&#x2013;" horiz-adv-x="568" 
d="M477 363q11 0 17.5 -9t9.5 -20q4 -13 3 -29q0 -17 -4 -30q-3 -11 -9.5 -20.5t-18.5 -9.5h-389q-12 0 -18 9.5t-9 20.5q-4 13 -3 30q0 16 3 29q2 11 8 20t17 9h393z" />
    <glyph glyph-name="emdash" unicode="&#x2014;" horiz-adv-x="574" 
d="M477 363q11 0 17.5 -9t9.5 -20q4 -13 3 -29q0 -17 -4 -30q-3 -11 -9.5 -20.5t-18.5 -9.5h-389q-12 0 -18 9.5t-9 20.5q-4 13 -3 30q0 16 3 29q2 11 8 20t17 9h393z" />
    <glyph glyph-name="lslash" unicode="&#x142;" horiz-adv-x="275" 
d="M207 0h-137v222l-20 -14q-10 -7 -20 -3t-19 12q-11 9 -20 23q-9 13 -14 25q-5 11 -5.5 21t9.5 17l89 63v332q0 10 10.5 15.5t23.5 8.5q15 4 35 4q19 0 34 -3q13 -2 23.5 -8t10.5 -17v-236l36 26q9 7 19.5 3.5t18.5 -11.5q10 -9 20 -22q10 -14 14 -26q4 -11 4 -22.5
t-10 -18.5l-102 -72v-319z" />
    <glyph glyph-name="Lslash" unicode="&#x141;" horiz-adv-x="641" 
d="M561 0h-427v220l-18 -12q-10 -7 -20 -3t-19 12q-11 9 -20 23q-9 13 -14 25q-5 11 -5.5 21t9.5 17l87 61v303q0 10 12 15.5t26 8.5q17 4 38 4q18 0 33 -3q12 -2 22.5 -8t10.5 -17v-203l33 24q9 7 19.5 3.5t18.5 -11.5q10 -9 20 -22q10 -14 14 -26q4 -11 4 -22.5t-10 -18.5
l-99 -70v-200h285q14 0 20 -10t9 -22q3 -14 3 -31q1 -17 -3 -29q-3 -11 -9.5 -20t-19.5 -9z" />
    <glyph glyph-name="ampersand" unicode="&#x26;" horiz-adv-x="722" 
d="M596 -14q-30 22 -54.5 44.5t-60.5 55.5q-19 -22 -40 -40.5t-46.5 -32t-57 -21.5t-71.5 -8q-35 0 -76 8.5t-75.5 31t-57.5 63t-23 103.5q0 74 38.5 122.5t105.5 85.5q-21 24 -35.5 42.5t-23.5 35.5t-13 34.5t-4 38.5q0 47 18 79t46.5 51.5t64 28t70.5 8.5t72 -9t67 -28.5
t49.5 -51.5t19.5 -78q0 -62 -33.5 -105t-97.5 -84q18 -19 24 -26t11 -12t13.5 -14t30.5 -32q12 18 17 26.5t8 14t6.5 12t12.5 21.5q3 6 7.5 9t9.5 5t11 3q17 0 30 -5t23 -12.5t16 -15t9 -10.5q3 -5 5 -10t2 -10.5t-4 -10.5q-11 -19 -17 -29.5t-11.5 -20t-12.5 -20.5t-19 -31
q18 -18 36 -34t34 -29t27.5 -22.5t17.5 -14.5q10 -9 14 -16q2 -4 2 -7q1 -14 -5.5 -27.5t-16 -25.5t-19.5 -20t-14 -11q-4 -2 -9 -3t-10.5 -0.5t-10.5 4.5zM258 297q-15 -5 -30.5 -14t-28.5 -22t-21 -30.5t-8 -38.5q0 -24 9.5 -40.5t23.5 -26.5t30.5 -14t30.5 -4
q16 0 33.5 6t33 16t29 22t22.5 23q-26 26 -41.5 40.5t-27 26l-23.5 23.5t-32 33zM378 543q0 9 -4 20t-13.5 20.5t-24 15.5t-35.5 6q-33 0 -48.5 -20.5t-15.5 -41.5q0 -11 3.5 -20.5t11 -20t19 -22l27.5 -27.5q21 13 36 23.5t24.5 20.5t14.5 21t5 25z" />
    <glyph glyph-name="perthousand" unicode="&#x2030;" horiz-adv-x="1044" 
d="M431 704q4 11 14.5 12.5t21.5 -0.5q13 -3 28 -8q16 -7 27 -15q10 -7 16 -15.5t2 -19.5l-271 -668q-5 -12 -16 -14.5t-22 -0.5q-13 2 -29 8q-15 6 -26 14q-9 7 -15.5 15.5t-1.5 19.5zM407 131q0 -46 13 -73.5t33 -42.5t43.5 -19.5t43.5 -4.5q33 0 57 12t39.5 31.5t23 44.5
t7.5 52q0 26 -8 51t-24 44t-40 30.5t-55 11.5q-34 0 -59 -12.5t-41.5 -32.5t-24.5 -44t-8 -48zM24 557q0 -46 13 -73.5t33 -42.5t43.5 -19.5t43.5 -4.5q33 0 57 12t39.5 31.5t23 44.5t7.5 52q0 26 -8 51t-24 44t-40 30.5t-55 11.5q-34 0 -59 -12.5t-41.5 -32.5t-24.5 -44
t-8 -48zM717 131q0 -46 13 -73.5t33 -42.5t43.5 -19.5t43.5 -4.5q33 0 57 12t39.5 31.5t23 44.5t7.5 52q0 26 -8 51t-24 44t-40 30.5t-55 11.5q-34 0 -59 -12.5t-41.5 -32.5t-24.5 -44t-8 -48z" />
    <glyph glyph-name="Itilde" unicode="&#x128;" horiz-adv-x="241" 
d="M189 0h-142v667q0 10 10.5 15.5t24.5 8.5q16 4 36 4q19 0 35 -3q14 -2 25 -8t11 -17v-667zM175 829q14 0 22.5 7t13.5 16.5t7 19t4 13.5q2 5 5.5 6t6.5 2h8q8 -2 29 -8.5t36 -22.5q2 -3 4 -7q3 -8 -1 -19q-3 -8 -11.5 -24t-23.5 -33t-37.5 -29.5t-54.5 -12.5
q-24 0 -41 11t-29.5 24.5t-23 25t-21.5 11.5q-14 0 -22.5 -7t-13.5 -16.5t-7.5 -19t-3.5 -13.5q-5 -9 -12 -9q-4 -1 -8 1q-8 2 -29 8.5t-36 22.5q-2 3 -4 7q-4 8 1 19q3 7 11.5 23.5t23.5 33.5t37.5 29.5t55.5 12.5q22 0 38 -11.5t29 -25t24 -24.5t23 -11z" />
    <glyph glyph-name="itilde" unicode="&#x129;" horiz-adv-x="250" 
d="M195 0h-137v473q0 10 10.5 15.5t23.5 8.5q15 4 35 4q19 0 34 -3q13 -2 23.5 -8t10.5 -17v-473zM180 629q14 0 22.5 7t13.5 16.5t7 19t4 13.5q2 5 5.5 6t6.5 2h8q8 -2 29 -8.5t36 -22.5q2 -3 4 -7q3 -8 -1 -19q-3 -8 -11.5 -24t-23.5 -33t-37.5 -29.5t-54.5 -12.5
q-24 0 -41 11t-29.5 24.5t-23 25t-21.5 11.5q-14 0 -22.5 -7t-13.5 -16.5t-7.5 -19t-3.5 -13.5q-5 -9 -12 -9q-4 -1 -8 1q-8 2 -29 8.5t-36 22.5q-2 3 -4 7q-4 8 1 19q3 7 11.5 23.5t23.5 33.5t37.5 29.5t55.5 12.5q22 0 38 -11.5t29 -25t24 -24.5t23 -11z" />
    <glyph glyph-name="Ccaron" unicode="&#x10c;" horiz-adv-x="693" 
d="M203 343q0 -103 48.5 -162t136.5 -59q47 0 83.5 20t53.5 48q3 5 8 7t10 3q5 0 11 -1q7 -1 18.5 -5t23.5 -11.5t22.5 -18t16.5 -25.5q2 -6 2 -11.5t-2 -10.5l-4 -10q-11 -15 -30 -36t-48.5 -39.5t-70.5 -31.5t-95 -13q-77 0 -138.5 25t-104.5 71.5t-65.5 112.5t-22.5 149
v7q0 80 25.5 144t70 109t105 69.5t130.5 24.5q55 0 96.5 -13t71 -30.5t46.5 -36t25 -28.5q3 -5 5 -10t2 -10.5t-2 -10.5q-6 -16 -17 -27.5t-23.5 -20t-24.5 -13t-20 -5.5q-5 -1 -9 0t-8.5 2t-7.5 6q-8 11 -22 22t-31 20t-37.5 15t-41.5 6q-88 0 -137 -57t-49 -155v-10z
M455 940q9 9 19 9q5 0 10 -1q22 -7 35.5 -21t19.5 -23q2 -3 3 -7q1 -3 0.5 -7t-4.5 -8l-134 -133h-77l-134 133q-4 4 -4.5 8t0.5 7q1 4 3 7q6 9 20.5 23t35.5 21q4 1 9 1q10 0 19 -9l90 -99z" />
    <glyph glyph-name="ccaron" unicode="&#x10d;" horiz-adv-x="506" 
d="M178 245q0 -30 9 -55t24 -42.5t35 -27.5t42 -10q35 0 58 15t34 30q3 5 7.5 6.5t8.5 1.5t9 -1q15 -6 34 -24.5t28 -39.5q2 -5 1.5 -9t-1.5 -7q-1 -4 -3 -7q-8 -11 -21.5 -26t-35.5 -28.5t-51.5 -23t-68.5 -9.5q-56 0 -102 18t-78.5 52t-50.5 82t-18 107v5q0 56 20 102.5
t54 79.5t79 51t96 18q40 0 70 -9.5t51 -22t34 -26t18 -20.5q1 -3 3 -7q1 -3 2 -7.5t-1 -8.5q-9 -23 -28 -43t-36 -27q-4 -2 -8 -2q-9 -2 -16 5q-17 17 -36.5 28t-50.5 11q-18 0 -37.5 -8t-36 -23t-27 -37.5t-10.5 -52.5v-8zM362 744q9 9 19 9q5 0 10 -1q22 -7 35.5 -21
t19.5 -23q2 -3 3 -7q1 -3 0.5 -7t-4.5 -8l-134 -133h-77l-134 133q-4 4 -4.5 8t0.5 7q1 4 3 7q6 9 20.5 23t35.5 21q4 1 9 1q10 0 19 -9l90 -99z" />
    <glyph glyph-name="utilde" unicode="&#x169;" horiz-adv-x="541" 
d="M353 0v50q-17 -27 -48 -41.5t-64 -14.5q-47 0 -79.5 12.5t-53.5 32.5t-32 44t-16 47t-6 42.5t-1 29.5v270q0 10 10.5 15.5t23.5 8.5q15 4 35 4q19 0 34 -3q13 -2 23.5 -8t10.5 -17v-242q0 -36 8.5 -55.5t20 -29t22 -11.5t14.5 -2q15 -1 30.5 3.5t29 11.5t23.5 15t15 14
v296q0 10 10.5 15.5t23.5 8.5q15 4 35 4q19 0 34 -3q13 -2 23.5 -8t10.5 -17v-472h-137zM324 629q14 0 22.5 7t13.5 16.5t7 19t4 13.5q2 5 5.5 6t6.5 2h8q8 -2 29 -8.5t36 -22.5q2 -3 4 -7q3 -8 -1 -19q-3 -8 -11.5 -24t-23.5 -33t-37.5 -29.5t-54.5 -12.5q-24 0 -41 11
t-29.5 24.5t-23 25t-21.5 11.5q-14 0 -22.5 -7t-13.5 -16.5t-7.5 -19t-3.5 -13.5q-5 -9 -12 -9q-4 -1 -8 1q-8 2 -29 8.5t-36 22.5q-2 3 -4 7q-4 8 1 19q3 7 11.5 23.5t23.5 33.5t37.5 29.5t55.5 12.5q22 0 38 -11.5t29 -25t24 -24.5t23 -11z" />
    <glyph glyph-name="Utilde" unicode="&#x168;" horiz-adv-x="665" 
d="M543 695q21 0 39 -3q14 -2 26.5 -8t12.5 -17v-358q0 -80 -16 -139.5t-50.5 -99.5t-88 -60t-129.5 -20q-78 0 -133 20.5t-89.5 60.5t-50 98.5t-15.5 135.5v362q0 9 7 14q4 3 8 4q12 5 29 7.5t34 2.5t32 -3t23 -7q3 -2 6 -5q6 -6 6 -13v-355q0 -52 8.5 -87.5t26 -58
t44.5 -32.5t65 -10q40 0 66 14t41 39.5t20.5 59.5t5.5 75l1 355q0 11 10.5 17t24.5 8q16 3 36 3zM386 829q14 0 22.5 7t13.5 16.5t7 19t4 13.5q2 5 5.5 6t6.5 2h8q8 -2 29 -8.5t36 -22.5q2 -3 4 -7q3 -8 -1 -19q-3 -8 -11.5 -24t-23.5 -33t-37.5 -29.5t-54.5 -12.5
q-24 0 -41 11t-29.5 24.5t-23 25t-21.5 11.5q-14 0 -22.5 -7t-13.5 -16.5t-7.5 -19t-3.5 -13.5q-5 -9 -12 -9q-4 -1 -8 1q-8 2 -29 8.5t-36 22.5q-2 3 -4 7q-4 8 1 19q3 7 11.5 23.5t23.5 33.5t37.5 29.5t55.5 12.5q22 0 38 -11.5t29 -25t24 -24.5t23 -11z" />
    <glyph glyph-name="macron" unicode="&#xaf;" horiz-adv-x="394" 
d="M342 844q11 0 17.5 -6.5t9.5 -14.5q4 -9 3 -20q0 -12 -4 -22q-3 -8 -9.5 -14.5t-18.5 -6.5h-283q-12 0 -18 6.5t-9 14.5q-4 10 -3 22q0 11 3 20q2 8 8 14.5t17 6.5h287z" />
    <glyph glyph-name="emacron" unicode="&#x113;" 
d="M288 104q34 0 59.5 16t36.5 30q7 8 16 8q4 0 9 -1q15 -6 32 -22t26 -37q2 -5 1.5 -9t-1.5 -7q-1 -4 -3 -7q-8 -11 -21.5 -26t-35.5 -28.5t-51.5 -23t-68.5 -9.5q-56 0 -102 16.5t-78.5 49.5t-50.5 81.5t-18 111.5v5q0 61 21.5 108t56 79t76 48t82.5 16q54 0 94 -20
t66.5 -57t40 -89.5t13.5 -117.5q0 -9 -4 -15q-3 -5 -11 -9.5t-23 -4.5h-267q2 -26 12.5 -42.5t25.5 -26t32.5 -13.5t34.5 -4zM274 380q-40 0 -68 -23t-28 -71h175q0 23 -7 40.5t-18.5 29.5t-25.5 18t-28 6zM414 621q11 0 17.5 -6.5t9.5 -14.5q4 -9 3 -20q0 -12 -4 -22
q-3 -8 -9.5 -14.5t-18.5 -6.5h-283q-12 0 -18 6.5t-9 14.5q-4 10 -3 22q0 11 3 20q2 8 8 14.5t17 6.5h287z" />
    <glyph glyph-name="Emacron" unicode="&#x112;" horiz-adv-x="564" 
d="M492 0h-423v694h425q11 0 17.5 -9t8.5 -20q3 -13 3 -29q1 -18 -3 -32q-3 -12 -9.5 -21.5t-18.5 -9.5h-286v-176v-1h200q11 0 17 -9.5t8 -20.5q3 -13 3 -29q1 -18 -3 -31q-3 -11 -9.5 -20.5t-17.5 -9.5h-197v-156h284q13 0 19.5 -9.5t9.5 -20.5q4 -13 3 -29q0 -18 -4 -31
q-3 -11 -9 -20.5t-18 -9.5zM425 833q11 0 17.5 -6.5t9.5 -14.5q4 -9 3 -20q0 -12 -4 -22q-3 -8 -9.5 -14.5t-18.5 -6.5h-283q-12 0 -18 6.5t-9 14.5q-4 10 -3 22q0 11 3 20q2 8 8 14.5t17 6.5h287z" />
    <glyph glyph-name="Amacron" unicode="&#x100;" horiz-adv-x="744" 
d="M464 662l250 -662h-160l-39 122h-285l-41 -122h-158l246 663q7 14 22.5 21t30.5 10t26.5 3h11.5q22 0 41 -4q17 -3 32 -10t23 -21zM474 239l-104 300l-34 -111l-68 -189h206zM505 833q11 0 17.5 -6.5t9.5 -14.5q4 -9 3 -20q0 -12 -4 -22q-3 -8 -9.5 -14.5t-18.5 -6.5
h-283q-12 0 -18 6.5t-9 14.5q-4 10 -3 22q0 11 3 20q2 8 8 14.5t17 6.5h287z" />
    <glyph glyph-name="Edotaccent" unicode="&#x116;" horiz-adv-x="564" 
d="M492 0h-423v694h425q11 0 17.5 -9t8.5 -20q3 -13 3 -29q1 -18 -3 -32q-3 -12 -9.5 -21.5t-18.5 -9.5h-286v-176v-1h200q11 0 17 -9.5t8 -20.5q3 -13 3 -29q1 -18 -3 -31q-3 -11 -9.5 -20.5t-17.5 -9.5h-197v-156h284q13 0 19.5 -9.5t9.5 -20.5q4 -13 3 -29q0 -18 -4 -31
q-3 -11 -9 -20.5t-18 -9.5zM341 803q0 -26 -17.5 -43t-42.5 -17t-42 17t-17 43q0 25 17 42t42 17t42.5 -17t17.5 -42z" />
    <glyph glyph-name="edotaccent" unicode="&#x117;" 
d="M288 104q34 0 59.5 16t36.5 30q7 8 16 8q4 0 9 -1q15 -6 32 -22t26 -37q2 -5 1.5 -9t-1.5 -7q-1 -4 -3 -7q-8 -11 -21.5 -26t-35.5 -28.5t-51.5 -23t-68.5 -9.5q-56 0 -102 16.5t-78.5 49.5t-50.5 81.5t-18 111.5v5q0 61 21.5 108t56 79t76 48t82.5 16q54 0 94 -20
t66.5 -57t40 -89.5t13.5 -117.5q0 -9 -4 -15q-3 -5 -11 -9.5t-23 -4.5h-267q2 -26 12.5 -42.5t25.5 -26t32.5 -13.5t34.5 -4zM274 380q-40 0 -68 -23t-28 -71h175q0 23 -7 40.5t-18.5 29.5t-25.5 18t-28 6zM331 610q0 -26 -17.5 -43t-42.5 -17t-42 17t-17 43q0 25 17 42
t42 17t42.5 -17t17.5 -42z" />
    <glyph glyph-name="amacron" unicode="&#x101;" horiz-adv-x="526" 
d="M494 0h-137v54q-16 -33 -48 -46.5t-69 -13.5q-41 0 -78 16t-65 47.5t-44 79t-16 110.5v5q0 72 21.5 119.5t53 76.5t66.5 41t62 12q35 0 67.5 -14t49.5 -42v28q0 10 10.5 15.5t23.5 8.5q15 4 35 4q19 0 34 -3q13 -2 23.5 -8t10.5 -17v-473zM175 242q0 -35 9 -57t23.5 -34
t31.5 -16t33 -4q19 0 42.5 11.5t42.5 30.5v154q-9 11 -21 19.5t-25 14t-25.5 8t-21.5 2.5q-11 0 -26 -4t-29 -17t-24 -37t-10 -63v-8zM436 619q11 0 17.5 -6.5t9.5 -14.5q4 -9 3 -20q0 -12 -4 -22q-3 -8 -9.5 -14.5t-18.5 -6.5h-283q-12 0 -18 6.5t-9 14.5q-4 10 -3 22
q0 11 3 20q2 8 8 14.5t17 6.5h287z" />
    <glyph glyph-name="Omacron" unicode="&#x14c;" horiz-adv-x="772" 
d="M383 705q76 1 139 -24t108.5 -73t70.5 -116.5t25 -153.5q0 -81 -23.5 -145.5t-68 -110t-108 -70.5t-143.5 -25q-78 0 -140.5 24t-107 69t-68.5 110t-24 146q0 84 25 152t70 116t107.5 74.5t137.5 26.5zM385 116q44 -1 80.5 14t63 44t41 71.5t14.5 98.5q0 51 -13 94
t-38.5 73.5t-62.5 47t-85 16.5q-46 0 -83 -17t-63 -47.5t-40 -73t-14 -93.5q0 -112 53 -169t147 -59zM529 835q11 0 17.5 -6.5t9.5 -14.5q4 -9 3 -20q0 -12 -4 -22q-3 -8 -9.5 -14.5t-18.5 -6.5h-283q-12 0 -18 6.5t-9 14.5q-4 10 -3 22q0 11 3 20q2 8 8 14.5t17 6.5h287z
" />
    <glyph glyph-name="omacron" unicode="&#x14d;" horiz-adv-x="591" 
d="M290 508q55 1 100.5 -17.5t78.5 -53t51 -84t18 -110.5q0 -58 -17 -104.5t-49 -79.5t-78 -50.5t-104 -17.5q-55 0 -100 17t-77 50t-49.5 79.5t-17.5 104.5q0 60 18 109.5t50.5 84t77.5 53.5t98 19zM291 107q50 -1 81.5 37t31.5 99q0 29 -7.5 54.5t-22 44.5t-35.5 30
t-48 11q-25 0 -45.5 -11t-35 -30t-22.5 -44.5t-8 -54.5q0 -61 30 -97.5t81 -38.5zM438 635q11 0 17.5 -6.5t9.5 -14.5q4 -9 3 -20q0 -12 -4 -22q-3 -8 -9.5 -14.5t-18.5 -6.5h-283q-12 0 -18 6.5t-9 14.5q-4 10 -3 22q0 11 3 20q2 8 8 14.5t17 6.5h287z" />
    <glyph glyph-name="imacron" unicode="&#x12b;" horiz-adv-x="250" 
d="M195 0h-137v473q0 10 10.5 15.5t23.5 8.5q15 4 35 4q19 0 34 -3q13 -2 23.5 -8t10.5 -17v-473zM269 631q11 0 17.5 -6.5t9.5 -14.5q4 -9 3 -20q0 -12 -4 -22q-3 -8 -9.5 -14.5t-18.5 -6.5h-283q-12 0 -18 6.5t-9 14.5q-4 10 -3 22q0 11 3 20q2 8 8 14.5t17 6.5h287z" />
    <glyph glyph-name="umacron" unicode="&#x16b;" horiz-adv-x="541" 
d="M353 0v50q-17 -27 -48 -41.5t-64 -14.5q-47 0 -79.5 12.5t-53.5 32.5t-32 44t-16 47t-6 42.5t-1 29.5v270q0 10 10.5 15.5t23.5 8.5q15 4 35 4q19 0 34 -3q13 -2 23.5 -8t10.5 -17v-242q0 -36 8.5 -55.5t20 -29t22 -11.5t14.5 -2q15 -1 30.5 3.5t29 11.5t23.5 15t15 14
v296q0 10 10.5 15.5t23.5 8.5q15 4 35 4q19 0 34 -3q13 -2 23.5 -8t10.5 -17v-472h-137zM413 633q11 0 17.5 -6.5t9.5 -14.5q4 -9 3 -20q0 -12 -4 -22q-3 -8 -9.5 -14.5t-18.5 -6.5h-283q-12 0 -18 6.5t-9 14.5q-4 10 -3 22q0 11 3 20q2 8 8 14.5t17 6.5h287z" />
    <glyph glyph-name="Umacron" unicode="&#x16a;" horiz-adv-x="665" 
d="M543 695q21 0 39 -3q14 -2 26.5 -8t12.5 -17v-358q0 -80 -16 -139.5t-50.5 -99.5t-88 -60t-129.5 -20q-78 0 -133 20.5t-89.5 60.5t-50 98.5t-15.5 135.5v362q0 9 7 14q4 3 8 4q12 5 29 7.5t34 2.5t32 -3t23 -7q3 -2 6 -5q6 -6 6 -13v-355q0 -52 8.5 -87.5t26 -58
t44.5 -32.5t65 -10q40 0 66 14t41 39.5t20.5 59.5t5.5 75l1 355q0 11 10.5 17t24.5 8q16 3 36 3zM477 840q11 0 17.5 -6.5t9.5 -14.5q4 -9 3 -20q0 -12 -4 -22q-3 -8 -9.5 -14.5t-18.5 -6.5h-283q-12 0 -18 6.5t-9 14.5q-4 10 -3 22q0 11 3 20q2 8 8 14.5t17 6.5h287z" />
    <glyph glyph-name="Cdotaccent" unicode="&#x10a;" horiz-adv-x="693" 
d="M203 343q0 -103 48.5 -162t136.5 -59q47 0 83.5 20t53.5 48q3 5 8 7t10 3q5 0 11 -1q7 -1 18.5 -5t23.5 -11.5t22.5 -18t16.5 -25.5q2 -6 2 -11.5t-2 -10.5l-4 -10q-11 -15 -30 -36t-48.5 -39.5t-70.5 -31.5t-95 -13q-77 0 -138.5 25t-104.5 71.5t-65.5 112.5t-22.5 149
v7q0 80 25.5 144t70 109t105 69.5t130.5 24.5q55 0 96.5 -13t71 -30.5t46.5 -36t25 -28.5q3 -5 5 -10t2 -10.5t-2 -10.5q-6 -16 -17 -27.5t-23.5 -20t-24.5 -13t-20 -5.5q-5 -1 -9 0t-8.5 2t-7.5 6q-8 11 -22 22t-31 20t-37.5 15t-41.5 6q-88 0 -137 -57t-49 -155v-10z
M435 805q0 -26 -17.5 -43t-42.5 -17t-42 17t-17 43q0 25 17 42t42 17t42.5 -17t17.5 -42z" />
    <glyph glyph-name="cdotaccent" unicode="&#x10b;" horiz-adv-x="506" 
d="M178 245q0 -30 9 -55t24 -42.5t35 -27.5t42 -10q35 0 58 15t34 30q3 5 7.5 6.5t8.5 1.5t9 -1q15 -6 34 -24.5t28 -39.5q2 -5 1.5 -9t-1.5 -7q-1 -4 -3 -7q-8 -11 -21.5 -26t-35.5 -28.5t-51.5 -23t-68.5 -9.5q-56 0 -102 18t-78.5 52t-50.5 82t-18 107v5q0 56 20 102.5
t54 79.5t79 51t96 18q40 0 70 -9.5t51 -22t34 -26t18 -20.5q1 -3 3 -7q1 -3 2 -7.5t-1 -8.5q-9 -23 -28 -43t-36 -27q-4 -2 -8 -2q-9 -2 -16 5q-17 17 -36.5 28t-50.5 11q-18 0 -37.5 -8t-36 -23t-27 -37.5t-10.5 -52.5v-8zM337 598q0 -26 -17.5 -43t-42.5 -17t-42 17
t-17 43q0 25 17 42t42 17t42.5 -17t17.5 -42z" />
    <glyph glyph-name="uni1E6B" unicode="&#x1e6b;" horiz-adv-x="404" 
d="M349 568q11 0 17.5 -8.5t9.5 -18.5q4 -11 3 -26q0 -16 -4 -28q-3 -11 -9.5 -19t-18.5 -8h-72v-460h-137v460h-74q-12 0 -18 8t-9 19q-4 12 -3 28q0 15 3 26q2 10 8 18.5t17 8.5h76v130q0 10 10.5 15.5t23.5 8.5q15 4 35 4q19 0 34 -3q13 -2 23.5 -8t10.5 -17v-130h74z
M270 834q0 -26 -17.5 -43t-42.5 -17t-42 17t-17 43q0 25 17 42t42 17t42.5 -17t17.5 -42z" />
    <glyph glyph-name="ycircumflex" unicode="&#x177;" horiz-adv-x="644" 
d="M186 -210l115 285q-51 87 -101 173t-102 173q-4 6 -2 14q1 4 2 6q10 16 34 34.5t53 23.5q5 1 10 0t9.5 -3t7.5 -7l151 -258l105 256q3 9 14.5 11t25.5 0q15 -2 34 -7q19 -6 32 -13q11 -6 19.5 -15t4.5 -20l-268 -653h-144zM257 556q-8 -9 -19 -9q-5 0 -10 1
q-22 7 -35.5 21t-19.5 23q-2 3 -3 7q-2 8 4 15l134 133h77l134 -133q6 -7 4 -15q-1 -4 -3 -7q-6 -9 -20.5 -23t-35.5 -21q-6 -1 -10 -1q-10 0 -18 9l-90 99z" />
    <glyph glyph-name="wcircumflex" unicode="&#x175;" horiz-adv-x="783" 
d="M545 234l80 253q2 7 7.5 10.5t10.5 5.5q6 2 13 1q23 -1 47.5 -9.5t38.5 -22.5q3 -3 6 -7q5 -8 2 -19l-140 -446h-125l-94 309l-91 -309h-124l-141 445q-4 12 3 21q3 4 8 8q6 5 16.5 10t23 9.5t25.5 7t25 2.5q7 0 13 -2q5 -2 10 -5t7 -11l71 -247l84 242q2 7 6.5 11t9.5 7
t11 5q13 4 40 5t48 -5q5 -1 9 -5q4 -3 8 -7.5t7 -11.5zM302 556q-8 -9 -19 -9q-5 0 -10 1q-22 7 -35.5 21t-19.5 23q-2 3 -3 7q-2 8 4 15l134 133h77l134 -133q6 -7 4 -15q-1 -4 -3 -7q-6 -9 -20.5 -23t-35.5 -21q-6 -1 -10 -1q-10 0 -18 9l-90 99z" />
    <glyph glyph-name="Wcircumflex" unicode="&#x174;" horiz-adv-x="1021" 
d="M581 634l126 -390l133 436q2 7 7.5 10.5t10.5 5.5q6 2 13 1q12 0 25.5 -3t27 -7.5t24.5 -10.5t18 -13q3 -3 6 -7q5 -8 2 -19l-199 -637h-128l-144 461l-141 -461h-127l-201 638q-4 12 3 21q3 4 8 8q6 5 17 10.5t24 10t26.5 7.5t25.5 3q7 0 13 -2q5 -2 10 -5t7 -11
l131 -432l125 386q2 6 6 10t9 6q5 3 11 5t20 3.5t30 1.5t31.5 -1t26.5 -4q5 -1 9 -4q4 -2 8 -6.5t6 -10.5zM421 727q-8 -9 -19 -9q-5 0 -10 1q-22 7 -35.5 21t-19.5 23q-2 3 -3 7q-2 8 4 15l134 133h77l134 -133q6 -7 4 -15q-1 -4 -3 -7q-6 -9 -20.5 -23t-35.5 -21
q-6 -1 -10 -1q-10 0 -18 9l-90 99z" />
    <glyph glyph-name="uni1E6A" unicode="&#x1e6a;" horiz-adv-x="622" 
d="M560 574h-174v-574h-143v574h-180q-13 0 -19.5 9t-9.5 20q-4 12 -4 29q-1 17 3 30q2 11 8.5 21t19.5 10h501q13 0 19 -9t9 -20q3 -13 3 -29q1 -18 -3 -31q-3 -11 -10 -20.5t-20 -9.5zM370 809q0 -26 -17.5 -43t-42.5 -17t-42 17t-17 43q0 25 17 42t42 17t42.5 -17
t17.5 -42z" />
    <glyph glyph-name="Ycircumflex" unicode="&#x176;" horiz-adv-x="693" 
d="M45 621q-4 6 -2 14q1 4 2 6q5 8 15 17.5t22.5 18t26.5 15t29 9.5q5 1 10 0t9.5 -3t7.5 -7l175 -296l181 306q5 8 15 10q4 1 10 0q12 -1 27 -7.5t28.5 -15t24.5 -18.5t16 -19q2 -2 3 -6q1 -6 -3 -15l-231 -389v-241h-142v241q-57 95 -112 190t-112 190zM257 756
q-8 -9 -19 -9q-5 0 -10 1q-22 7 -35.5 21t-19.5 23q-2 3 -3 7q-2 8 4 15l134 133h77l134 -133q6 -7 4 -15q-1 -4 -3 -7q-6 -9 -20.5 -23t-35.5 -21q-6 -1 -10 -1q-10 0 -18 9l-90 99z" />
    <glyph glyph-name="uni1E61" unicode="&#x1e61;" horiz-adv-x="495" 
d="M43 87q2 7 7.5 16t13 18.5t17.5 17.5t21 13q5 2 10 2t9 -1t7 -3q22 -17 55 -31t60 -15q35 -1 54.5 9t21.5 31q2 24 -17.5 35.5t-49 19.5t-65 15.5t-65.5 22.5t-50.5 41.5t-20.5 72.5q0 39 15.5 68.5t42.5 49t63.5 29.5t78.5 10q48 0 96 -17t82 -54q3 -4 4 -8t1 -7
q0 -4 -2 -8q-3 -12 -10.5 -23.5t-15.5 -20.5t-16 -15.5t-14 -9.5q-3 -2 -7 -2q-3 0 -7 0.5t-8 4.5q-23 17 -52.5 30.5t-57.5 15.5q-8 0 -17.5 -1.5t-18 -6t-14.5 -12.5t-6 -21q0 -18 20 -27t49.5 -16t64 -15.5t64 -25.5t49.5 -45t20 -75q0 -75 -52.5 -118t-156.5 -43
q-66 0 -118 21t-83 54q-2 2 -3 6q-2 7 1 18zM307 618q0 -26 -17.5 -43t-42.5 -17t-42 17t-17 43q0 25 17 42t42 17t42.5 -17t17.5 -42z" />
    <glyph glyph-name="wdieresis" unicode="&#x1e85;" horiz-adv-x="783" 
d="M545 234l80 253q2 7 7.5 10.5t10.5 5.5q6 2 13 1q23 -1 47.5 -9.5t38.5 -22.5q3 -3 6 -7q5 -8 2 -19l-140 -446h-125l-94 309l-91 -309h-124l-141 445q-4 12 3 21q3 4 8 8q6 5 16.5 10t23 9.5t25.5 7t25 2.5q7 0 13 -2q5 -2 10 -5t7 -11l71 -247l84 242q2 7 6.5 11t9.5 7
t11 5q13 4 40 5t48 -5q5 -1 9 -5q4 -3 8 -7.5t7 -11.5zM374 633q0 -26 -17.5 -43t-42.5 -17t-42 17t-17 43q0 25 17 42t42 17t42.5 -17t17.5 -42zM527 633q0 -26 -17.5 -43t-42.5 -17t-42 17t-17 43q0 25 17 42t42 17t42.5 -17t17.5 -42z" />
    <glyph glyph-name="Wdieresis" unicode="&#x1e84;" horiz-adv-x="1021" 
d="M581 634l126 -390l133 436q2 7 7.5 10.5t10.5 5.5q6 2 13 1q12 0 25.5 -3t27 -7.5t24.5 -10.5t18 -13q3 -3 6 -7q5 -8 2 -19l-199 -637h-128l-144 461l-141 -461h-127l-201 638q-4 12 3 21q3 4 8 8q6 5 17 10.5t24 10t26.5 7.5t25.5 3q7 0 13 -2q5 -2 10 -5t7 -11
l131 -432l125 386q2 6 6 10t9 6q5 3 11 5t20 3.5t30 1.5t31.5 -1t26.5 -4q5 -1 9 -4q4 -2 8 -6.5t6 -10.5zM493 786q0 -26 -17.5 -43t-42.5 -17t-42 17t-17 43q0 25 17 42t42 17t42.5 -17t17.5 -42zM646 786q0 -26 -17.5 -43t-42.5 -17t-42 17t-17 43q0 25 17 42t42 17
t42.5 -17t17.5 -42z" />
    <glyph glyph-name="ygrave" unicode="&#x1ef3;" horiz-adv-x="644" 
d="M186 -210l115 285q-51 87 -101 173t-102 173q-4 6 -2 14q1 4 2 6q10 16 34 34.5t53 23.5q5 1 10 0t9.5 -3t7.5 -7l151 -258l105 256q3 9 14.5 11t25.5 0q15 -2 34 -7q19 -6 32 -13q11 -6 19.5 -15t4.5 -20l-268 -653h-144zM198 596q-3 1 -7 4q-8 6 -7 17q3 35 13.5 54
t16.5 27q5 6 15 6q4 0 9 -2l222 -83l-22 -77l-240 54v0z" />
    <glyph glyph-name="uni1E60" unicode="&#x1e60;" horiz-adv-x="630" 
d="M42 123q3 6 9 16t14.5 20.5t19.5 20t25 15.5q8 3 13.5 3t9.5 -1l8 -4q15 -13 36 -26.5t44.5 -24t46 -17t40.5 -6.5q25 0 49.5 2.5t43.5 12t30.5 27t11.5 47.5q0 32 -28.5 48.5t-71.5 28t-93.5 22.5t-93.5 32.5t-71.5 58t-28.5 98.5q0 52 20 91t55 65t83 38.5t104 12.5
q63 0 125 -27t107 -76q7 -8 7 -19q0 -5 -1 -11q-4 -15 -13 -27.5t-19 -21t-20 -14t-16 -7.5q-5 -2 -10 -2t-9.5 0.5t-9.5 5.5q-14 12 -31.5 24.5t-37 22t-40.5 15.5t-41 6q-21 0 -40 -2t-33.5 -9.5t-23 -21t-8.5 -35.5q0 -20 16.5 -33.5t43.5 -23.5t61 -18.5t70 -19t70 -25
t61 -37t43.5 -55t16.5 -77.5q0 -109 -68 -168.5t-207 -59.5q-44 0 -83.5 9t-74 25t-62.5 36.5t-48 43.5q-2 2 -3 6q-1 3 -1 7t3 9zM374 809q0 -26 -17.5 -43t-42.5 -17t-42 17t-17 43q0 25 17 42t42 17t42.5 -17t17.5 -42z" />
    <glyph glyph-name="wacute" unicode="&#x1e83;" horiz-adv-x="783" 
d="M545 234l80 253q2 7 7.5 10.5t10.5 5.5q6 2 13 1q23 -1 47.5 -9.5t38.5 -22.5q3 -3 6 -7q5 -8 2 -19l-140 -446h-125l-94 309l-91 -309h-124l-141 445q-4 12 3 21q3 4 8 8q6 5 16.5 10t23 9.5t25.5 7t25 2.5q7 0 13 -2q5 -2 10 -5t7 -11l71 -247l84 242q2 7 6.5 11t9.5 7
t11 5q13 4 40 5t48 -5q5 -1 9 -5q4 -3 8 -7.5t7 -11.5zM515 599l-240 -54l-22 77l222 83q5 2 9 2q9 0 15 -6q6 -8 16.5 -27t13.5 -54q0 -12 -7 -17q-4 -3 -7 -4z" />
    <glyph glyph-name="uni1E57" unicode="&#x1e57;" horiz-adv-x="553" 
d="M52 -209v683q0 11 10.5 17t23.5 8q15 3 34 3t34 -4q13 -3 24 -8.5t11 -15.5v-28q10 15 25 25t32 17t34.5 10t32.5 3q30 0 66 -11.5t67 -40t52 -77t21 -122.5v-5q0 -63 -17 -110.5t-45.5 -78.5t-65.5 -46.5t-78 -15.5q-37 0 -70.5 15t-53.5 42v-260h-137zM376 246
q0 37 -11 60t-26.5 35.5t-31.5 17t-25 4.5q-21 0 -47 -9.5t-46 -35.5v-148q18 -21 42 -29t43 -8q16 0 34 6.5t33 19.5t25 32.5t10 46.5v8zM336 601q0 -26 -17.5 -43t-42.5 -17t-42 17t-17 43q0 25 17 42t42 17t42.5 -17t17.5 -42z" />
    <glyph glyph-name="wgrave" unicode="&#x1e81;" horiz-adv-x="783" 
d="M545 234l80 253q2 7 7.5 10.5t10.5 5.5q6 2 13 1q23 -1 47.5 -9.5t38.5 -22.5q3 -3 6 -7q5 -8 2 -19l-140 -446h-125l-94 309l-91 -309h-124l-141 445q-4 12 3 21q3 4 8 8q6 5 16.5 10t23 9.5t25.5 7t25 2.5q7 0 13 -2q5 -2 10 -5t7 -11l71 -247l84 242q2 7 6.5 11t9.5 7
t11 5q13 4 40 5t48 -5q5 -1 9 -5q4 -3 8 -7.5t7 -11.5zM268 596q-3 1 -7 4q-8 6 -7 17q3 35 13.5 54t16.5 27q5 6 15 6q4 0 9 -2l222 -83l-22 -77l-240 54v0z" />
    <glyph glyph-name="uni1E56" unicode="&#x1e56;" horiz-adv-x="589" 
d="M307 693q74 0 121.5 -20.5t75.5 -53.5t38.5 -73t10.5 -79q0 -74 -24 -122.5t-61 -77t-82 -39.5t-88 -11h-94v-217h-142v693h245zM204 575v-240h95q35 2 62 15q23 11 42.5 36.5t19.5 74.5q0 31 -12 57q-11 21 -34.5 39t-69.5 18h-103zM354 809q0 -26 -17.5 -43t-42.5 -17
t-42 17t-17 43q0 25 17 42t42 17t42.5 -17t17.5 -42z" />
    <glyph glyph-name="uni1E41" unicode="&#x1e41;" horiz-adv-x="747" 
d="M447 336q3 -14 4 -31.5t1 -26.5v-278h-141v304q0 26 -17 42t-41 16q-25 0 -43.5 -13t-22.5 -24v-325h-137v472q0 10 10.5 15.5t23.5 8.5q15 4 35 4q19 0 34 -3q13 -2 23.5 -8t10.5 -17v-27q4 8 13 17.5t23.5 18t33.5 14t44 5.5q36 0 59 -14t43 -40q21 20 42 31t40 16
t34.5 6t24.5 1q63 0 97 -26.5t49 -62.5t17 -72.5t2 -56.5l1 -282h-141v302q0 33 -16 47t-37 14q-12 0 -32 -5t-37 -22zM433 612q0 -26 -17.5 -43t-42.5 -17t-42 17t-17 43q0 25 17 42t42 17t42.5 -17t17.5 -42z" />
    <glyph glyph-name="uni1E40" unicode="&#x1e40;" horiz-adv-x="860" 
d="M807 662v-662h-142v452l-234 -385h-4l-233 385v-452h-141v662q0 12 11 19q4 4 11 6q7 3 21.5 6t32 3.5t34.5 -1t31 -7.5q3 -1 7 -4q7 -5 12 -13l215 -339h3l215 341q2 5 6 7.5t7 4.5l8 4q16 6 34 8t34.5 1t31 -4.5t23.5 -6.5q4 -1 8 -5q3 -3 6 -7.5t3 -12.5zM489 768
q0 -26 -17.5 -43t-42.5 -17t-42 17t-17 43q0 25 17 42t42 17t42.5 -17t17.5 -42z" />
    <glyph glyph-name="gdotaccent" unicode="&#x121;" horiz-adv-x="565" 
d="M509 0v-10q0 -50 -13.5 -92t-40.5 -72.5t-68 -47.5t-95 -17q-36 0 -71.5 9t-65.5 25t-53 38t-33 49q-2 6 -2 11t0.5 10t5.5 10q13 14 33 27t46 15q7 0 12 -3l10 -6q4 -4 9 -8q22 -26 51 -39.5t59 -13.5q79 0 79 121v48q-16 -33 -48 -46.5t-69 -13.5q-41 0 -78 16
t-65 47.5t-44 79t-16 110.5v5q0 74 22 122t55 76.5t70.5 39.5t68.5 11q10 0 24 -3t29 -9.5t28.5 -17.5t22.5 -26v29q0 10 10.5 15.5t23.5 8.5q15 4 35 4q19 0 34 -3q13 -2 23.5 -8t10.5 -17v-474zM190 245q0 -35 9 -57.5t23.5 -35t31.5 -17t33 -4.5q19 0 42.5 11.5
t42.5 30.5v154q-9 11 -21 19.5t-25 14t-25.5 8.5t-21.5 3q-11 0 -26 -4t-29 -16.5t-24 -36t-10 -62.5v-8zM342 616q0 -26 -17.5 -43t-42.5 -17t-42 17t-17 43q0 25 17 42t42 17t42.5 -17t17.5 -42z" />
    <glyph glyph-name="Gdotaccent" unicode="&#x120;" horiz-adv-x="707" 
d="M423 347h246v-347h-120v59q-30 -32 -72 -52t-99 -20q-71 0 -130.5 25t-102 71.5t-66 112.5t-23.5 148q0 80 22.5 146.5t64 114t101 74t134.5 26.5h1q48 1 85 -6.5t65.5 -21.5t51 -33t42.5 -41l6 -12q2 -5 3 -11t-1 -12q-6 -18 -17 -30t-23.5 -20t-24.5 -12t-18 -5
q-14 -2 -20 2.5t-10 9.5q-5 7 -15.5 17.5t-27 21t-39.5 18t-52 7.5q-44 0 -78 -17t-57.5 -47t-36 -71.5t-12.5 -90.5q0 -113 47.5 -172t140.5 -59q21 0 44 5t44.5 16.5t39.5 30t29 46.5h-124q-10 0 -17 7q-6 6 -11 19t-5 39t5 38.5t12 18.5q8 6 18 7zM431 813
q0 -26 -17.5 -43t-42.5 -17t-42 17t-17 43q0 25 17 42t42 17t42.5 -17t17.5 -42z" />
    <glyph glyph-name="uni1E1F" unicode="&#x1e1f;" horiz-adv-x="446" 
d="M128 499v14q0 42 6.5 80.5t24 67t49 45.5t81.5 17q27 0 47 -4t34.5 -10t23.5 -12.5t14 -10.5q3 -2 5 -6q3 -7 1 -17q-3 -11 -15.5 -36.5t-36.5 -44.5q-9 -6 -18 -2q-4 1 -9 4t-10 5t-11 3t-13 1q-20 -1 -28.5 -20.5t-7.5 -59.5v-14h85q11 0 17.5 -8t9.5 -18q4 -11 3 -26
q0 -16 -4 -28q-3 -11 -9.5 -19.5t-18.5 -8.5h-83v-391h-137v391h-63q-12 0 -18 8.5t-9 19.5q-4 12 -3 28q0 15 3 26q2 10 8 18t17 8h65zM312 835q0 -26 -17.5 -43t-42.5 -17t-42 17t-17 43q0 25 17 42t42 17t42.5 -17t17.5 -42z" />
    <glyph glyph-name="uni1E1E" unicode="&#x1e1e;" horiz-adv-x="545" 
d="M383 276h-195v-276h-143v694h428q12 0 18.5 -9t9.5 -20q4 -13 3 -29q0 -18 -3 -31q-2 -12 -8.5 -21.5t-17.5 -9.5h-288v-176h197q13 0 19 -9.5t9 -20.5q3 -13 3 -30q1 -18 -3 -31q-3 -12 -9.5 -21.5t-19.5 -9.5zM322 809q0 -26 -17.5 -43t-42.5 -17t-42 17t-17 43
q0 25 17 42t42 17t42.5 -17t17.5 -42z" />
    <glyph glyph-name="Ygrave" unicode="&#x1ef2;" horiz-adv-x="693" 
d="M45 621q-4 6 -2 14q1 4 2 6q5 8 15 17.5t22.5 18t26.5 15t29 9.5q5 1 10 0t9.5 -3t7.5 -7l175 -296l181 306q5 8 15 10q4 1 10 0q12 -1 27 -7.5t28.5 -15t24.5 -18.5t16 -19q2 -2 3 -6q1 -6 -3 -15l-231 -389v-241h-142v241q-57 95 -112 190t-112 190zM194 796q-3 1 -7 4
q-8 6 -7 17q3 35 13.5 54t16.5 27q5 6 15 6q4 0 9 -2l222 -83l-22 -77l-240 54v0z" />
    <glyph glyph-name="uni1E0B" unicode="&#x1e0b;" horiz-adv-x="554" 
d="M509 0h-137v54q-16 -35 -49.5 -47.5t-67.5 -12.5q-41 0 -78 16t-65 47.5t-44 79t-16 110.5v5q0 74 22.5 122t54.5 76t66.5 39.5t58.5 11.5q41 1 72 -15.5t46 -39.5v252q0 10 10.5 15.5t23.5 8.5q15 4 35 4q19 0 34 -3q13 -2 23.5 -8t10.5 -17v-698zM190 245q0 -35 9 -57
t23.5 -34t31.5 -16t33 -4q19 0 42.5 11.5t42.5 30.5v149q-9 11 -21 19.5t-25 14t-25.5 8.5t-21.5 3q-11 0 -26 -3.5t-29 -15.5t-24 -35.5t-10 -62.5v-8zM336 791q0 -26 -17.5 -43t-42.5 -17t-42 17t-17 43q0 25 17 42t42 17t42.5 -17t17.5 -42z" />
    <glyph glyph-name="Wacute" unicode="&#x1e82;" horiz-adv-x="1021" 
d="M581 634l126 -390l133 436q2 7 7.5 10.5t10.5 5.5q6 2 13 1q12 0 25.5 -3t27 -7.5t24.5 -10.5t18 -13q3 -3 6 -7q5 -8 2 -19l-199 -637h-128l-144 461l-141 -461h-127l-201 638q-4 12 3 21q3 4 8 8q6 5 17 10.5t24 10t26.5 7.5t25.5 3q7 0 13 -2q5 -2 10 -5t7 -11
l131 -432l125 386q2 6 6 10t9 6q5 3 11 5t20 3.5t30 1.5t31.5 -1t26.5 -4q5 -1 9 -4q4 -2 8 -6.5t6 -10.5zM634 776l-240 -54l-22 77l222 83q5 2 9 2q9 0 15 -6q6 -8 16.5 -27t13.5 -54q0 -12 -7 -17q-4 -3 -7 -4z" />
    <glyph glyph-name="Wgrave" unicode="&#x1e80;" horiz-adv-x="1021" 
d="M581 634l126 -390l133 436q2 7 7.5 10.5t10.5 5.5q6 2 13 1q12 0 25.5 -3t27 -7.5t24.5 -10.5t18 -13q3 -3 6 -7q5 -8 2 -19l-199 -637h-128l-144 461l-141 -461h-127l-201 638q-4 12 3 21q3 4 8 8q6 5 17 10.5t24 10t26.5 7.5t25.5 3q7 0 13 -2q5 -2 10 -5t7 -11
l131 -432l125 386q2 6 6 10t9 6q5 3 11 5t20 3.5t30 1.5t31.5 -1t26.5 -4q5 -1 9 -4q4 -2 8 -6.5t6 -10.5zM387 767q-3 1 -7 4q-8 6 -7 17q3 35 13.5 54t16.5 27q5 6 15 6q4 0 9 -2l222 -83l-22 -77l-240 54v0z" />
    <glyph glyph-name="uni1E0A" unicode="&#x1e0a;" horiz-adv-x="664" 
d="M67 0v694h237q73 0 130.5 -21t98 -63.5t62 -108t21.5 -155.5q0 -76 -19.5 -139.5t-59 -109.5t-99.5 -71.5t-141 -25.5h-230zM297 124q48 0 81.5 16t54.5 45t30.5 71t9.5 94q0 49 -9.5 89.5t-30.5 69.5t-54.5 45.5t-81.5 16.5h-88v-447h88zM371 809q0 -26 -17.5 -43
t-42.5 -17t-42 17t-17 43q0 25 17 42t42 17t42.5 -17t17.5 -42z" />
    <glyph glyph-name="uni1E03" unicode="&#x1e03;" horiz-adv-x="571" 
d="M52 698q0 11 10.5 17t23.5 8q15 3 34 3t34 -4q13 -3 24 -8.5t11 -15.5v-253q10 17 25.5 28t32 17t32 8.5t27.5 2.5q30 0 67.5 -11t69.5 -39t54 -76.5t22 -124.5v-5q0 -67 -19 -114.5t-49.5 -78t-69 -44.5t-76.5 -14q-33 0 -66 15t-50 44v-53h-138zM376 251q0 37 -11 59.5
t-26 35.5t-31 17.5t-26 4.5q-26 0 -50 -11.5t-43 -36.5v-145q19 -19 42.5 -28t42.5 -9q16 0 34 6t33 19t25 33t10 47v8zM345 793q0 -26 -17.5 -43t-42.5 -17t-42 17t-17 43q0 25 17 42t42 17t42.5 -17t17.5 -42z" />
    <glyph glyph-name="uni1E02" unicode="&#x1e02;" horiz-adv-x="611" 
d="M464 367q40 -18 70.5 -59.5t30.5 -111.5q0 -94 -60 -145t-164 -51h-286v694h276q107 0 162 -48t55 -138q0 -48 -23 -84t-61 -57zM193 409h136q53 0 73 26t20 65q0 38 -22.5 61t-73.5 23h-133v-175zM193 117h136q53 0 73 24.5t20 63.5q0 38 -22.5 62.5t-73.5 24.5h-133
v-175zM365 798q0 -26 -17.5 -43t-42.5 -17t-42 17t-17 43q0 25 17 42t42 17t42.5 -17t17.5 -42z" />
    <glyph glyph-name="Idotaccent" unicode="&#x130;" horiz-adv-x="241" 
d="M189 0h-142v667q0 10 10.5 15.5t24.5 8.5q16 4 36 4q19 0 35 -3q14 -2 25 -8t11 -17v-667zM180 803q0 -26 -17.5 -43t-42.5 -17t-42 17t-17 43q0 25 17 42t42 17t42.5 -17t17.5 -42z" />
    <glyph glyph-name="gbreve" unicode="&#x11f;" horiz-adv-x="565" 
d="M509 0v-10q0 -50 -13.5 -92t-40.5 -72.5t-68 -47.5t-95 -17q-36 0 -71.5 9t-65.5 25t-53 38t-33 49q-2 6 -2 11t0.5 10t5.5 10q13 14 33 27t46 15q7 0 12 -3l10 -6q4 -4 9 -8q22 -26 51 -39.5t59 -13.5q79 0 79 121v48q-16 -33 -48 -46.5t-69 -13.5q-41 0 -78 16
t-65 47.5t-44 79t-16 110.5v5q0 74 22 122t55 76.5t70.5 39.5t68.5 11q10 0 24 -3t29 -9.5t28.5 -17.5t22.5 -26v29q0 10 10.5 15.5t23.5 8.5q15 4 35 4q19 0 34 -3q13 -2 23.5 -8t10.5 -17v-474zM190 245q0 -35 9 -57.5t23.5 -35t31.5 -17t33 -4.5q19 0 42.5 11.5
t42.5 30.5v154q-9 11 -21 19.5t-25 14t-25.5 8.5t-21.5 3q-11 0 -26 -4t-29 -16.5t-24 -36t-10 -62.5v-8zM305 635q20 0 37.5 10t30.5 22t21 22.5t8 11.5q6 10 17 10q5 0 11 -2q21 -7 34.5 -19.5t19.5 -21.5q2 -4 3 -8q2 -9 -2 -17q0 -1 -10 -16.5t-31 -33.5t-55 -33
t-82 -15q-50 0 -84.5 15t-56 33t-31.5 33.5t-10 16.5q-3 5 -3 9t1 8t3 8q6 9 19.5 21.5t34.5 19.5q6 2 11 2q10 0 17 -10q0 -1 8 -11.5t21 -22.5t30.5 -22t37.5 -10z" />
    <glyph glyph-name="Gbreve" unicode="&#x11e;" horiz-adv-x="707" 
d="M423 347h246v-347h-120v59q-30 -32 -72 -52t-99 -20q-71 0 -130.5 25t-102 71.5t-66 112.5t-23.5 148q0 80 22.5 146.5t64 114t101 74t134.5 26.5h1q48 1 85 -6.5t65.5 -21.5t51 -33t42.5 -41l6 -12q2 -5 3 -11t-1 -12q-6 -18 -17 -30t-23.5 -20t-24.5 -12t-18 -5
q-14 -2 -20 2.5t-10 9.5q-5 7 -15.5 17.5t-27 21t-39.5 18t-52 7.5q-44 0 -78 -17t-57.5 -47t-36 -71.5t-12.5 -90.5q0 -113 47.5 -172t140.5 -59q21 0 44 5t44.5 16.5t39.5 30t29 46.5h-124q-10 0 -17 7q-6 6 -11 19t-5 39t5 38.5t12 18.5q8 6 18 7zM373 841q20 0 37.5 10
t30.5 22t21 22.5t8 11.5q6 10 17 10q5 0 11 -2q21 -7 34.5 -19.5t19.5 -21.5q2 -4 3 -8q2 -9 -2 -17q0 -1 -10 -16.5t-31 -33.5t-55 -33t-82 -15q-50 0 -84.5 15t-56 33t-31.5 33.5t-10 16.5q-3 5 -3 9t1 8t3 8q6 9 19.5 21.5t34.5 19.5q6 2 11 2q10 0 17 -10q0 -1 8 -11.5
t21 -22.5t30.5 -22t37.5 -10z" />
    <glyph glyph-name="paragraph" unicode="&#xb6;" horiz-adv-x="587" 
d="M400 599h-33v-599h-97v367h-33q-29 0 -60 7.5t-56.5 27t-41.5 52.5t-16 84q0 27 7.5 54.5t26.5 50t51.5 36.5t82.5 14h283q9 0 14 -7.5t7 -15.5q3 -11 3 -23q0 -13 -3 -24q-2 -9 -7.5 -16.5t-15.5 -7.5h-42v-599h-70v599zM228 599q-26 0 -38.5 -10t-18.5 -22
q-7 -14 -7 -32q0 -27 10.5 -41t23.5 -20q15 -7 35 -8h37v133h-42z" />
    <glyph glyph-name="germandbls" unicode="&#xdf;" horiz-adv-x="623" 
d="M270 0q-12 0 -18 9.5t-9 20.5q-4 13 -3 30q0 17 3 29q2 11 8 19.5t18 8.5h60q53 0 73 24.5t20 63.5q0 38 -22.5 62.5t-73.5 24.5h-65v117h68q31 0 48 26t17 65q0 38 -22 59.5t-60 21.5h-33q1 0 -12.5 -1.5t-30 -10.5t-30 -28t-13.5 -53v-488h-138l-1 488q0 23 6.5 58
t29.5 68t67 56.5t119 23.5h41q43 0 80 -12.5t64.5 -36t43 -58t15.5 -79.5q0 -24 -5 -46t-13 -40.5t-18 -32.5t-20 -22q40 -18 70.5 -59.5t30.5 -111.5q0 -94 -60 -146t-164 -50h-72h1z" />
    <glyph glyph-name="eth" unicode="&#xf0;" horiz-adv-x="607" 
d="M217 607q-20 9 -38 15.5t-30 11.5t-15 17t-1 24q2 14 7 29q8 21 19.5 30t22.5 11q12 3 25 -1q2 -1 27 -8t61 -24l39 52q7 10 17.5 10t21.5 -5q12 -5 26 -15q13 -9 22 -20q8 -9 11 -20t-4 -21l-32 -43q32 -25 61 -64t50.5 -90t34.5 -113.5t13 -134.5q0 -45 -13 -92.5
t-43.5 -86.5t-80 -64t-122.5 -25q-58 0 -104.5 19t-79.5 52t-51 78.5t-18 98.5q0 59 18 105.5t51 78t79 47.5t101 14q34 -2 54.5 -8.5t31.5 -11.5q-9 29 -24.5 52t-35.5 41l-38 -52q-7 -10 -18 -9.5t-22 5.5q-12 5 -26 15q-13 9 -22 19q-8 8 -12 18t3 19zM297 108
q28 0 50 10.5t37 28.5t22.5 40.5t7.5 46.5q0 25 -9 48t-25 39.5t-37.5 26.5t-45.5 10t-45.5 -10t-37.5 -26.5t-25.5 -39.5t-9.5 -48q0 -24 7.5 -46.5t22.5 -40.5t37 -28.5t51 -10.5z" />
    <glyph glyph-name="divide" unicode="&#xf7;" horiz-adv-x="557" 
d="M76 363q-11 0 -17 -9t-8 -20q-3 -13 -3 -29q-1 -17 3 -30q3 -11 9 -20.5t18 -9.5h389q12 0 18.5 9.5t9.5 20.5q4 13 4 30q1 16 -3 29q-3 11 -9.5 20t-17.5 9h-393zM361 124q0 -34 -23.5 -57t-56.5 -23t-56 23t-23 57q0 33 23 56t56 23t56.5 -23t23.5 -56zM361 487
q0 -34 -23.5 -57t-56.5 -23t-56 23t-23 57q0 33 23 56t56 23t56.5 -23t23.5 -56z" />
    <glyph glyph-name="braceleft" unicode="{" horiz-adv-x="413" 
d="M329 29q11 0 17.5 -9t9.5 -20q4 -13 3 -29q0 -17 -3 -30q-3 -11 -9 -20t-17 -7q-4 0 -21.5 -1t-41.5 3.5t-51 16t-51 36.5q-25 25 -36 60.5t-11 68.5q0 18 2.5 43t2.5 51q0 13 -4.5 26.5t-15 25t-27.5 18.5t-42 7v164q25 0 42 7.5t27.5 18.5t15 25t4.5 27q0 27 -2.5 52
t-2.5 44q0 33 11 67.5t36 60.5q24 24 51 36t51 16.5t41.5 4t21.5 -1.5q11 0 17.5 -9t9.5 -20q4 -13 3 -29q0 -17 -4 -30q-3 -11 -9 -20t-18 -7q-15 2 -29 1q-12 -1 -26 -5.5t-25 -16.5q-13 -14 -17.5 -34t-4 -40t3 -37.5t2.5 -25.5q5 -48 -12 -88.5t-65 -74.5v-3
q48 -35 65 -75.5t12 -87.5q0 -9 -2.5 -26.5t-3 -37.5t4 -40.5t17.5 -35.5q11 -12 25 -16t26 -5q14 -1 29 2z" />
    <glyph glyph-name="onesuperior" unicode="&#xb9;" horiz-adv-x="351" 
d="M47 567v91q24 12 41.5 20.5t34 14t35 8t44.5 2.5q17 1 31 -3q12 -3 22 -9.5t10 -19.5v-671h-133v567h-85z" />
    <glyph glyph-name="braceright" unicode="}" horiz-adv-x="430" 
d="M83 29q15 -3 29 -2q12 1 26 5t25 16q13 15 17.5 35.5t4 40.5t-3 37.5t-2.5 26.5q-5 47 12 87.5t65 75.5v3q-48 34 -65 74.5t-12 88.5q0 8 2.5 25.5t3 37.5t-4 40t-17.5 34q-11 12 -25 16.5t-26 5.5q-14 1 -29 -1q-12 -2 -18.5 7t-9.5 20q-4 13 -3 30q-1 16 3 29
q3 11 9 20t18 9q4 1 21.5 1.5t41.5 -4t51 -16.5t51 -36q25 -26 36 -60.5t11 -67.5q0 -19 -2.5 -44t-2.5 -52q0 -13 4.5 -27t15 -25t27.5 -18.5t42 -7.5v-164q-25 0 -42 -7t-27.5 -18.5t-15 -25t-4.5 -26.5q0 -26 2.5 -51t2.5 -43q0 -33 -11 -68.5t-36 -60.5
q-24 -25 -51 -36.5t-51 -16t-41.5 -3.5t-21.5 1q-11 -2 -17.5 7t-8.5 20q-4 13 -3 30q-1 16 3 29q3 11 9 20t18 9z" />
    <glyph glyph-name="sterling" unicode="&#xa3;" horiz-adv-x="557" 
d="M370 446q11 0 17 -8.5t8 -18.5q3 -11 3 -26q0 -16 -3 -28q-3 -11 -9 -19t-17 -8h-135v-190q18 -5 35 -12.5t32 -14t28 -11t25 -4.5q17 0 28.5 7.5t18.5 17.5t10.5 20t5.5 15q2 6 5.5 8t8.5 3t11 0q11 -2 34.5 -11t41.5 -27q3 -4 5 -9t2 -10.5t-3 -13.5q-4 -10 -14 -29
t-29 -38.5t-47 -34t-68 -14.5q-30 0 -55 7.5t-46.5 16t-39 16t-31.5 7.5q-31 0 -44.5 -12t-19.5 -24q-2 -5 -6.5 -7t-8.5 -3q-5 -1 -10 0q-10 3 -33 10.5t-42 27.5q-3 4 -5 9t-2.5 10.5t3.5 13.5q5 13 22 35.5t51 39.5v201h-65q-11 0 -16.5 8t-7.5 19q-3 12 -3 28
q-1 15 2 26q2 10 7 18.5t16 8.5h67v38q0 50 12.5 92t38 72.5t65 47.5t93.5 17q63 0 113.5 -33.5t71.5 -87.5q2 -6 2 -11t-1 -10t-5 -10q-13 -14 -33 -27t-46 -15q-7 0 -12.5 2.5t-9.5 5.5q-5 4 -9 9q-11 13 -19 23t-15.5 16.5t-16 10t-21.5 3.5q-44 0 -57.5 -29.5
t-13.5 -91.5v-22h136z" />
    <glyph glyph-name="degree" unicode="&#xb0;" horiz-adv-x="470" 
d="M419 727q0 -41 -15 -76t-40.5 -60.5t-60 -40t-73.5 -14.5t-73 14.5t-59 40t-39.5 60.5t-14.5 76q0 38 14.5 71.5t39.5 58.5t59 39.5t73 14.5t73.5 -14.5t60 -39.5t40.5 -58.5t15 -71.5zM325 727q0 18 -7.5 34t-19.5 28t-28.5 19t-34.5 7q-19 0 -35.5 -7t-28.5 -19
t-19 -28t-7 -34q0 -39 26 -65.5t64 -26.5q18 0 34.5 7t28.5 19.5t19.5 29t7.5 36.5z" />
    <glyph glyph-name="ogonek" unicode="&#x2db;" horiz-adv-x="201" 
d="M142 11v-70q1 -1 -12 5t-30 2q-8 -2 -13.5 -10t-5.5 -20q0 -2 0.5 -7.5t2.5 -10.5t6 -9t12 -4q11 0 22 0.5t30 2.5q6 1 9.5 -2.5t5.5 -8.5t3 -12q1 -18 -3 -24q-3 -4 -6 -4q-8 -2 -20.5 -4.5t-39.5 -2.5q-24 0 -39.5 7.5t-24.5 20t-13 28t-4 30.5q0 12 3.5 25t11.5 24
t22 19t34 8v17h49z" />
    <glyph glyph-name="aogonek" unicode="&#x105;" horiz-adv-x="526" 
d="M494 0h-137v54q-16 -33 -48 -46.5t-69 -13.5q-41 0 -78 16t-65 47.5t-44 79t-16 110.5v5q0 72 21.5 119.5t53 76.5t66.5 41t62 12q35 0 67.5 -14t49.5 -42v28q0 10 10.5 15.5t23.5 8.5q15 4 35 4q19 0 34 -3q13 -2 23.5 -8t10.5 -17v-473zM175 242q0 -35 9 -57t23.5 -34
t31.5 -16t33 -4q19 0 42.5 11.5t42.5 30.5v154q-9 11 -21 19.5t-25 14t-25.5 8t-21.5 2.5q-11 0 -26 -4t-29 -17t-24 -37t-10 -63v-8zM461 71v-70q1 -1 -12 5t-30 2q-8 -2 -13.5 -10t-5.5 -20q0 -2 0.5 -7.5t2.5 -10.5t6 -9t12 -4q11 0 22 0.5t30 2.5q6 1 9.5 -2.5t5.5 -8.5
t3 -12q1 -18 -3 -24q-3 -4 -6 -4q-8 -2 -20.5 -4.5t-39.5 -2.5q-24 0 -39.5 7.5t-24.5 20t-13 28t-4 30.5q0 12 3.5 25t11.5 24t22 19t34 8v17h49z" />
    <glyph glyph-name="Tcaron" unicode="&#x164;" horiz-adv-x="622" 
d="M560 574h-174v-574h-143v574h-180q-13 0 -19.5 9t-9.5 20q-4 12 -4 29q-1 17 3 30q2 11 8.5 21t19.5 10h501q13 0 19 -9t9 -20q3 -13 3 -29q1 -18 -3 -31q-3 -11 -10 -20.5t-20 -9.5zM400 940q9 9 19 9q5 0 10 -1q22 -7 35.5 -21t19.5 -23q2 -3 3 -7q1 -3 0.5 -7t-4.5 -8
l-134 -133h-77l-134 133q-4 4 -4.5 8t0.5 7q1 4 3 7q6 9 20.5 23t35.5 21q4 1 9 1q10 0 19 -9l90 -99z" />
    <glyph glyph-name="Zacute" unicode="&#x179;" horiz-adv-x="573" 
d="M488 0h-442l275 572h-235q-11 0 -17 9.5t-8 21.5q-3 13 -3 31q0 17 3 30q2 11 7 20.5t16 9.5h452l-278 -573h229q11 0 17 -9.5t8 -20.5q3 -13 2 -29q0 -18 -3 -31q-2 -12 -7 -21.5t-16 -9.5zM410 776l-240 -54l-22 77l222 83q5 2 9 2q9 0 15 -6q6 -8 16.5 -27t13.5 -54
q0 -12 -7 -17q-4 -3 -7 -4z" />
    <glyph glyph-name="sacute" unicode="&#x15b;" horiz-adv-x="495" 
d="M43 87q2 7 7.5 16t13 18.5t17.5 17.5t21 13q5 2 10 2t9 -1t7 -3q22 -17 55 -31t60 -15q35 -1 54.5 9t21.5 31q2 24 -17.5 35.5t-49 19.5t-65 15.5t-65.5 22.5t-50.5 41.5t-20.5 72.5q0 39 15.5 68.5t42.5 49t63.5 29.5t78.5 10q48 0 96 -17t82 -54q3 -4 4 -8t1 -7
q0 -4 -2 -8q-3 -12 -10.5 -23.5t-15.5 -20.5t-16 -15.5t-14 -9.5q-3 -2 -7 -2q-3 0 -7 0.5t-8 4.5q-23 17 -52.5 30.5t-57.5 15.5q-8 0 -17.5 -1.5t-18 -6t-14.5 -12.5t-6 -21q0 -18 20 -27t49.5 -16t64 -15.5t64 -25.5t49.5 -45t20 -75q0 -75 -52.5 -118t-156.5 -43
q-66 0 -118 21t-83 54q-2 2 -3 6q-2 7 1 18zM371 583l-240 -54l-22 77l222 83q5 2 9 2q9 0 15 -6q6 -8 16.5 -27t13.5 -54q0 -12 -7 -17q-4 -3 -7 -4z" />
    <glyph glyph-name="Aogonek" unicode="&#x104;" horiz-adv-x="744" 
d="M464 662l250 -662h-160l-39 122h-285l-41 -122h-158l246 663q7 14 22.5 21t30.5 10t26.5 3h11.5q22 0 41 -4q17 -3 32 -10t23 -21zM474 239l-104 300l-34 -111l-68 -189h206zM661 70v-70q1 -1 -12 5t-30 2q-8 -2 -13.5 -10t-5.5 -20q0 -2 0.5 -7.5t2.5 -10.5t6 -9t12 -4
q11 0 22 0.5t30 2.5q6 1 9.5 -2.5t5.5 -8.5t3 -12q1 -18 -3 -24q-3 -4 -6 -4q-8 -2 -20.5 -4.5t-39.5 -2.5q-24 0 -39.5 7.5t-24.5 20t-13 28t-4 30.5q0 12 3.5 25t11.5 24t22 19t34 8v17h49z" />
    <glyph glyph-name="Sacute" unicode="&#x15a;" horiz-adv-x="630" 
d="M42 123q3 6 9 16t14.5 20.5t19.5 20t25 15.5q8 3 13.5 3t9.5 -1l8 -4q15 -13 36 -26.5t44.5 -24t46 -17t40.5 -6.5q25 0 49.5 2.5t43.5 12t30.5 27t11.5 47.5q0 32 -28.5 48.5t-71.5 28t-93.5 22.5t-93.5 32.5t-71.5 58t-28.5 98.5q0 52 20 91t55 65t83 38.5t104 12.5
q63 0 125 -27t107 -76q7 -8 7 -19q0 -5 -1 -11q-4 -15 -13 -27.5t-19 -21t-20 -14t-16 -7.5q-5 -2 -10 -2t-9.5 0.5t-9.5 5.5q-14 12 -31.5 24.5t-37 22t-40.5 15.5t-41 6q-21 0 -40 -2t-33.5 -9.5t-23 -21t-8.5 -35.5q0 -20 16.5 -33.5t43.5 -23.5t61 -18.5t70 -19t70 -25
t61 -37t43.5 -55t16.5 -77.5q0 -109 -68 -168.5t-207 -59.5q-44 0 -83.5 9t-74 25t-62.5 36.5t-48 43.5q-2 2 -3 6q-1 3 -1 7t3 9zM438 799l-240 -54l-22 77l222 83q5 2 9 2q9 0 15 -6q6 -8 16.5 -27t13.5 -54q0 -12 -7 -17q-4 -3 -7 -4z" />
    <glyph glyph-name="Abreve" unicode="&#x102;" horiz-adv-x="744" 
d="M464 662l250 -662h-160l-39 122h-285l-41 -122h-158l246 663q7 14 22.5 21t30.5 10t26.5 3h11.5q22 0 41 -4q17 -3 32 -10t23 -21zM474 239l-104 300l-34 -111l-68 -189h206zM372 835q20 0 37.5 10t30.5 22t21 22.5t8 11.5q6 10 17 10q5 0 11 -2q21 -7 34.5 -19.5
t19.5 -21.5q2 -4 3 -8q2 -9 -2 -17q0 -1 -10 -16.5t-31 -33.5t-55 -33t-82 -15q-50 0 -84.5 15t-56 33t-31.5 33.5t-10 16.5q-3 5 -3 9t1 8t3 8q6 9 19.5 21.5t34.5 19.5q6 2 11 2q10 0 17 -10q0 -1 8 -11.5t21 -22.5t30.5 -22t37.5 -10z" />
    <glyph glyph-name="Racute" unicode="&#x154;" horiz-adv-x="617" 
d="M431 291l126 -291h-154l-103 265h-108v-265h-140v693h255q45 0 89.5 -7.5t79.5 -30t57 -62.5t22 -105q0 -140 -124 -197zM278 385q27 0 53 2t46.5 11.5t32.5 30t12 56.5q0 30 -9.5 48t-26.5 27.5t-41 13t-53 3.5h-100v-192h86zM412 784l-240 -54l-22 77l222 83q5 2 9 2
q9 0 15 -6q6 -8 16.5 -27t13.5 -54q0 -12 -7 -17q-4 -3 -7 -4z" />
    <glyph glyph-name="eogonek" unicode="&#x119;" 
d="M288 104q34 0 59.5 16t36.5 30q7 8 16 8q4 0 9 -1q15 -6 32 -22t26 -37q2 -5 1.5 -9t-1.5 -7q-1 -4 -3 -7q-8 -11 -21.5 -26t-35.5 -28.5t-51.5 -23t-68.5 -9.5q-56 0 -102 16.5t-78.5 49.5t-50.5 81.5t-18 111.5v5q0 61 21.5 108t56 79t76 48t82.5 16q54 0 94 -20
t66.5 -57t40 -89.5t13.5 -117.5q0 -9 -4 -15q-3 -5 -11 -9.5t-23 -4.5h-267q2 -26 12.5 -42.5t25.5 -26t32.5 -13.5t34.5 -4zM274 380q-40 0 -68 -23t-28 -71h175q0 23 -7 40.5t-18.5 29.5t-25.5 18t-28 6zM339 64v-70q1 -1 -12 5t-30 2q-8 -2 -13.5 -10t-5.5 -20
q0 -2 0.5 -7.5t2.5 -10.5t6 -9t12 -4q11 0 22 0.5t30 2.5q6 1 9.5 -2.5t5.5 -8.5t3 -12q1 -18 -3 -24q-3 -4 -6 -4q-8 -2 -20.5 -4.5t-39.5 -2.5q-24 0 -39.5 7.5t-24.5 20t-13 28t-4 30.5q0 12 3.5 25t11.5 24t22 19t34 8v17h49z" />
    <glyph glyph-name="abreve" unicode="&#x103;" horiz-adv-x="526" 
d="M494 0h-137v54q-16 -33 -48 -46.5t-69 -13.5q-41 0 -78 16t-65 47.5t-44 79t-16 110.5v5q0 72 21.5 119.5t53 76.5t66.5 41t62 12q35 0 67.5 -14t49.5 -42v28q0 10 10.5 15.5t23.5 8.5q15 4 35 4q19 0 34 -3q13 -2 23.5 -8t10.5 -17v-473zM175 242q0 -35 9 -57t23.5 -34
t31.5 -16t33 -4q19 0 42.5 11.5t42.5 30.5v154q-9 11 -21 19.5t-25 14t-25.5 8t-21.5 2.5q-11 0 -26 -4t-29 -17t-24 -37t-10 -63v-8zM281 641q20 0 37.5 10t30.5 22t21 22.5t8 11.5q6 10 17 10q5 0 11 -2q21 -7 34.5 -19.5t19.5 -21.5q2 -4 3 -8q2 -9 -2 -17
q0 -1 -10 -16.5t-31 -33.5t-55 -33t-82 -15q-50 0 -84.5 15t-56 33t-31.5 33.5t-10 16.5q-3 5 -3 9t1 8t3 8q6 9 19.5 21.5t34.5 19.5q6 2 11 2q10 0 17 -10q0 -1 8 -11.5t21 -22.5t30.5 -22t37.5 -10z" />
    <glyph glyph-name="Uring" unicode="&#x16e;" horiz-adv-x="665" 
d="M543 695q21 0 39 -3q14 -2 26.5 -8t12.5 -17v-358q0 -80 -16 -139.5t-50.5 -99.5t-88 -60t-129.5 -20q-78 0 -133 20.5t-89.5 60.5t-50 98.5t-15.5 135.5v362q0 9 7 14q4 3 8 4q12 5 29 7.5t34 2.5t32 -3t23 -7q3 -2 6 -5q6 -6 6 -13v-355q0 -52 8.5 -87.5t26 -58
t44.5 -32.5t65 -10q40 0 66 14t41 39.5t20.5 59.5t5.5 75l1 355q0 11 10.5 17t24.5 8q16 3 36 3zM453 819q0 -26 -9.5 -48.5t-26 -39t-39 -26t-47.5 -9.5t-47 9.5t-38 26t-25.5 39t-9.5 48.5q0 25 9.5 46.5t25.5 37.5t38 25.5t47 9.5t47.5 -9.5t39 -25.5t26 -37.5t9.5 -46.5
zM392 819q0 23 -17.5 40t-40.5 17q-24 0 -41 -17t-17 -40q0 -25 17 -42t41 -17q23 0 40.5 17t17.5 42z" />
    <glyph glyph-name="Eogonek" unicode="&#x118;" horiz-adv-x="564" 
d="M492 0h-423v694h425q11 0 17.5 -9t8.5 -20q3 -13 3 -29q1 -18 -3 -32q-3 -12 -9.5 -21.5t-18.5 -9.5h-286v-176v-1h200q11 0 17 -9.5t8 -20.5q3 -13 3 -29q1 -18 -3 -31q-3 -11 -9.5 -20.5t-17.5 -9.5h-197v-156h284q13 0 19.5 -9.5t9.5 -20.5q4 -13 3 -29q0 -18 -4 -31
q-3 -11 -9 -20.5t-18 -9.5zM411 71v-70q1 -1 -12 5t-30 2q-8 -2 -13.5 -10t-5.5 -20q0 -2 0.5 -7.5t2.5 -10.5t6 -9t12 -4q11 0 22 0.5t30 2.5q6 1 9.5 -2.5t5.5 -8.5t3 -12q1 -18 -3 -24q-3 -4 -6 -4q-8 -2 -20.5 -4.5t-39.5 -2.5q-24 0 -39.5 7.5t-24.5 20t-13 28t-4 30.5
q0 12 3.5 25t11.5 24t22 19t34 8v17h49z" />
    <glyph glyph-name="ecaron" unicode="&#x11b;" 
d="M288 104q34 0 59.5 16t36.5 30q7 8 16 8q4 0 9 -1q15 -6 32 -22t26 -37q2 -5 1.5 -9t-1.5 -7q-1 -4 -3 -7q-8 -11 -21.5 -26t-35.5 -28.5t-51.5 -23t-68.5 -9.5q-56 0 -102 16.5t-78.5 49.5t-50.5 81.5t-18 111.5v5q0 61 21.5 108t56 79t76 48t82.5 16q54 0 94 -20
t66.5 -57t40 -89.5t13.5 -117.5q0 -9 -4 -15q-3 -5 -11 -9.5t-23 -4.5h-267q2 -26 12.5 -42.5t25.5 -26t32.5 -13.5t34.5 -4zM274 380q-40 0 -68 -23t-28 -71h175q0 23 -7 40.5t-18.5 29.5t-25.5 18t-28 6zM360 748q9 9 19 9q5 0 10 -1q22 -7 35.5 -21t19.5 -23q2 -3 3 -7
q1 -3 0.5 -7t-4.5 -8l-134 -133h-77l-134 133q-4 4 -4.5 8t0.5 7q1 4 3 7q6 9 20.5 23t35.5 21q4 1 9 1q10 0 19 -9l90 -99z" />
    <glyph glyph-name="nacute" unicode="&#x144;" horiz-adv-x="533" 
d="M186 0h-137v474q0 10 10.5 16t23.5 8q15 3 35 3q19 1 34 -2q13 -2 23.5 -8t10.5 -17v-10q18 14 49.5 25t62.5 11q47 0 79.5 -12.5t54 -32.5t33 -44t17 -47t6.5 -42.5t1 -29.5l1 -292h-141v274q0 36 -8.5 55.5t-20 29t-22 11.5t-14.5 2q-15 1 -30.5 -3.5t-29 -11.5
t-23.5 -15t-15 -14v-328zM390 576l-240 -54l-22 77l222 83q5 2 9 2q9 0 15 -6q6 -8 16.5 -27t13.5 -54q0 -12 -7 -17q-4 -3 -7 -4z" />
    <glyph glyph-name="ncaron" unicode="&#x148;" horiz-adv-x="533" 
d="M186 0h-137v474q0 10 10.5 16t23.5 8q15 3 35 3q19 1 34 -2q13 -2 23.5 -8t10.5 -17v-10q18 14 49.5 25t62.5 11q47 0 79.5 -12.5t54 -32.5t33 -44t17 -47t6.5 -42.5t1 -29.5l1 -292h-141v274q0 36 -8.5 55.5t-20 29t-22 11.5t-14.5 2q-15 1 -30.5 -3.5t-29 -11.5
t-23.5 -15t-15 -14v-328zM355 746q9 9 19 9q5 0 10 -1q22 -7 35.5 -21t19.5 -23q2 -3 3 -7q1 -3 0.5 -7t-4.5 -8l-134 -133h-77l-134 133q-4 4 -4.5 8t0.5 7q1 4 3 7q6 9 20.5 23t35.5 21q4 1 9 1q10 0 19 -9l90 -99z" />
    <glyph glyph-name="Nacute" unicode="&#x143;" horiz-adv-x="704" 
d="M658 667v-667h-144l-319 461v-461h-135v665q0 9 6 15q3 3 7 4q15 8 49 10t70 -9q5 -2 9 -5q4 -2 8.5 -6t7.5 -9l302 -432v434q0 10 10 15.5t23 8.5q15 4 34 4q20 0 36 -3q14 -2 25 -8t11 -17zM475 776l-240 -54l-22 77l222 83q5 2 9 2q9 0 15 -6q6 -8 16.5 -27t13.5 -54
q0 -12 -7 -17q-4 -3 -7 -4z" />
    <glyph glyph-name="Ncaron" unicode="&#x147;" horiz-adv-x="704" 
d="M658 667v-667h-144l-319 461v-461h-135v665q0 9 6 15q3 3 7 4q15 8 49 10t70 -9q5 -2 9 -5q4 -2 8.5 -6t7.5 -9l302 -432v434q0 10 10 15.5t23 8.5q15 4 34 4q20 0 36 -3q14 -2 25 -8t11 -17zM441 890q9 9 19 9q5 0 10 -1q22 -7 35.5 -21t19.5 -23q2 -3 3 -7q1 -3 0.5 -7
t-4.5 -8l-134 -133h-77l-134 133q-4 4 -4.5 8t0.5 7q1 4 3 7q6 9 20.5 23t35.5 21q4 1 9 1q10 0 19 -9l90 -99z" />
    <glyph glyph-name="Zdotaccent" unicode="&#x17b;" horiz-adv-x="573" 
d="M488 0h-442l275 572h-235q-11 0 -17 9.5t-8 21.5q-3 13 -3 31q0 17 3 30q2 11 7 20.5t16 9.5h452l-278 -573h229q11 0 17 -9.5t8 -20.5q3 -13 2 -29q0 -18 -3 -31q-2 -12 -7 -21.5t-16 -9.5zM346 809q0 -26 -17.5 -43t-42.5 -17t-42 17t-17 43q0 25 17 42t42 17t42.5 -17
t17.5 -42z" />
    <glyph glyph-name="scedilla" unicode="&#x15f;" horiz-adv-x="495" 
d="M43 87q2 7 7.5 16t13 18.5t17.5 17.5t21 13q5 2 10 2t9 -1t7 -3q22 -17 55 -31t60 -15q35 -1 54.5 9t21.5 31q2 24 -17.5 35.5t-49 19.5t-65 15.5t-65.5 22.5t-50.5 41.5t-20.5 72.5q0 39 15.5 68.5t42.5 49t63.5 29.5t78.5 10q48 0 96 -17t82 -54q3 -4 4 -8t1 -7
q0 -4 -2 -8q-3 -12 -10.5 -23.5t-15.5 -20.5t-16 -15.5t-14 -9.5q-3 -2 -7 -2q-3 0 -7 0.5t-8 4.5q-23 17 -52.5 30.5t-57.5 15.5q-8 0 -17.5 -1.5t-18 -6t-14.5 -12.5t-6 -21q0 -18 20 -27t49.5 -16t64 -15.5t64 -25.5t49.5 -45t20 -75q0 -75 -52.5 -118t-156.5 -43
q-66 0 -118 21t-83 54q-2 2 -3 6q-2 7 1 18zM255 30v-63q32 5 51 -1.5t28.5 -18.5t12.5 -27t3 -27q0 -31 -19.5 -56.5t-59.5 -25.5q-27 0 -48.5 13.5t-29.5 40.5q-1 4 1 8q2 3 5.5 6.5t12.5 7.5l14 4q5 1 10.5 1t7.5 -5q4 -13 11 -17t15 -4t12 3.5t6 8t2.5 9t0.5 6.5
q0 12 -6.5 21.5t-23.5 9.5q-16 0 -31 -4t-24 -9v119h49z" />
    <glyph glyph-name="Scedilla" unicode="&#x15e;" horiz-adv-x="630" 
d="M42 123q3 6 9 16t14.5 20.5t19.5 20t25 15.5q8 3 13.5 3t9.5 -1l8 -4q15 -13 36 -26.5t44.5 -24t46 -17t40.5 -6.5q25 0 49.5 2.5t43.5 12t30.5 27t11.5 47.5q0 32 -28.5 48.5t-71.5 28t-93.5 22.5t-93.5 32.5t-71.5 58t-28.5 98.5q0 52 20 91t55 65t83 38.5t104 12.5
q63 0 125 -27t107 -76q7 -8 7 -19q0 -5 -1 -11q-4 -15 -13 -27.5t-19 -21t-20 -14t-16 -7.5q-5 -2 -10 -2t-9.5 0.5t-9.5 5.5q-14 12 -31.5 24.5t-37 22t-40.5 15.5t-41 6q-21 0 -40 -2t-33.5 -9.5t-23 -21t-8.5 -35.5q0 -20 16.5 -33.5t43.5 -23.5t61 -18.5t70 -19t70 -25
t61 -37t43.5 -55t16.5 -77.5q0 -109 -68 -168.5t-207 -59.5q-44 0 -83.5 9t-74 25t-62.5 36.5t-48 43.5q-2 2 -3 6q-1 3 -1 7t3 9zM329 30v-63q32 5 51 -1.5t28.5 -18.5t12.5 -27t3 -27q0 -31 -19.5 -56.5t-59.5 -25.5q-27 0 -48.5 13.5t-29.5 40.5q-1 4 1 8q2 3 5.5 6.5
t12.5 7.5l14 4q5 1 10.5 1t7.5 -5q4 -13 11 -17t15 -4t12 3.5t6 8t2.5 9t0.5 6.5q0 12 -6.5 21.5t-23.5 9.5q-16 0 -31 -4t-24 -9v119h49z" />
    <glyph glyph-name="guilsinglright" unicode="&#x203a;" horiz-adv-x="436" 
d="M380 282l-252 -175q-8 -4 -14.5 -3.5t-11.5 2.5q-6 3 -11 7q-16 15 -29.5 37t-14.5 34q-1 6 1 11q2 10 14 20l200 142l-200 142q-7 4 -9.5 9.5t-4.5 10.5t-1 11q1 12 15.5 33t31.5 36q5 4 11 7q5 2 11.5 2.5t14.5 -3.5l249 -173v-150z" />
    <glyph glyph-name="guilsinglleft" unicode="&#x2039;" horiz-adv-x="465" 
d="M63 432l249 173q8 4 14.5 3.5t11.5 -2.5q6 -3 11 -7q17 -15 31.5 -36t15.5 -33q1 -6 -1 -11t-5 -10.5t-9 -9.5l-200 -142l200 -142q7 -5 9.5 -10t4.5 -10q1 -5 1 -11q-1 -12 -14.5 -34t-29.5 -37q-5 -4 -11 -7q-5 -2 -12 -2.5t-14 3.5l-252 175v150z" />
    <glyph glyph-name="quotesingle" unicode="'" horiz-adv-x="189" 
d="M131 480h-85l-11 182q0 10 8 15.5t18 8.5q11 4 26 4q15 1 27 -3q11 -3 19 -9.5t9 -18.5z" />
    <glyph glyph-name="Euro" unicode="&#x20ac;" horiz-adv-x="671" 
d="M393 329q14 0 21 -7.5t10 -15.5q4 -11 4 -23q0 -13 -4 -24q-4 -9 -11.5 -16.5t-21.5 -7.5h-120q14 -54 48.5 -83.5t95.5 -29.5q47 0 73.5 20t43.5 48q3 5 8 7t10 3q5 0 11 -1q7 -1 18.5 -5t23.5 -11.5t22.5 -18t16.5 -25.5q2 -6 2 -11.5t-2 -10.5l-4 -10q-11 -15 -27 -36
t-41.5 -39.5t-63.5 -31.5t-92 -13q-127 0 -198.5 66t-93.5 182h-60q-14 0 -21 7.5t-10 16.5q-4 11 -4 24q-1 12 3 23q3 8 9.5 15.5t20.5 7.5h53v16v7v15h-51q-14 0 -21 7.5t-10 16.5q-4 11 -4 24q-1 12 3 23q3 8 9.5 15.5t20.5 7.5h64q25 112 100 175t190 63q55 0 93.5 -13
t64 -30.5t39.5 -36t22 -28.5q3 -5 5 -10t2 -10.5t-2 -10.5q-6 -16 -17 -27.5t-23.5 -20t-24.5 -13t-20 -5.5q-5 -1 -9 0t-8.5 2t-7.5 6q-17 22 -43 42.5t-69 20.5q-60 0 -94.5 -27.5t-48.5 -76.5h120q14 0 21 -7.5t10 -15.5q4 -11 4 -23q0 -13 -4 -24q-4 -9 -11.5 -16.5
t-21.5 -7.5h-131v-14v-10v-14h133z" />
    <glyph glyph-name="asciitilde" unicode="~" horiz-adv-x="608" 
d="M367 277q18 0 28.5 9t17 21t9.5 24t5 17q2 6 6 8t9 3t11 0q5 -2 15 -4.5t22 -7t24.5 -11.5t21.5 -17q3 -4 5 -9t2 -10.5t-3 -13.5l-15.5 -31t-29.5 -42.5t-48 -38t-70 -16.5q-31 0 -52.5 14.5t-38 32t-29.5 32t-28 14.5q-18 0 -28.5 -9.5t-17 -21.5t-9.5 -24t-5 -17
q-2 -6 -6 -8t-9 -3t-11 1q-11 3 -37 11.5t-46 28.5q-3 4 -5 9t-2.5 10.5t3.5 13.5q4 10 15 31t30 42.5t48 37.5t71 16q29 0 49.5 -14.5t37 -31.5t30.5 -31.5t30 -14.5z" />
    <glyph glyph-name="Cacute" unicode="&#x106;" horiz-adv-x="693" 
d="M203 343q0 -103 48.5 -162t136.5 -59q47 0 83.5 20t53.5 48q3 5 8 7t10 3q5 0 11 -1q7 -1 18.5 -5t23.5 -11.5t22.5 -18t16.5 -25.5q2 -6 2 -11.5t-2 -10.5l-4 -10q-11 -15 -30 -36t-48.5 -39.5t-70.5 -31.5t-95 -13q-77 0 -138.5 25t-104.5 71.5t-65.5 112.5t-22.5 149
v7q0 80 25.5 144t70 109t105 69.5t130.5 24.5q55 0 96.5 -13t71 -30.5t46.5 -36t25 -28.5q3 -5 5 -10t2 -10.5t-2 -10.5q-6 -16 -17 -27.5t-23.5 -20t-24.5 -13t-20 -5.5q-5 -1 -9 0t-8.5 2t-7.5 6q-8 11 -22 22t-31 20t-37.5 15t-41.5 6q-88 0 -137 -57t-49 -155v-10z
M504 779l-240 -54l-22 77l222 83q5 2 9 2q9 0 15 -6q6 -8 16.5 -27t13.5 -54q0 -12 -7 -17q-4 -3 -7 -4z" />
    <glyph glyph-name="cacute" unicode="&#x107;" horiz-adv-x="506" 
d="M178 245q0 -30 9 -55t24 -42.5t35 -27.5t42 -10q35 0 58 15t34 30q3 5 7.5 6.5t8.5 1.5t9 -1q15 -6 34 -24.5t28 -39.5q2 -5 1.5 -9t-1.5 -7q-1 -4 -3 -7q-8 -11 -21.5 -26t-35.5 -28.5t-51.5 -23t-68.5 -9.5q-56 0 -102 18t-78.5 52t-50.5 82t-18 107v5q0 56 20 102.5
t54 79.5t79 51t96 18q40 0 70 -9.5t51 -22t34 -26t18 -20.5q1 -3 3 -7q1 -3 2 -7.5t-1 -8.5q-9 -23 -28 -43t-36 -27q-4 -2 -8 -2q-9 -2 -16 5q-17 17 -36.5 28t-50.5 11q-18 0 -37.5 -8t-36 -23t-27 -37.5t-10.5 -52.5v-8zM411 576l-240 -54l-22 77l222 83q5 2 9 2
q9 0 15 -6q6 -8 16.5 -27t13.5 -54q0 -12 -7 -17q-4 -3 -7 -4z" />
    <glyph glyph-name="fi" unicode="&#xfb01;" horiz-adv-x="696" 
d="M128 499v14q0 42 6.5 80.5t24 67t49 45.5t81.5 17q27 0 47 -4t34.5 -10t23.5 -12.5t14 -10.5q3 -2 5 -6q3 -7 1 -17q-3 -11 -15.5 -36.5t-36.5 -44.5q-9 -6 -18 -2q-4 1 -9 4t-10 5t-11 3t-13 1q-20 -1 -28.5 -20.5t-7.5 -59.5v-14h85q11 0 17.5 -8t9.5 -18q4 -11 3 -26
q0 -16 -4 -28q-3 -11 -9.5 -19.5t-18.5 -8.5h-83v-391h-137v391h-63q-12 0 -18 8.5t-9 19.5q-4 12 -3 28q0 15 3 26q2 10 8 18t17 8h65zM613 612q0 -29 -20.5 -49.5t-49.5 -20.5t-49 20.5t-20 49.5t20 49t49 20t49.5 -20t20.5 -49zM612 0h-137v473q0 10 10.5 15.5t23.5 8.5
q15 4 35 4q19 0 34 -3q13 -2 23.5 -8t10.5 -17v-473z" />
    <glyph glyph-name="fl" unicode="&#xfb02;" horiz-adv-x="721" 
d="M128 499v14q0 42 6.5 80.5t24 67t49 45.5t81.5 17q27 0 47 -4t34.5 -10t23.5 -12.5t14 -10.5q3 -2 5 -6q3 -7 1 -17q-3 -11 -15.5 -36.5t-36.5 -44.5q-9 -6 -18 -2q-4 1 -9 4t-10 5t-11 3t-13 1q-20 -1 -28.5 -20.5t-7.5 -59.5v-14h85q11 0 17.5 -8t9.5 -18q4 -11 3 -26
q0 -16 -4 -28q-3 -11 -9.5 -19.5t-18.5 -8.5h-83v-391h-137v391h-63q-12 0 -18 8.5t-9 19.5q-4 12 -3 28q0 15 3 26q2 10 8 18t17 8h65zM616 0h-137v698q0 10 10.5 15.5t23.5 8.5q15 4 35 4q19 0 34 -3q13 -2 23.5 -8t10.5 -17v-698z" />
    <glyph glyph-name="B" unicode="B" horiz-adv-x="611" 
d="M464 367q40 -18 70.5 -59.5t30.5 -111.5q0 -94 -60 -145t-164 -51h-286v694h276q107 0 162 -48t55 -138q0 -48 -23 -84t-61 -57zM193 409h136q53 0 73 26t20 65q0 38 -22.5 61t-73.5 23h-133v-175zM193 117h136q53 0 73 24.5t20 63.5q0 38 -22.5 62.5t-73.5 24.5h-133
v-175z" />
    <glyph glyph-name="C" unicode="C" horiz-adv-x="693" 
d="M203 343q0 -103 48.5 -162t136.5 -59q47 0 83.5 20t53.5 48q3 5 8 7t10 3q5 0 11 -1q7 -1 18.5 -5t23.5 -11.5t22.5 -18t16.5 -25.5q2 -6 2 -11.5t-2 -10.5l-4 -10q-11 -15 -30 -36t-48.5 -39.5t-70.5 -31.5t-95 -13q-77 0 -138.5 25t-104.5 71.5t-65.5 112.5t-22.5 149
v7q0 80 25.5 144t70 109t105 69.5t130.5 24.5q55 0 96.5 -13t71 -30.5t46.5 -36t25 -28.5q3 -5 5 -10t2 -10.5t-2 -10.5q-6 -16 -17 -27.5t-23.5 -20t-24.5 -13t-20 -5.5q-5 -1 -9 0t-8.5 2t-7.5 6q-8 11 -22 22t-31 20t-37.5 15t-41.5 6q-88 0 -137 -57t-49 -155v-10z" />
    </font>
</defs>
</svg>
